<svg width="40" height="40" viewBox="0 0 40 40" fill="none" xmlns="http://www.w3.org/2000/svg">
<rect x="0.5" y="0.5" width="39" height="39" stroke="white"/>
<path d="M16.2893 14.8182V25H14.4449V16.6129H14.3852L12.0038 18.1342V16.4439L14.5344 14.8182H16.2893ZM20.0031 23.777C19.7015 23.777 19.443 23.6709 19.2275 23.4588C19.0121 23.2434 18.906 22.9848 18.9094 22.6832C18.906 22.3849 19.0121 22.1297 19.2275 21.9176C19.443 21.7055 19.7015 21.5994 20.0031 21.5994C20.2948 21.5994 20.5483 21.7055 20.7638 21.9176C20.9825 22.1297 21.0935 22.3849 21.0969 22.6832C21.0935 22.8854 21.0405 23.0694 20.9378 23.2351C20.8383 23.4008 20.7058 23.5334 20.54 23.6328C20.3776 23.7289 20.1987 23.777 20.0031 23.777ZM20.0031 18.7308C19.7015 18.7308 19.443 18.6248 19.2275 18.4126C19.0121 18.1972 18.906 17.9387 18.9094 17.6371C18.906 17.3388 19.0121 17.0836 19.2275 16.8714C19.443 16.656 19.7015 16.5483 20.0031 16.5483C20.2948 16.5483 20.5483 16.656 20.7638 16.8714C20.9825 17.0836 21.0935 17.3388 21.0969 17.6371C21.0935 17.8359 21.0405 18.0182 20.9378 18.1839C20.8383 18.3497 20.7058 18.4822 20.54 18.5817C20.3776 18.6811 20.1987 18.7308 20.0031 18.7308ZM27.0764 14.8182V25H25.232V16.6129H25.1723L22.7909 18.1342V16.4439L25.3215 14.8182H27.0764Z" fill="white"/>
</svg>
