<svg width="40" height="80" viewBox="0 0 40 80" fill="none" xmlns="http://www.w3.org/2000/svg">
<rect x="0.5" y="0.5" width="39" height="79" stroke="white"/>
<path d="M15.305 34.8182V45H13.4605V36.6129H13.4008L11.0194 38.1342V36.4439L13.55 34.8182H15.305ZM19.0187 43.777C18.7171 43.777 18.4586 43.6709 18.2432 43.4588C18.0277 43.2434 17.9217 42.9848 17.925 42.6832C17.9217 42.3849 18.0277 42.1297 18.2432 41.9176C18.4586 41.7055 18.7171 41.5994 19.0187 41.5994C19.3104 41.5994 19.564 41.7055 19.7794 41.9176C19.9981 42.1297 20.1092 42.3849 20.1125 42.6832C20.1092 42.8854 20.0561 43.0694 19.9534 43.2351C19.854 43.4008 19.7214 43.5334 19.5557 43.6328C19.3933 43.7289 19.2143 43.777 19.0187 43.777ZM19.0187 38.7308C18.7171 38.7308 18.4586 38.6248 18.2432 38.4126C18.0277 38.1972 17.9217 37.9387 17.925 37.6371C17.9217 37.3388 18.0277 37.0836 18.2432 36.8714C18.4586 36.656 18.7171 36.5483 19.0187 36.5483C19.3104 36.5483 19.564 36.656 19.7794 36.8714C19.9981 37.0836 20.1092 37.3388 20.1125 37.6371C20.1092 37.8359 20.0561 38.0182 19.9534 38.1839C19.854 38.3497 19.7214 38.4822 19.5557 38.5817C19.3933 38.6811 19.2143 38.7308 19.0187 38.7308ZM21.9507 45V43.6676L25.4855 40.2024C25.8236 39.861 26.1053 39.5578 26.3307 39.2926C26.5561 39.0275 26.7251 38.7706 26.8378 38.522C26.9505 38.2734 27.0068 38.0083 27.0068 37.7266C27.0068 37.4051 26.9339 37.13 26.7881 36.9013C26.6423 36.6693 26.4417 36.4903 26.1865 36.3643C25.9313 36.2384 25.6413 36.1754 25.3165 36.1754C24.9817 36.1754 24.6884 36.245 24.4365 36.3842C24.1846 36.5201 23.9891 36.714 23.8499 36.9659C23.714 37.2178 23.646 37.5178 23.646 37.8658H21.8911C21.8911 37.2195 22.0386 36.6577 22.3335 36.1804C22.6285 35.7031 23.0345 35.3336 23.5516 35.0717C24.0719 34.8099 24.6685 34.679 25.3414 34.679C26.0241 34.679 26.624 34.8066 27.1411 35.0618C27.6581 35.317 28.0592 35.6667 28.3442 36.1108C28.6325 36.5549 28.7767 37.062 28.7767 37.6321C28.7767 38.0133 28.7038 38.3878 28.558 38.7557C28.4121 39.1236 28.1553 39.5312 27.7874 39.9787C27.4228 40.4261 26.9107 40.968 26.2512 41.6044L24.4962 43.3892V43.4588H28.9308V45H21.9507Z" fill="white"/>
</svg>
