<svg width="40" height="56" viewBox="0 0 40 56" fill="none" xmlns="http://www.w3.org/2000/svg">
<rect x="0.5" y="0.5" width="39" height="55" stroke="white"/>
<path d="M12.807 33.1392C12.0911 33.1392 11.4547 33.0166 10.8979 32.7713C10.3444 32.526 9.9069 32.1847 9.5854 31.7472C9.26391 31.3097 9.09322 30.8042 9.07333 30.2308H10.9426C10.9592 30.5059 11.0504 30.7462 11.2161 30.9517C11.3818 31.1539 11.6022 31.3113 11.8773 31.424C12.1524 31.5367 12.4606 31.593 12.802 31.593C13.1666 31.593 13.4898 31.5301 13.7715 31.4041C14.0532 31.2749 14.2736 31.0959 14.4327 30.8672C14.5918 30.6385 14.6697 30.375 14.6664 30.0767C14.6697 29.7685 14.5901 29.4967 14.4277 29.2614C14.2653 29.026 14.03 28.8421 13.7218 28.7095C13.4168 28.5769 13.0489 28.5107 12.6181 28.5107H11.7182V27.0888H12.6181C12.9727 27.0888 13.2826 27.0275 13.5478 26.9048C13.8162 26.7822 14.0267 26.6098 14.1792 26.3878C14.3316 26.1624 14.4062 25.9022 14.4029 25.6072C14.4062 25.3189 14.3416 25.0687 14.209 24.8565C14.0797 24.6411 13.8958 24.4737 13.6571 24.3544C13.4218 24.2351 13.1451 24.1754 12.8269 24.1754C12.5153 24.1754 12.227 24.2318 11.9618 24.3445C11.6967 24.4571 11.4829 24.6179 11.3205 24.8267C11.1581 25.0322 11.0719 25.2775 11.062 25.5625H9.28711C9.30037 24.9924 9.46443 24.492 9.7793 24.0611C10.0975 23.6269 10.5217 23.2888 11.052 23.0469C11.5823 22.8016 12.1773 22.679 12.8368 22.679C13.5163 22.679 14.1062 22.8066 14.6067 23.0618C15.1105 23.3137 15.4999 23.6534 15.775 24.081C16.0501 24.5085 16.1877 24.9808 16.1877 25.4979C16.191 26.0713 16.022 26.5518 15.6806 26.9396C15.3425 27.3274 14.8984 27.581 14.3482 27.7003V27.7798C15.0641 27.8793 15.6126 28.1444 15.9938 28.5753C16.3783 29.0028 16.5688 29.5348 16.5655 30.1712C16.5655 30.7412 16.4031 31.2517 16.0783 31.7024C15.7568 32.1499 15.3127 32.5012 14.7459 32.7564C14.1825 33.0116 13.5362 33.1392 12.807 33.1392ZM19.4006 31.777C19.099 31.777 18.8404 31.6709 18.625 31.4588C18.4096 31.2434 18.3035 30.9848 18.3068 30.6832C18.3035 30.3849 18.4096 30.1297 18.625 29.9176C18.8404 29.7055 19.099 29.5994 19.4006 29.5994C19.6922 29.5994 19.9458 29.7055 20.1612 29.9176C20.38 30.1297 20.491 30.3849 20.4943 30.6832C20.491 30.8854 20.438 31.0694 20.3352 31.2351C20.2358 31.4008 20.1032 31.5334 19.9375 31.6328C19.7751 31.7289 19.5961 31.777 19.4006 31.777ZM19.4006 26.7308C19.099 26.7308 18.8404 26.6248 18.625 26.4126C18.4096 26.1972 18.3035 25.9387 18.3068 25.6371C18.3035 25.3388 18.4096 25.0836 18.625 24.8714C18.8404 24.656 19.099 24.5483 19.4006 24.5483C19.6922 24.5483 19.9458 24.656 20.1612 24.8714C20.38 25.0836 20.491 25.3388 20.4943 25.6371C20.491 25.8359 20.438 26.0182 20.3352 26.1839C20.2358 26.3497 20.1032 26.4822 19.9375 26.5817C19.7751 26.6811 19.5961 26.7308 19.4006 26.7308ZM22.1486 31.1108V29.6442L26.4689 22.8182H27.6919V24.9062H26.9462L24.0378 29.5149V29.5945H30.0684V31.1108H22.1486ZM27.0059 33V30.6634L27.0257 30.0071V22.8182H28.7658V33H27.0059Z" fill="white"/>
</svg>
