<svg width="56" height="40" viewBox="0 0 56 40" fill="none" xmlns="http://www.w3.org/2000/svg">
<rect x="0.5" y="39.5" width="39" height="55" transform="rotate(-90 0.5 39.5)" stroke="white"/>
<path d="M16.9689 23.1108V21.6442L21.2892 14.8182H22.5123V16.9062H21.7665L18.8581 21.5149V21.5945H24.8887V23.1108H16.9689ZM21.8262 25V22.6634L21.8461 22.0071V14.8182H23.5861V25H21.8262ZM27.6056 23.777C27.304 23.777 27.0455 23.6709 26.8301 23.4588C26.6146 23.2434 26.5086 22.9848 26.5119 22.6832C26.5086 22.3849 26.6146 22.1297 26.8301 21.9176C27.0455 21.7055 27.304 21.5994 27.6056 21.5994C27.8973 21.5994 28.1509 21.7055 28.3663 21.9176C28.585 22.1297 28.6961 22.3849 28.6994 22.6832C28.6961 22.8854 28.6431 23.0694 28.5403 23.2351C28.4409 23.4008 28.3083 23.5334 28.1426 23.6328C27.9802 23.7289 27.8012 23.777 27.6056 23.777ZM27.6056 18.7308C27.304 18.7308 27.0455 18.6248 26.8301 18.4126C26.6146 18.1972 26.5086 17.9387 26.5119 17.6371C26.5086 17.3388 26.6146 17.0836 26.8301 16.8714C27.0455 16.656 27.304 16.5483 27.6056 16.5483C27.8973 16.5483 28.1509 16.656 28.3663 16.8714C28.585 17.0836 28.6961 17.3388 28.6994 17.6371C28.6961 17.8359 28.6431 18.0182 28.5403 18.1839C28.4409 18.3497 28.3083 18.4822 28.1426 18.5817C27.9802 18.6811 27.8012 18.7308 27.6056 18.7308ZM34.1918 25.1392C33.4759 25.1392 32.8395 25.0166 32.2827 24.7713C31.7292 24.526 31.2917 24.1847 30.9702 23.7472C30.6487 23.3097 30.478 22.8042 30.4581 22.2308H32.3274C32.344 22.5059 32.4351 22.7462 32.6009 22.9517C32.7666 23.1539 32.987 23.3113 33.2621 23.424C33.5372 23.5367 33.8454 23.593 34.1868 23.593C34.5514 23.593 34.8745 23.5301 35.1562 23.4041C35.438 23.2749 35.6584 23.0959 35.8175 22.8672C35.9766 22.6385 36.0545 22.375 36.0511 22.0767C36.0545 21.7685 35.9749 21.4967 35.8125 21.2614C35.6501 21.026 35.4148 20.8421 35.1065 20.7095C34.8016 20.5769 34.4337 20.5107 34.0028 20.5107H33.103V19.0888H34.0028C34.3575 19.0888 34.6674 19.0275 34.9325 18.9048C35.201 18.7822 35.4115 18.6098 35.5639 18.3878C35.7164 18.1624 35.791 17.9022 35.7876 17.6072C35.791 17.3189 35.7263 17.0687 35.5938 16.8565C35.4645 16.6411 35.2805 16.4737 35.0419 16.3544C34.8066 16.2351 34.5298 16.1754 34.2116 16.1754C33.9001 16.1754 33.6117 16.2318 33.3466 16.3445C33.0814 16.4571 32.8677 16.6179 32.7053 16.8267C32.5429 17.0322 32.4567 17.2775 32.4467 17.5625H30.6719C30.6851 16.9924 30.8492 16.492 31.1641 16.0611C31.4822 15.6269 31.9065 15.2888 32.4368 15.0469C32.9671 14.8016 33.562 14.679 34.2216 14.679C34.901 14.679 35.491 14.8066 35.9915 15.0618C36.4953 15.3137 36.8847 15.6534 37.1598 16.081C37.4349 16.5085 37.5724 16.9808 37.5724 17.4979C37.5758 18.0713 37.4067 18.5518 37.0653 18.9396C36.7273 19.3274 36.2831 19.581 35.733 19.7003V19.7798C36.4489 19.8793 36.9974 20.1444 37.3786 20.5753C37.763 21.0028 37.9536 21.5348 37.9503 22.1712C37.9503 22.7412 37.7879 23.2517 37.4631 23.7024C37.1416 24.1499 36.6974 24.5012 36.1307 24.7564C35.5672 25.0116 34.9209 25.1392 34.1918 25.1392Z" fill="white"/>
</svg>
