<svg width="40" height="70" viewBox="0 0 40 70" fill="none" xmlns="http://www.w3.org/2000/svg">
<rect x="0.5" y="0.5" width="39" height="69" stroke="white"/>
<path d="M9.46795 29.679C9.95517 29.6823 10.4291 29.7685 10.8898 29.9375C11.3538 30.1032 11.7715 30.375 12.1427 30.7528C12.5139 31.1274 12.8089 31.6295 13.0276 32.2592C13.2464 32.889 13.3557 33.6679 13.3557 34.5959C13.3591 35.4709 13.2662 36.2531 13.0773 36.9425C12.8917 37.6286 12.6249 38.2086 12.2769 38.6825C11.9289 39.1565 11.5096 39.5178 11.0191 39.7663C10.5286 40.0149 9.97671 40.1392 9.36355 40.1392C8.72056 40.1392 8.15048 40.0133 7.65332 39.7614C7.15948 39.5095 6.76009 39.1648 6.45517 38.7273C6.15024 38.2898 5.96298 37.7893 5.89338 37.2259H7.70801C7.80081 37.6302 7.98973 37.9517 8.27477 38.1903C8.56312 38.4257 8.92605 38.5433 9.36355 38.5433C10.0695 38.5433 10.6131 38.2367 10.9942 37.6236C11.3754 37.0104 11.566 36.1586 11.566 35.0682H11.4964C11.334 35.3598 11.1235 35.6117 10.865 35.8239C10.6064 36.0327 10.3131 36.1934 9.985 36.3061C9.66019 36.4188 9.31549 36.4751 8.95091 36.4751C8.35431 36.4751 7.81738 36.3326 7.34011 36.0476C6.86615 35.7625 6.48997 35.3714 6.21156 34.8743C5.93646 34.3771 5.79726 33.8087 5.79395 33.169C5.79395 32.5062 5.94641 31.9112 6.25133 31.3842C6.55957 30.8539 6.98878 30.4363 7.53897 30.1314C8.08916 29.8232 8.73216 29.6723 9.46795 29.679ZM9.47292 31.1705C9.11497 31.1705 8.79181 31.2583 8.50346 31.4339C8.21842 31.6063 7.99305 31.8416 7.82733 32.1399C7.66492 32.4349 7.58372 32.7647 7.58372 33.1293C7.58703 33.4905 7.66824 33.8187 7.82733 34.1136C7.98973 34.4086 8.21014 34.6423 8.48855 34.8146C8.77027 34.987 9.09177 35.0732 9.45304 35.0732C9.7215 35.0732 9.97174 35.0218 10.2037 34.919C10.4358 34.8163 10.6379 34.6738 10.8103 34.4915C10.9859 34.3059 11.1218 34.0954 11.218 33.8601C11.3174 33.6248 11.3654 33.3762 11.3621 33.1143C11.3621 32.7663 11.2793 32.4448 11.1135 32.1499C10.9511 31.8549 10.7274 31.6179 10.4424 31.4389C10.1607 31.2599 9.83751 31.1705 9.47292 31.1705ZM16.1398 38.777C15.8382 38.777 15.5797 38.6709 15.3643 38.4588C15.1488 38.2434 15.0428 37.9848 15.0461 37.6832C15.0428 37.3849 15.1488 37.1297 15.3643 36.9176C15.5797 36.7055 15.8382 36.5994 16.1398 36.5994C16.4315 36.5994 16.685 36.7055 16.9005 36.9176C17.1192 37.1297 17.2303 37.3849 17.2336 37.6832C17.2303 37.8854 17.1772 38.0694 17.0745 38.2351C16.9751 38.4008 16.8425 38.5334 16.6768 38.6328C16.5144 38.7289 16.3354 38.777 16.1398 38.777ZM16.1398 33.7308C15.8382 33.7308 15.5797 33.6248 15.3643 33.4126C15.1488 33.1972 15.0428 32.9387 15.0461 32.6371C15.0428 32.3388 15.1488 32.0836 15.3643 31.8714C15.5797 31.656 15.8382 31.5483 16.1398 31.5483C16.4315 31.5483 16.685 31.656 16.9005 31.8714C17.1192 32.0836 17.2303 32.3388 17.2336 32.6371C17.2303 32.8359 17.1772 33.0182 17.0745 33.1839C16.9751 33.3497 16.8425 33.4822 16.6768 33.5817C16.5144 33.6811 16.3354 33.7308 16.1398 33.7308ZM23.2132 29.8182V40H21.3687V31.6129H21.309L18.9276 33.1342V31.4439L21.4582 29.8182H23.2132ZM29.5271 40.1392C29.0399 40.1359 28.5642 40.0514 28.1002 39.8857C27.6362 39.7166 27.2186 39.4432 26.8474 39.0653C26.4762 38.6842 26.1812 38.1787 25.9624 37.549C25.7437 36.916 25.636 36.1321 25.6393 35.1974C25.6393 34.3258 25.7321 33.5485 25.9177 32.8658C26.1033 32.183 26.3701 31.6063 26.7181 31.1357C27.0661 30.6617 27.4854 30.3004 27.9759 30.0518C28.4698 29.8033 29.0216 29.679 29.6315 29.679C30.2712 29.679 30.8379 29.8049 31.3318 30.0568C31.8289 30.3087 32.23 30.6534 32.5349 31.0909C32.8398 31.5251 33.0287 32.0156 33.1017 32.5625H31.287C31.1942 32.1714 31.0036 31.8598 30.7153 31.6278C30.4303 31.3925 30.069 31.2749 29.6315 31.2749C28.9255 31.2749 28.382 31.5814 28.0008 32.1946C27.623 32.8078 27.4324 33.6496 27.4291 34.7202H27.4987C27.6611 34.4285 27.8715 34.1783 28.1301 33.9695C28.3886 33.7607 28.6802 33.5999 29.0051 33.4872C29.3332 33.3712 29.6795 33.3132 30.0441 33.3132C30.6407 33.3132 31.176 33.4557 31.6499 33.7408C32.1272 34.0258 32.5051 34.4186 32.7835 34.919C33.0619 35.4162 33.1994 35.9863 33.1961 36.6293C33.1994 37.2988 33.047 37.9003 32.7387 38.4339C32.4305 38.9643 32.0013 39.3819 31.4511 39.6868C30.9009 39.9917 30.2596 40.1425 29.5271 40.1392ZM29.5171 38.6477C29.8784 38.6477 30.2016 38.5599 30.4866 38.3842C30.7716 38.2086 30.997 37.9716 31.1627 37.6733C31.3285 37.375 31.4097 37.0402 31.4063 36.669C31.4097 36.3045 31.3301 35.9747 31.1677 35.6797C31.0086 35.3847 30.7882 35.151 30.5065 34.9787C30.2248 34.8063 29.9033 34.7202 29.542 34.7202C29.2735 34.7202 29.0233 34.7715 28.7913 34.8743C28.5593 34.977 28.3571 35.1196 28.1847 35.3018C28.0124 35.4808 27.8765 35.6896 27.7771 35.9283C27.681 36.1636 27.6312 36.4155 27.6279 36.6839C27.6312 37.0386 27.7141 37.3651 27.8765 37.6634C28.0389 37.9616 28.2626 38.2003 28.5477 38.3793C28.8327 38.5582 29.1559 38.6477 29.5171 38.6477Z" fill="white"/>
</svg>
