<svg width="24" height="24" viewBox="0 0 24 24" fill="none" xmlns="http://www.w3.org/2000/svg">
<mask id="path-1-inside-1_381_2841" fill="white">
<path d="M20.999 17.7861C20.9989 18.6384 20.6602 19.4559 20.0576 20.0586C19.4548 20.6614 18.6367 21 17.7842 21H8.78418C7.93183 20.9999 7.11445 20.6613 6.51172 20.0586C5.90902 19.4559 5.57042 18.6385 5.57031 17.7861V13.9287C5.57031 13.5738 5.858 13.2861 6.21289 13.2861C6.56778 13.2861 6.85547 13.5738 6.85547 13.9287V17.7861C6.85556 18.2054 7.35508 18.3061 7.65156 18.0096L11.7393 13.9219C12.1491 13.5123 12.7048 13.2823 13.2842 13.2822C13.8638 13.2822 14.4202 13.512 14.8301 13.9219L18.918 18.0098C19.2143 18.3061 19.7132 18.2052 19.7129 17.7861V12.6431C19.7129 12.2879 20.0008 12 20.356 12C20.7111 12 20.999 12.2879 20.999 12.6431V17.7861ZM13.2842 14.5674C13.1662 14.5674 13.0494 14.5907 12.9404 14.6357C12.8313 14.6809 12.732 14.7476 12.6484 14.8311L8.56037 18.9183C8.26334 19.2152 8.36415 19.7138 8.78418 19.7139H17.7842C18.203 19.7139 18.3043 19.2145 18.0082 18.9183L13.9209 14.8311C13.8373 14.7475 13.7381 14.681 13.6289 14.6357C13.5197 14.5905 13.4024 14.5674 13.2842 14.5674ZM10.7139 3C11.3957 3 12.05 3.27086 12.5322 3.75293C13.0144 4.23513 13.2861 4.88935 13.2861 5.57129V9.42871C13.2861 10.1106 13.0144 10.7649 12.5322 11.2471C12.05 11.7291 11.3957 12 10.7139 12H5.57129C4.88935 12 4.23513 11.7293 3.75293 11.2471C3.27073 10.7649 3.00004 10.1106 3 9.42871V5.57129C3.00004 4.88935 3.27073 4.23513 3.75293 3.75293C4.23513 3.27073 4.88935 3.00004 5.57129 3H10.7139ZM16.4961 8.78613C16.8378 8.78613 17.1656 8.92149 17.4072 9.16309C17.6488 9.40468 17.7842 9.73259 17.7842 10.0742C17.7841 10.4158 17.6488 10.7438 17.4072 10.9854C17.1656 11.2269 16.8377 11.3623 16.4961 11.3623C16.1545 11.3623 15.8265 11.2269 15.585 10.9854C15.3434 10.7438 15.2081 10.4158 15.208 10.0742C15.208 9.7326 15.3434 9.40467 15.585 9.16309C15.8266 8.92149 16.1544 8.78614 16.4961 8.78613ZM17.7842 5.57129C18.6367 5.57129 19.4548 5.9099 20.0576 6.5127C20.6603 7.11548 20.999 7.9337 20.999 8.78613V9.64307C20.999 9.99822 20.7111 10.2861 20.356 10.2861C20.0008 10.2861 19.7129 9.99822 19.7129 9.64307V8.78613C19.7129 8.27469 19.5101 7.78354 19.1484 7.42188C18.7868 7.0602 18.2957 6.85742 17.7842 6.85742H15.2134C14.8582 6.85742 14.5703 6.56951 14.5703 6.21436C14.5703 5.8592 14.8582 5.57129 15.2134 5.57129H17.7842ZM6.21387 8.14258C6.04355 8.14269 5.88022 8.21064 5.75977 8.33105C5.63921 8.45161 5.57129 8.61564 5.57129 8.78613C5.5714 8.95648 5.63931 9.11977 5.75977 9.24023C5.88023 9.36069 6.04352 9.4286 6.21387 9.42871H10.0713C10.2418 9.42871 10.4058 9.36079 10.5264 9.24023C10.6467 9.11979 10.7138 8.95638 10.7139 8.78613C10.7139 8.61571 10.6468 8.4516 10.5264 8.33105C10.4058 8.2105 10.2418 8.14258 10.0713 8.14258H6.21387ZM6.21387 5.57129C6.04352 5.5714 5.88023 5.63931 5.75977 5.75977C5.63931 5.88023 5.5714 6.04352 5.57129 6.21387C5.57129 6.38436 5.63921 6.54839 5.75977 6.66895C5.88022 6.78936 6.04355 6.85731 6.21387 6.85742H10.0713C10.2418 6.85742 10.4058 6.7895 10.5264 6.66895C10.6468 6.5484 10.7139 6.38429 10.7139 6.21387C10.7138 6.04362 10.6467 5.88021 10.5264 5.75977C10.4058 5.63921 10.2418 5.57129 10.0713 5.57129H6.21387Z"/>
</mask>
<path d="M20.999 17.7861C20.9989 18.6384 20.6602 19.4559 20.0576 20.0586C19.4548 20.6614 18.6367 21 17.7842 21H8.78418C7.93183 20.9999 7.11445 20.6613 6.51172 20.0586C5.90902 19.4559 5.57042 18.6385 5.57031 17.7861V13.9287C5.57031 13.5738 5.858 13.2861 6.21289 13.2861C6.56778 13.2861 6.85547 13.5738 6.85547 13.9287V17.7861C6.85556 18.2054 7.35508 18.3061 7.65156 18.0096L11.7393 13.9219C12.1491 13.5123 12.7048 13.2823 13.2842 13.2822C13.8638 13.2822 14.4202 13.512 14.8301 13.9219L18.918 18.0098C19.2143 18.3061 19.7132 18.2052 19.7129 17.7861V12.6431C19.7129 12.2879 20.0008 12 20.356 12C20.7111 12 20.999 12.2879 20.999 12.6431V17.7861ZM13.2842 14.5674C13.1662 14.5674 13.0494 14.5907 12.9404 14.6357C12.8313 14.6809 12.732 14.7476 12.6484 14.8311L8.56037 18.9183C8.26334 19.2152 8.36415 19.7138 8.78418 19.7139H17.7842C18.203 19.7139 18.3043 19.2145 18.0082 18.9183L13.9209 14.8311C13.8373 14.7475 13.7381 14.681 13.6289 14.6357C13.5197 14.5905 13.4024 14.5674 13.2842 14.5674ZM10.7139 3C11.3957 3 12.05 3.27086 12.5322 3.75293C13.0144 4.23513 13.2861 4.88935 13.2861 5.57129V9.42871C13.2861 10.1106 13.0144 10.7649 12.5322 11.2471C12.05 11.7291 11.3957 12 10.7139 12H5.57129C4.88935 12 4.23513 11.7293 3.75293 11.2471C3.27073 10.7649 3.00004 10.1106 3 9.42871V5.57129C3.00004 4.88935 3.27073 4.23513 3.75293 3.75293C4.23513 3.27073 4.88935 3.00004 5.57129 3H10.7139ZM16.4961 8.78613C16.8378 8.78613 17.1656 8.92149 17.4072 9.16309C17.6488 9.40468 17.7842 9.73259 17.7842 10.0742C17.7841 10.4158 17.6488 10.7438 17.4072 10.9854C17.1656 11.2269 16.8377 11.3623 16.4961 11.3623C16.1545 11.3623 15.8265 11.2269 15.585 10.9854C15.3434 10.7438 15.2081 10.4158 15.208 10.0742C15.208 9.7326 15.3434 9.40467 15.585 9.16309C15.8266 8.92149 16.1544 8.78614 16.4961 8.78613ZM17.7842 5.57129C18.6367 5.57129 19.4548 5.9099 20.0576 6.5127C20.6603 7.11548 20.999 7.9337 20.999 8.78613V9.64307C20.999 9.99822 20.7111 10.2861 20.356 10.2861C20.0008 10.2861 19.7129 9.99822 19.7129 9.64307V8.78613C19.7129 8.27469 19.5101 7.78354 19.1484 7.42188C18.7868 7.0602 18.2957 6.85742 17.7842 6.85742H15.2134C14.8582 6.85742 14.5703 6.56951 14.5703 6.21436C14.5703 5.8592 14.8582 5.57129 15.2134 5.57129H17.7842ZM6.21387 8.14258C6.04355 8.14269 5.88022 8.21064 5.75977 8.33105C5.63921 8.45161 5.57129 8.61564 5.57129 8.78613C5.5714 8.95648 5.63931 9.11977 5.75977 9.24023C5.88023 9.36069 6.04352 9.4286 6.21387 9.42871H10.0713C10.2418 9.42871 10.4058 9.36079 10.5264 9.24023C10.6467 9.11979 10.7138 8.95638 10.7139 8.78613C10.7139 8.61571 10.6468 8.4516 10.5264 8.33105C10.4058 8.2105 10.2418 8.14258 10.0713 8.14258H6.21387ZM6.21387 5.57129C6.04352 5.5714 5.88023 5.63931 5.75977 5.75977C5.63931 5.88023 5.5714 6.04352 5.57129 6.21387C5.57129 6.38436 5.63921 6.54839 5.75977 6.66895C5.88022 6.78936 6.04355 6.85731 6.21387 6.85742H10.0713C10.2418 6.85742 10.4058 6.7895 10.5264 6.66895C10.6468 6.5484 10.7139 6.38429 10.7139 6.21387C10.7138 6.04362 10.6467 5.88021 10.5264 5.75977C10.4058 5.63921 10.2418 5.57129 10.0713 5.57129H6.21387Z" fill="black"/>
<path d="M20.999 17.7861L21.8562 17.7862V17.7861H20.999ZM20.0576 20.0586L20.6637 20.6647L20.6638 20.6646L20.0576 20.0586ZM8.78418 21L8.78412 21.8571H8.78418V21ZM6.51172 20.0586L5.90563 20.6647L5.90565 20.6647L6.51172 20.0586ZM5.57031 17.7861H4.71317L4.71317 17.7862L5.57031 17.7861ZM11.7393 13.9219L11.1333 13.3156L11.1332 13.3158L11.7393 13.9219ZM13.2842 13.2822V12.4251H13.2841L13.2842 13.2822ZM14.8301 13.9219L15.4362 13.3158L15.4361 13.3157L14.8301 13.9219ZM13.2842 14.5674V13.7102H13.284L13.2842 14.5674ZM12.9404 14.6357L12.6129 13.8437L12.6124 13.8439L12.9404 14.6357ZM12.6484 14.8311L12.0426 14.2247L12.0424 14.2249L12.6484 14.8311ZM13.9209 14.8311L13.3148 15.4371L13.3148 15.4371L13.9209 14.8311ZM13.6289 14.6357L13.9569 13.8439L13.9569 13.8438L13.6289 14.6357ZM12.5322 3.75293L13.1383 3.14684L13.1382 3.14675L12.5322 3.75293ZM13.2861 5.57129H14.1433V5.57124L13.2861 5.57129ZM13.2861 9.42871L14.1433 9.42876V9.42871H13.2861ZM12.5322 11.2471L13.1382 11.8533L13.1383 11.8532L12.5322 11.2471ZM5.57129 12L5.57124 12.8571H5.57129V12ZM3.75293 11.2471L4.35902 10.641L3.75293 11.2471ZM3 9.42871H2.14286V9.42876L3 9.42871ZM3 5.57129L2.14286 5.57124V5.57129H3ZM3.75293 3.75293L3.14684 3.14684L3.14684 3.14684L3.75293 3.75293ZM5.57129 3V2.14286H5.57124L5.57129 3ZM16.4961 8.78613V7.92899H16.4961L16.4961 8.78613ZM17.4072 9.16309L18.0134 8.55706L18.0133 8.55699L17.4072 9.16309ZM17.7842 10.0742L18.6413 10.0744V10.0742H17.7842ZM17.4072 10.9854L18.0132 11.5915L18.0133 11.5914L17.4072 10.9854ZM16.4961 11.3623L16.4961 12.2194H16.4961V11.3623ZM15.585 10.9854L14.9789 11.5914L14.9789 11.5915L15.585 10.9854ZM15.208 10.0742H14.3509V10.0744L15.208 10.0742ZM15.585 9.16309L14.9789 8.55699L14.9788 8.55708L15.585 9.16309ZM20.0576 6.5127L20.6637 5.90663L20.6637 5.9066L20.0576 6.5127ZM19.1484 7.42188L19.7546 6.81583L19.7545 6.81578L19.1484 7.42188ZM6.21387 8.14258V7.28544H6.21332L6.21387 8.14258ZM5.75977 8.33105L5.15377 7.72487L5.15367 7.72496L5.75977 8.33105ZM5.57129 8.78613H4.71415L4.71415 8.78669L5.57129 8.78613ZM5.75977 9.24023L5.15367 9.84633L5.15368 9.84633L5.75977 9.24023ZM6.21387 9.42871L6.21332 10.2859H6.21387V9.42871ZM10.5264 9.24023L11.1325 9.84633L11.1327 9.84604L10.5264 9.24023ZM10.7139 8.78613L11.571 8.78669V8.78613H10.7139ZM10.5264 8.33105L11.1327 7.72516L11.1325 7.72496L10.5264 8.33105ZM6.21387 5.57129V4.71415L6.21332 4.71415L6.21387 5.57129ZM5.75977 5.75977L5.15368 5.15367L5.15367 5.15367L5.75977 5.75977ZM5.57129 6.21387L4.71415 6.21331V6.21387H5.57129ZM5.75977 6.66895L5.15367 7.27504L5.15377 7.27513L5.75977 6.66895ZM6.21387 6.85742L6.21332 7.71456H6.21387V6.85742ZM10.5264 6.66895L11.1325 7.27504L11.1327 7.27484L10.5264 6.66895ZM10.7139 6.21387H11.571L11.571 6.21331L10.7139 6.21387ZM10.5264 5.75977L11.1327 5.15396L11.1325 5.15367L10.5264 5.75977ZM18.0082 18.9183L18.6143 18.3122L18.0082 18.9183ZM8.56037 18.9183L7.95434 18.3121L8.56037 18.9183ZM20.999 17.7861L20.1419 17.786C20.1418 18.411 19.8934 19.0106 19.4515 19.4525L20.0576 20.0586L20.6638 20.6646C21.427 19.9013 21.856 18.8658 21.8562 17.7862L20.999 17.7861ZM20.0576 20.0586L19.4515 19.4525C19.0096 19.8944 18.4095 20.1429 17.7842 20.1429V21V21.8571C18.8638 21.8571 19.9 21.4284 20.6637 20.6647L20.0576 20.0586ZM17.7842 21V20.1429H8.78418V21V21.8571H17.7842V21ZM8.78418 21L8.78424 20.1429C8.15924 20.1428 7.55982 19.8945 7.11779 19.4525L6.51172 20.0586L5.90565 20.6647C6.66907 21.4281 7.70442 21.8571 8.78412 21.8571L8.78418 21ZM6.51172 20.0586L7.11781 19.4525C6.67586 19.0105 6.42754 18.4111 6.42746 17.786L5.57031 17.7861L4.71317 17.7862C4.71331 18.8658 5.14219 19.9012 5.90563 20.6647L6.51172 20.0586ZM5.57031 17.7861H6.42746V13.9287H5.57031H4.71317V17.7861H5.57031ZM6.85547 13.9287H5.99833V17.7861H6.85547H7.71261V13.9287H6.85547ZM7.65156 18.0096L8.25765 18.6157L12.3453 14.528L11.7393 13.9219L11.1332 13.3158L7.04546 17.4035L7.65156 18.0096ZM11.7393 13.9219L12.3452 14.5281C12.5942 14.2792 12.9319 14.1394 13.2843 14.1394L13.2842 13.2822L13.2841 12.4251C12.4776 12.4252 11.7039 12.7453 11.1333 13.3156L11.7393 13.9219ZM13.2842 13.2822V14.1394C13.6371 14.1394 13.9753 14.2793 14.224 14.528L14.8301 13.9219L15.4361 13.3157C14.8651 12.7448 14.0905 12.4251 13.2842 12.4251V13.2822ZM14.8301 13.9219L14.224 14.528L18.3119 18.6159L18.918 18.0098L19.5241 17.4037L15.4362 13.3158L14.8301 13.9219ZM19.7129 17.7861H20.57V12.6431H19.7129H18.8557V17.7861H19.7129ZM20.999 12.6431H20.1419V17.7861H20.999H21.8562V12.6431H20.999ZM13.2842 14.5674L13.284 13.7102C13.0535 13.7103 12.8255 13.7557 12.6129 13.8437L12.9404 14.6357L13.268 15.4278C13.2734 15.4256 13.279 15.4245 13.2844 15.4245L13.2842 14.5674ZM12.9404 14.6357L12.6124 13.8439C12.3984 13.9325 12.2048 14.0626 12.0426 14.2247L12.6484 14.8311L13.2543 15.4374C13.2591 15.4326 13.2643 15.4293 13.2685 15.4276L12.9404 14.6357ZM12.6484 14.8311L12.0424 14.2249L7.95434 18.3121L8.56037 18.9183L9.1664 19.5244L13.2545 15.4372L12.6484 14.8311ZM8.78418 19.7139V20.571H17.7842V19.7139V18.8567H8.78418V19.7139ZM18.0082 18.9183L18.6143 18.3122L14.527 14.225L13.9209 14.8311L13.3148 15.4371L17.4021 19.5244L18.0082 18.9183ZM13.9209 14.8311L14.527 14.225C14.3644 14.0624 14.1709 13.9325 13.9569 13.8439L13.6289 14.6357L13.3009 15.4276C13.3053 15.4295 13.3102 15.4326 13.3148 15.4371L13.9209 14.8311ZM13.6289 14.6357L13.9569 13.8438C13.7428 13.7552 13.5139 13.7102 13.2842 13.7102V14.5674V15.4245C13.2908 15.4245 13.2966 15.4259 13.3009 15.4276L13.6289 14.6357ZM10.7139 3V3.85714C11.1685 3.85714 11.6048 4.0378 11.9262 4.35911L12.5322 3.75293L13.1382 3.14675C12.4952 2.50393 11.6229 2.14286 10.7139 2.14286V3ZM12.5322 3.75293L11.9261 4.35902C12.248 4.68089 12.429 5.11728 12.429 5.57134L13.2861 5.57129L14.1433 5.57124C14.1432 4.66143 13.7809 3.78938 13.1383 3.14684L12.5322 3.75293ZM13.2861 5.57129H12.429V9.42871H13.2861H14.1433V5.57129H13.2861ZM13.2861 9.42871L12.429 9.42866C12.429 9.88272 12.248 10.3191 11.9261 10.641L12.5322 11.2471L13.1383 11.8532C13.7809 11.2106 14.1432 10.3386 14.1433 9.42876L13.2861 9.42871ZM12.5322 11.2471L11.9262 10.6409C11.6048 10.9622 11.1685 11.1429 10.7139 11.1429V12V12.8571C11.6229 12.8571 12.4952 12.4961 13.1382 11.8533L12.5322 11.2471ZM10.7139 12V11.1429H5.57129V12V12.8571H10.7139V12ZM5.57129 12L5.57133 11.1429C5.11644 11.1428 4.6803 10.9623 4.35902 10.641L3.75293 11.2471L3.14684 11.8532C3.78997 12.4963 4.66227 12.8571 5.57124 12.8571L5.57129 12ZM3.75293 11.2471L4.35902 10.641C4.03774 10.3197 3.85717 9.88356 3.85714 9.42866L3 9.42871L2.14286 9.42876C2.14291 10.3377 2.50371 11.21 3.14684 11.8532L3.75293 11.2471ZM3 9.42871H3.85714V5.57129H3H2.14286V9.42871H3ZM3 5.57129L3.85714 5.57134C3.85717 5.11644 4.03774 4.6803 4.35902 4.35902L3.75293 3.75293L3.14684 3.14684C2.50371 3.78997 2.14291 4.66227 2.14286 5.57124L3 5.57129ZM3.75293 3.75293L4.35902 4.35902C4.6803 4.03774 5.11644 3.85717 5.57133 3.85714L5.57129 3L5.57124 2.14286C4.66227 2.1429 3.78997 2.50371 3.14684 3.14684L3.75293 3.75293ZM5.57129 3V3.85714H10.7139V3V2.14286H5.57129V3ZM16.4961 8.78613V9.64328C16.6112 9.64328 16.7208 9.68887 16.8011 9.76918L17.4072 9.16309L18.0133 8.55699C17.6104 8.15411 17.0643 7.92899 16.4961 7.92899V8.78613ZM17.4072 9.16309L16.8011 9.76911C16.8814 9.84949 16.927 9.95922 16.927 10.0742H17.7842H18.6413C18.6413 9.50596 18.4161 8.95986 18.0134 8.55706L17.4072 9.16309ZM17.7842 10.0742L16.927 10.0741C16.927 10.1893 16.8813 10.2991 16.8011 10.3793L17.4072 10.9854L18.0133 11.5914C18.4162 11.1885 18.6412 10.6423 18.6413 10.0744L17.7842 10.0742ZM17.4072 10.9854L16.8012 10.3792C16.7208 10.4596 16.6111 10.5052 16.4961 10.5052V11.3623V12.2194C17.0644 12.2194 17.6105 11.9942 18.0132 11.5915L17.4072 10.9854ZM16.4961 11.3623L16.4961 10.5052C16.3811 10.5052 16.2714 10.4595 16.191 10.3792L15.585 10.9854L14.9789 11.5915C15.3817 11.9942 15.9279 12.2194 16.4961 12.2194L16.4961 11.3623ZM15.585 10.9854L16.1911 10.3793C16.1109 10.2991 16.0652 10.1893 16.0652 10.0741L15.208 10.0742L14.3509 10.0744C14.351 10.6423 14.576 11.1885 14.9789 11.5914L15.585 10.9854ZM15.208 10.0742H16.0652C16.0652 9.95925 16.1108 9.84949 16.1911 9.7691L15.585 9.16309L14.9788 8.55708C14.5761 8.95986 14.3509 9.50596 14.3509 10.0742H15.208ZM15.585 9.16309L16.1911 9.76918C16.2713 9.68888 16.381 9.64328 16.4961 9.64328L16.4961 8.78613L16.4961 7.92899C15.9279 7.929 15.3818 8.1541 14.9789 8.55699L15.585 9.16309ZM17.7842 5.57129V6.42843C18.4095 6.42843 19.0096 6.67687 19.4515 7.11879L20.0576 6.5127L20.6637 5.9066C19.9 5.14293 18.8638 4.71415 17.7842 4.71415V5.57129ZM20.0576 6.5127L19.4515 7.11876C19.8934 7.5607 20.1419 8.16086 20.1419 8.78613H20.999H21.8562C21.8562 7.70653 21.4273 6.67027 20.6637 5.90663L20.0576 6.5127ZM20.999 8.78613H20.1419V9.64307H20.999H21.8562V8.78613H20.999ZM19.7129 9.64307H20.57V8.78613H19.7129H18.8557V9.64307H19.7129ZM19.7129 8.78613H20.57C20.57 8.04805 20.2774 7.33871 19.7546 6.81583L19.1484 7.42188L18.5423 8.02792C18.7427 8.22838 18.8557 8.50133 18.8557 8.78613H19.7129ZM19.1484 7.42188L19.7545 6.81578C19.2316 6.29285 18.5223 6.00028 17.7842 6.00028V6.85742V7.71456C18.0691 7.71456 18.3419 7.82755 18.5423 8.02797L19.1484 7.42188ZM17.7842 6.85742V6.00028H15.2134V6.85742V7.71456H17.7842V6.85742ZM15.2134 5.57129V6.42843H17.7842V5.57129V4.71415H15.2134V5.57129ZM6.21387 8.14258L6.21332 7.28544C5.81506 7.28569 5.43422 7.44451 5.15377 7.72487L5.75977 8.33105L6.36576 8.93724C6.32622 8.97677 6.27205 8.99968 6.21442 8.99972L6.21387 8.14258ZM5.75977 8.33105L5.15367 7.72496C4.87231 8.00632 4.71415 8.38839 4.71415 8.78613H5.57129H6.42843C6.42843 8.84289 6.4061 8.8969 6.36586 8.93715L5.75977 8.33105ZM5.57129 8.78613L4.71415 8.78669C4.71441 9.18488 4.8731 9.56576 5.15367 9.84633L5.75977 9.24023L6.36586 8.63414C6.40551 8.67379 6.42839 8.72808 6.42843 8.78558L5.57129 8.78613ZM5.75977 9.24023L5.15368 9.84633C5.43424 10.1269 5.81512 10.2856 6.21332 10.2859L6.21387 9.42871L6.21442 8.57157C6.27192 8.57161 6.32621 8.5945 6.36585 8.63414L5.75977 9.24023ZM6.21387 9.42871V10.2859H10.0713V9.42871V8.57157H6.21387V9.42871ZM10.0713 9.42871V10.2859C10.469 10.2859 10.8511 10.1277 11.1325 9.84633L10.5264 9.24023L9.92028 8.63414C9.96052 8.5939 10.0145 8.57157 10.0713 8.57157V9.42871ZM10.5264 9.24023L11.1327 9.84604C11.4151 9.56346 11.5708 9.18173 11.571 8.78669L10.7139 8.78613L9.85672 8.78557C9.85676 8.73103 9.87833 8.67613 9.91999 8.63443L10.5264 9.24023ZM10.7139 8.78613H11.571C11.571 8.3916 11.4159 8.00863 11.1327 7.72516L10.5264 8.33105L9.92008 8.93695C9.87773 8.89457 9.85672 8.83981 9.85672 8.78613H10.7139ZM10.5264 8.33105L11.1325 7.72496C10.8511 7.4436 10.469 7.28544 10.0713 7.28544V8.14258V8.99972C10.0145 8.99972 9.96052 8.97739 9.92028 8.93715L10.5264 8.33105ZM10.0713 8.14258V7.28544H6.21387V8.14258V8.99972H10.0713V8.14258ZM6.21387 5.57129L6.21332 4.71415C5.81512 4.7144 5.43424 4.87311 5.15368 5.15367L5.75977 5.75977L6.36586 6.36586C6.32621 6.4055 6.27192 6.42839 6.21442 6.42843L6.21387 5.57129ZM5.75977 5.75977L5.15367 5.15367C4.8731 5.43424 4.71441 5.81512 4.71415 6.21331L5.57129 6.21387L6.42843 6.21442C6.42839 6.27192 6.40551 6.32621 6.36586 6.36586L5.75977 5.75977ZM5.57129 6.21387H4.71415C4.71415 6.61161 4.87231 6.99368 5.15367 7.27504L5.75977 6.66895L6.36586 6.06285C6.4061 6.1031 6.42843 6.15711 6.42843 6.21387H5.57129ZM5.75977 6.66895L5.15377 7.27513C5.43422 7.55549 5.81506 7.71431 6.21332 7.71456L6.21387 6.85742L6.21442 6.00028C6.27205 6.00032 6.32622 6.02323 6.36576 6.06276L5.75977 6.66895ZM6.21387 6.85742V7.71456H10.0713V6.85742V6.00028H6.21387V6.85742ZM10.0713 6.85742V7.71456C10.469 7.71456 10.8511 7.5564 11.1325 7.27504L10.5264 6.66895L9.92028 6.06285C9.96052 6.02261 10.0145 6.00028 10.0713 6.00028V6.85742ZM10.5264 6.66895L11.1327 7.27484C11.4159 6.99137 11.571 6.6084 11.571 6.21387H10.7139H9.85672C9.85672 6.16019 9.87773 6.10543 9.92008 6.06305L10.5264 6.66895ZM10.7139 6.21387L11.571 6.21331C11.5708 5.81827 11.4151 5.43654 11.1327 5.15396L10.5264 5.75977L9.91999 6.36557C9.87833 6.32387 9.85676 6.26897 9.85672 6.21442L10.7139 6.21387ZM10.5264 5.75977L11.1325 5.15367C10.8511 4.87231 10.469 4.71415 10.0713 4.71415V5.57129V6.42843C10.0145 6.42843 9.96052 6.4061 9.92028 6.36586L10.5264 5.75977ZM10.0713 5.57129V4.71415H6.21387V5.57129V6.42843H10.0713V5.57129ZM15.2134 6.85742V6.00028C15.3316 6.00028 15.4275 6.09612 15.4275 6.21436H14.5703H13.7132C13.7132 7.0429 14.3848 7.71456 15.2134 7.71456V6.85742ZM17.7842 19.7139V20.571C18.4102 20.571 18.8651 20.1555 18.9956 19.636C19.1135 19.1665 18.9641 18.6621 18.6143 18.3122L18.0082 18.9183L17.4021 19.5244C17.3483 19.4707 17.2964 19.364 17.333 19.2183C17.3526 19.1403 17.4018 19.0428 17.4993 18.9641C17.6015 18.8817 17.7112 18.8567 17.7842 18.8567V19.7139ZM20.999 9.64307H20.1419C20.1419 9.52484 20.2377 9.42899 20.356 9.42899V10.2861V11.1433C21.1845 11.1433 21.8562 10.4716 21.8562 9.64307H20.999ZM20.356 12V12.8571C20.2377 12.8571 20.1419 12.7613 20.1419 12.6431H20.999H21.8562C21.8562 11.8145 21.1845 11.1429 20.356 11.1429V12ZM19.7129 12.6431H20.57C20.57 12.7613 20.4742 12.8571 20.356 12.8571V12V11.1429C19.5274 11.1429 18.8557 11.8145 18.8557 12.6431H19.7129ZM18.918 18.0098L18.3119 18.6159C18.6613 18.9652 19.1653 19.1155 19.6352 18.9976C20.1558 18.867 20.5705 18.4112 20.57 17.7855L19.7129 17.7861L18.8557 17.7868C18.8557 17.7141 18.8804 17.6044 18.963 17.5018C19.0418 17.4039 19.1398 17.3545 19.2181 17.3348C19.3646 17.2981 19.471 17.3506 19.5241 17.4037L18.918 18.0098ZM8.56037 18.9183L7.95434 18.3121C7.60524 18.6611 7.45388 19.1651 7.57199 19.636C7.70289 20.1578 8.15965 20.5709 8.78408 20.571L8.78418 19.7139L8.78428 18.8567C8.85602 18.8567 8.96522 18.8811 9.06752 18.9634C9.16536 19.0422 9.215 19.1401 9.23476 19.2189C9.27171 19.3662 9.21847 19.4724 9.1664 19.5244L8.56037 18.9183ZM14.5703 6.21436H15.4275C15.4275 6.33259 15.3316 6.42843 15.2134 6.42843V5.57129V4.71415C14.3848 4.71415 13.7132 5.38581 13.7132 6.21436H14.5703ZM6.85547 17.7861L5.99833 17.7863C5.99846 18.4124 6.41401 18.8676 6.93437 18.9978C7.40415 19.1153 7.90819 18.9651 8.25765 18.6157L7.65156 18.0096L7.04546 17.4035C7.09845 17.3505 7.20449 17.2982 7.35037 17.3347C7.42849 17.3543 7.52627 17.4035 7.60514 17.5012C7.68775 17.6035 7.7126 17.7132 7.71261 17.786L6.85547 17.7861ZM6.21289 13.2861V14.1433C6.09439 14.1433 5.99833 14.0472 5.99833 13.9287H6.85547H7.71261C7.71261 13.1004 7.04116 12.429 6.21289 12.429V13.2861ZM20.356 10.2861V9.42899C20.4742 9.42899 20.57 9.52484 20.57 9.64307H19.7129H18.8557C18.8557 10.4716 19.5274 11.1433 20.356 11.1433V10.2861ZM5.57031 13.9287H6.42746C6.42746 14.0472 6.33139 14.1433 6.21289 14.1433V13.2861V12.429C5.38462 12.429 4.71317 13.1004 4.71317 13.9287H5.57031Z" fill="black" mask="url(#path-1-inside-1_381_2841)"/>
</svg>
