<svg width="24" height="24" viewBox="0 0 24 24" fill="none" xmlns="http://www.w3.org/2000/svg">
<path d="M14.7184 19.5V19.5C14.1798 19.8638 13.9106 20.0457 13.3738 20.2198C12.7813 20.4121 11.6565 20.4345 11.0568 20.2659C10.5135 20.1132 10.237 19.942 9.68395 19.5996C7.818 18.4444 5.46483 16.6813 4.59477 14.7209C3.73112 12.775 3.98221 9.85383 4.26892 8.02663C4.37148 7.373 4.42276 7.04619 4.62845 6.82311C4.69729 6.74845 4.76941 6.69029 4.85696 6.63884C5.11857 6.48509 5.50982 6.50777 6.29233 6.55313C7.06826 6.59811 7.96247 6.57695 8.63653 6.34884C9.26073 6.13759 9.87153 5.68951 10.4073 5.18784C11.3097 4.34292 11.7608 3.92046 12.0681 3.87404C12.2014 3.85389 12.2349 3.85391 12.3682 3.87424C12.6754 3.92108 13.1292 4.3471 14.0367 5.19915C14.5743 5.70384 15.1896 6.15063 15.8219 6.34884C16.3735 6.52175 17.0846 6.55141 17.7284 6.52683C18.5108 6.49695 18.902 6.48201 19.1583 6.63701C19.2447 6.68926 19.3143 6.74661 19.3821 6.82147C19.5832 7.04349 19.6333 7.36683 19.7336 8.0135C20.0165 9.83818 20.2664 12.7658 19.4145 14.7209C19.1481 15.3326 18.7381 15.9308 18.2463 16.5" stroke="#2E2E2E" stroke-width="1.5" stroke-linecap="round" stroke-linejoin="round"/>
<path d="M15 10.5L11.5484 14L10 12.5455" stroke="#2E2E2E" stroke-width="1.5" stroke-linecap="round" stroke-linejoin="round"/>
</svg>
