<svg width="25" height="24" viewBox="0 0 25 24" fill="none" xmlns="http://www.w3.org/2000/svg">
<circle cx="11" cy="7" r="4" stroke="black" stroke-width="1.5"/>
<path d="M11 14C6.02944 14 2 15.567 2 17.5C2 19.433 6.02944 21 11 21C11.8297 21 12.6332 20.9563 13.3962 20.8746" stroke="black" stroke-width="1.5" stroke-linecap="round"/>
<path d="M19.3232 12.5154L19.874 11.7287C20.3492 11.0501 21.2845 10.8852 21.9631 11.3604V11.3604C22.6417 11.8355 22.8066 12.7708 22.3315 13.4495L21.7807 14.2361M19.3232 12.5154L21.7807 14.2361M19.3232 12.5154L18.4469 13.7669M21.7807 14.2361L19.0129 18.1888C18.6903 18.6496 18.529 18.88 18.3099 19.0417C18.2375 19.0952 18.1608 19.1427 18.0807 19.1838C17.8385 19.3081 17.5604 19.3502 17.0042 19.4344L16.9336 19.445C16.638 19.4898 16.4903 19.5121 16.3729 19.4542C16.3349 19.4354 16.3 19.411 16.2694 19.3817C16.1748 19.2912 16.1453 19.1447 16.0862 18.8517L16.0721 18.7817C15.9609 18.2303 15.9053 17.9546 15.9393 17.6844C15.9505 17.5951 15.969 17.5068 15.9944 17.4204C16.0715 17.1593 16.2328 16.9289 16.5555 16.4681L17.3132 15.3859" stroke="black" stroke-linecap="round" stroke-linejoin="round"/>
</svg>
