<svg width="20" height="20" viewBox="0 0 20 20" fill="none" xmlns="http://www.w3.org/2000/svg">
<path d="M14.4213 6.2963C14.4213 7.9327 13.0947 9.25926 11.4583 9.25926C9.82193 9.25926 8.49537 7.9327 8.49537 6.2963C8.49537 4.6599 9.82193 3.33333 11.4583 3.33333C13.0947 3.33333 14.4213 4.6599 14.4213 6.2963Z" stroke="white" stroke-width="1.5" stroke-linecap="round"/>
<path d="M17.1528 15.5491C17.8987 15.1531 18.3333 14.6778 18.3333 14.1667C18.3333 12.786 15.162 11.6667 11.25 11.6667C7.33798 11.6667 4.16666 12.786 4.16666 14.1667C4.16666 15.5474 7.33798 16.6667 11.25 16.6667C11.903 16.6667 12.5354 16.6355 13.1359 16.5771" stroke="white" stroke-width="1.5" stroke-linecap="round"/>
<path d="M6.42848 12.0595C5.97562 11.9994 5.49503 11.9676 5 11.9676C3.79206 11.9676 2.67009 12.1569 1.82719 12.4847C1.40773 12.6478 1.02564 12.8575 0.737749 13.1222C0.449325 13.3873 0.208332 13.7553 0.208332 14.213C0.208332 14.6707 0.449325 15.0386 0.737749 15.3038C1.02564 15.5685 1.40773 15.7781 1.82719 15.9412C2.67009 16.269 3.79206 16.4583 5 16.4583C5.72878 16.4583 6.42626 16.3894 7.05005 16.2628C6.00725 16.0046 5.16138 15.6369 4.61971 15.2013C3.68454 15.1663 2.8671 15.0045 2.28025 14.7762C1.94569 14.6461 1.71759 14.5066 1.58379 14.3836C1.51879 14.3238 1.48625 14.2773 1.47109 14.2485C1.46379 14.2346 1.4608 14.2254 1.45956 14.2207C1.4584 14.2163 1.45833 14.213 1.45833 14.213C1.45833 14.213 1.4584 14.2097 1.45956 14.2052C1.4608 14.2005 1.46379 14.1913 1.47109 14.1774C1.48625 14.1486 1.51879 14.1021 1.58379 14.0423C1.71759 13.9193 1.94569 13.7798 2.28025 13.6497C2.80133 13.447 3.50421 13.2967 4.30987 13.2411C4.71821 12.7728 5.46136 12.3645 6.42848 12.0595Z" fill="white"/>
<path fill-rule="evenodd" clip-rule="evenodd" d="M5 6.875C3.63207 6.875 2.52315 7.98392 2.52315 9.35185C2.52315 10.7198 3.63207 11.8287 5 11.8287C6.36793 11.8287 7.47685 10.7198 7.47685 9.35185C7.47685 7.98392 6.36793 6.875 5 6.875ZM3.77315 9.35185C3.77315 8.67428 4.32243 8.125 5 8.125C5.67757 8.125 6.22685 8.67428 6.22685 9.35185C6.22685 10.0294 5.67757 10.5787 5 10.5787C4.32243 10.5787 3.77315 10.0294 3.77315 9.35185Z" fill="white"/>
</svg>
