<svg width="20" height="20" viewBox="0 0 20 20" fill="none" xmlns="http://www.w3.org/2000/svg">
<circle cx="9.16667" cy="5.83333" r="3.33333" stroke="white" stroke-width="1.5"/>
<path d="M9.16667 11.6667C5.02453 11.6667 1.66667 12.9725 1.66667 14.5833C1.66667 16.1942 5.02453 17.5 9.16667 17.5C9.85811 17.5 10.5277 17.4636 11.1635 17.3955" stroke="white" stroke-width="1.5" stroke-linecap="round"/>
<path d="M19.0809 12.2917V12.2445V12.2445C19.0809 11.758 18.8214 11.3085 18.4001 11.0653L17.1833 10.3628C16.5993 10.0255 16.3072 9.85693 15.9901 9.8236C15.8859 9.81264 15.7808 9.81264 15.6766 9.8236C15.3595 9.85693 15.0674 10.0255 14.4833 10.3628L13.9358 10.6789C13.3517 11.0161 13.0596 11.1847 12.8722 11.4427C12.8106 11.5275 12.7581 11.6185 12.7154 11.7143C12.5858 12.0055 12.5858 12.3427 12.5858 13.0172V13.6495C12.5858 14.3239 12.5858 14.6611 12.7154 14.9524C12.7581 15.0482 12.8106 15.1392 12.8722 15.224C13.0596 15.4819 13.3517 15.6505 13.9358 15.9878L14.4833 16.3039C15.0674 16.6411 15.3595 16.8097 15.6766 16.8431C15.7808 16.854 15.8859 16.854 15.9901 16.8431C16.3072 16.8097 16.5993 16.6411 17.1833 16.3039L18.269 15.6771C18.329 15.6425 18.359 15.6251 18.3864 15.6077C18.7996 15.3447 19.0584 14.8965 19.0795 14.4071C19.0809 14.3747 19.0809 14.3401 19.0809 14.2708V14.2708V13.8021" stroke="white" stroke-linecap="round" stroke-linejoin="round"/>
<circle cx="15.8333" cy="13.3333" r="1.25" stroke="white"/>
</svg>
