<svg width="18" height="19" viewBox="0 0 18 19" fill="none" xmlns="http://www.w3.org/2000/svg">
<path d="M12.9788 6.16667C12.9788 7.63943 11.7849 8.83333 10.3122 8.83333C8.83942 8.83333 7.64551 7.63943 7.64551 6.16667C7.64551 4.69391 8.83942 3.5 10.3122 3.5C11.7849 3.5 12.9788 4.69391 12.9788 6.16667Z" stroke="black" stroke-width="1.2" stroke-linecap="round"/>
<path d="M15.4375 14.4942C16.1088 14.1378 16.5 13.71 16.5 13.25C16.5 12.0074 13.6458 11 10.125 11C6.60418 11 3.75 12.0074 3.75 13.25C3.75 14.4926 6.60418 15.5 10.125 15.5C10.7127 15.5 11.2819 15.4719 11.8223 15.4194" stroke="black" stroke-width="1.2" stroke-linecap="round"/>
<path d="M5.78563 11.3535C5.37806 11.2994 4.94553 11.2708 4.5 11.2708C3.41285 11.2708 2.40308 11.4412 1.64447 11.7362C1.26696 11.883 0.923079 12.0717 0.663976 12.3099C0.404393 12.5486 0.1875 12.8797 0.1875 13.2917C0.1875 13.7036 0.404393 14.0347 0.663976 14.2734C0.923079 14.5116 1.26696 14.7003 1.64447 14.8471C2.40308 15.1421 3.41285 15.3125 4.5 15.3125C5.1559 15.3125 5.78364 15.2505 6.34504 15.1365C5.40652 14.9042 4.64524 14.5732 4.15774 14.1811C3.31609 14.1497 2.58039 14.004 2.05223 13.7986C1.75113 13.6815 1.54583 13.556 1.42541 13.4452C1.36691 13.3914 1.33763 13.3496 1.32398 13.3236C1.31741 13.3112 1.31472 13.3029 1.31361 13.2986C1.31256 13.2946 1.3125 13.2917 1.3125 13.2917C1.3125 13.2917 1.31256 13.2887 1.31361 13.2847C1.31472 13.2804 1.31741 13.2722 1.32398 13.2597C1.33763 13.2338 1.36691 13.1919 1.42541 13.1381C1.54583 13.0274 1.75113 12.9018 2.05223 12.7847C2.5212 12.6023 3.15379 12.467 3.87889 12.417C4.24639 11.9955 4.91522 11.6281 5.78563 11.3535Z" fill="black"/>
<path fill-rule="evenodd" clip-rule="evenodd" d="M4.5 6.6875C3.26887 6.6875 2.27083 7.68553 2.27083 8.91667C2.27083 10.1478 3.26887 11.1458 4.5 11.1458C5.73113 11.1458 6.72917 10.1478 6.72917 8.91667C6.72917 7.68553 5.73113 6.6875 4.5 6.6875ZM3.39583 8.91667C3.39583 8.30685 3.89019 7.8125 4.5 7.8125C5.10981 7.8125 5.60417 8.30685 5.60417 8.91667C5.60417 9.52648 5.10981 10.0208 4.5 10.0208C3.89019 10.0208 3.39583 9.52648 3.39583 8.91667Z" fill="black"/>
</svg>
