<svg width="24" height="24" viewBox="0 0 24 24" fill="none" xmlns="http://www.w3.org/2000/svg">
<path d="M15.2222 8.11111C15.2222 9.82933 13.8293 11.2222 12.1111 11.2222C10.3929 11.2222 9 9.82933 9 8.11111C9 6.39289 10.3929 5 12.1111 5C13.8293 5 15.2222 6.39289 15.2222 8.11111Z" stroke="black" stroke-width="1.3125" stroke-linecap="round"/>
<path d="M5 16.375C5 17.8247 8.32988 19 12.4375 19C13.1232 19 13.7872 18.9673 14.4177 18.9059C15.1239 18.8217 16.9563 18.4878 18.6354 17.8265C19.4186 17.4108 19.875 16.9117 19.875 16.375C19.875 14.9253 16.5451 13.75 12.4375 13.75C8.32988 13.75 5 14.9253 5 16.375Z" stroke="black" stroke-width="1.3125" stroke-linecap="round"/>
<path d="M6.68028 14.3013C6.25215 14.2445 5.7978 14.2144 5.3298 14.2144C4.18783 14.2144 3.12713 14.3934 2.33026 14.7032C1.9337 14.8575 1.57248 15.0557 1.30031 15.3059C1.02764 15.5566 0.799805 15.9044 0.799805 16.3371C0.799805 16.7699 1.02764 17.1177 1.30031 17.3684C1.57248 17.6186 1.9337 17.8168 2.33026 17.971C3.12713 18.2809 4.18783 18.4599 5.3298 18.4599C6.01879 18.4599 6.67818 18.3948 7.2679 18.275C6.28205 18.031 5.48237 17.6833 4.97028 17.2715C4.08618 17.2384 3.31338 17.0854 2.75858 16.8697C2.44229 16.7467 2.22664 16.6148 2.10015 16.4985C2.0387 16.442 2.00794 16.398 1.9936 16.3707C1.9867 16.3576 1.98387 16.3489 1.98271 16.3445C1.98161 16.3403 1.98154 16.3371 1.98154 16.3371C1.98154 16.3371 1.98161 16.334 1.98271 16.3298C1.98387 16.3254 1.9867 16.3167 1.9936 16.3036C2.00794 16.2763 2.0387 16.2323 2.10015 16.1758C2.22664 16.0595 2.44229 15.9276 2.75858 15.8046C3.2512 15.6131 3.9157 15.4709 4.67737 15.4184C5.0634 14.9756 5.76597 14.5896 6.68028 14.3013Z" fill="black"/>
<path fill-rule="evenodd" clip-rule="evenodd" d="M5.3298 9.3999C4.03658 9.3999 2.98821 10.4483 2.98821 11.7415C2.98821 13.0347 4.03658 14.0831 5.3298 14.0831C6.62303 14.0831 7.6714 13.0347 7.6714 11.7415C7.6714 10.4483 6.62303 9.3999 5.3298 9.3999ZM4.16995 11.7415C4.16995 11.1009 4.68923 10.5816 5.3298 10.5816C5.97038 10.5816 6.48966 11.1009 6.48966 11.7415C6.48966 12.3821 5.97038 12.9014 5.3298 12.9014C4.68923 12.9014 4.16995 12.3821 4.16995 11.7415Z" fill="black"/>
<path d="M18.1195 14.3013C18.5477 14.2445 19.002 14.2144 19.47 14.2144C20.612 14.2144 21.6727 14.3934 22.4695 14.7033C22.8661 14.8575 23.2273 15.0557 23.4995 15.3059C23.7722 15.5566 24 15.9044 24 16.3371C24 16.7699 23.7722 17.1177 23.4995 17.3684C23.2273 17.6186 22.8661 17.8168 22.4695 17.971C21.6727 18.2809 20.612 18.4599 19.47 18.4599C18.781 18.4599 19.1875 17.8762 18.5978 17.7565C19.5836 17.5125 19.3174 17.6833 19.8295 17.2715C20.7136 17.2384 21.4864 17.0854 22.0412 16.8697C22.3575 16.7467 22.5732 16.6148 22.6997 16.4985C22.7611 16.442 22.7919 16.398 22.8062 16.3707C22.8131 16.3576 22.8159 16.3489 22.8171 16.3445C22.8182 16.3403 22.8183 16.3371 22.8183 16.3371C22.8183 16.3371 22.8182 16.334 22.8171 16.3298C22.8159 16.3254 22.8131 16.3167 22.8062 16.3036C22.7919 16.2763 22.7611 16.2323 22.6997 16.1758C22.5732 16.0595 22.3575 15.9276 22.0412 15.8046C21.5486 15.6131 20.8841 15.4709 20.1224 15.4184C19.7364 14.9756 19.0338 14.5896 18.1195 14.3013Z" fill="black"/>
<path fill-rule="evenodd" clip-rule="evenodd" d="M19.47 9.3999C20.7632 9.3999 21.8116 10.4483 21.8116 11.7415C21.8116 13.0347 20.7632 14.0831 19.47 14.0831C18.1768 14.0831 17.1284 13.0347 17.1284 11.7415C17.1284 10.4483 18.1768 9.3999 19.47 9.3999ZM20.6299 11.7415C20.6299 11.1009 20.1106 10.5816 19.47 10.5816C18.8294 10.5816 18.3101 11.1009 18.3101 11.7415C18.3101 12.3821 18.8294 12.9014 19.47 12.9014C20.1106 12.9014 20.6299 12.3821 20.6299 11.7415Z" fill="black"/>
</svg>
