<svg width="24" height="24" viewBox="0 0 24 24" fill="none" xmlns="http://www.w3.org/2000/svg">
<circle cx="11" cy="7" r="4" stroke="black" stroke-width="1.5"/>
<path d="M11 14C6.02944 14 2 15.567 2 17.5C2 19.433 6.02944 21 11 21C11.8297 21 12.6332 20.9563 13.3962 20.8746" stroke="black" stroke-width="1.5" stroke-linecap="round"/>
<path d="M22.8971 14.75V14.6934V14.6934C22.8971 14.6184 22.8971 14.581 22.8955 14.5459C22.8728 14.0604 22.6162 13.6159 22.207 13.3535C22.1775 13.3345 22.1451 13.3158 22.0802 13.2783L20.35 12.2794C19.7659 11.9422 19.4739 11.7736 19.1568 11.7403C19.0526 11.7293 18.9475 11.7293 18.8432 11.7403C18.5261 11.7736 18.2341 11.9422 17.65 12.2794L16.4529 12.9706C15.8688 13.3078 15.5768 13.4764 15.3894 13.7343C15.3278 13.8191 15.2752 13.9102 15.2326 14.0059C15.1029 14.2972 15.1029 14.6344 15.1029 15.3088V16.6912C15.1029 17.3656 15.1029 17.7028 15.2326 17.9941C15.2752 18.0898 15.3278 18.1809 15.3894 18.2657C15.5768 18.5236 15.8688 18.6922 16.4529 19.0294L17.65 19.7206C18.2341 20.0578 18.5261 20.2264 18.8432 20.2597C18.9475 20.2707 19.0526 20.2707 19.1568 20.2597C19.4739 20.2264 19.7659 20.0578 20.35 19.7206L21.9229 18.8125C22.1403 18.687 22.249 18.6242 22.3405 18.5502C22.6291 18.3167 22.8209 17.9845 22.8788 17.6179C22.8971 17.5016 22.8971 17.3761 22.8971 17.125V17.125V16.5625" stroke="black" stroke-width="0.85" stroke-linecap="round" stroke-linejoin="round"/>
<circle cx="19" cy="16" r="1.5" stroke="black" stroke-width="0.85"/>
</svg>
