<svg width="24" height="24" viewBox="0 0 24 24" fill="none" xmlns="http://www.w3.org/2000/svg">
<g clip-path="url(#clip0_3592_6921)">
<path d="M9.99589 1.59118C10.3009 1.44618 10.6509 1.42115 10.9059 1.53115C11.5859 1.81116 12.0859 3.38619 12.2409 5.76118C12.2709 6.21618 12.3059 6.61617 12.3159 6.64617C12.3309 6.69617 12.5259 6.71117 13.0509 6.71117C13.4459 6.71117 13.9809 6.73616 14.2409 6.76116C16.1759 6.96616 18.3159 7.70617 19.6109 8.61616C21.2559 9.77116 22.5259 11.7562 22.9359 13.8012C23.2359 15.2962 23.1859 17.2662 22.8109 18.9612C22.5109 20.3012 22.0709 21.1362 21.1559 22.1011C20.7609 22.5161 20.6959 22.5612 20.5409 22.5612C20.1909 22.5562 20.1209 22.4162 20.0709 21.6362C20.0159 20.7862 19.8559 19.6362 19.7209 19.1062C19.1109 16.7012 17.3209 15.1012 14.7659 14.6862C14.3109 14.6112 13.2059 14.5962 12.5909 14.6562L12.2659 14.6862L12.2309 15.3112C12.0909 17.8061 12.0209 18.3162 11.7259 18.9312C11.3559 19.6962 11.0159 19.9812 10.4609 19.9812C10.0559 19.9812 9.65587 19.7862 9.11087 19.3312C8.89586 19.1462 7.90587 18.1912 6.91588 17.2112C5.92588 16.2312 4.35587 14.7012 3.42087 13.8112C2.49087 12.9162 1.59586 12.0162 1.42586 11.8112C0.835865 11.0762 0.755886 10.6562 1.11088 10.1412C1.32088 9.83618 2.56587 8.59616 7.34086 3.95617C9.40086 1.95617 9.61089 1.76618 9.99589 1.59118Z" fill="#FCD100" stroke="black"/>
</g>
<defs>
<clipPath id="clip0_3592_6921">
<rect width="24" height="24" fill="white"/>
</clipPath>
</defs>
</svg>
