<svg width="20" height="20" viewBox="0 0 20 20" fill="none" xmlns="http://www.w3.org/2000/svg">
<path d="M6.66667 9.16683H10.4167C10.9692 9.16683 11.4991 8.94734 11.8898 8.55663C12.2805 8.16593 12.5 7.63603 12.5 7.0835C12.5 6.53096 12.2805 6.00106 11.8898 5.61036C11.4991 5.21966 10.9692 5.00016 10.4167 5.00016H6.66667V9.16683ZM15 12.9168C15 13.4093 14.903 13.8969 14.7145 14.3519C14.5261 14.8069 14.2499 15.2203 13.9016 15.5685C13.5534 15.9167 13.14 16.1929 12.6851 16.3814C12.2301 16.5698 11.7425 16.6668 11.25 16.6668H5.54167C5.24251 16.6668 5 16.4243 5 16.1252V3.87516C5 3.57601 5.24251 3.3335 5.54167 3.3335H10.4167C11.1508 3.33353 11.8688 3.54904 12.4816 3.95331C13.0944 4.35758 13.575 4.93283 13.8639 5.60772C14.1528 6.28261 14.2373 7.02746 14.1068 7.74991C13.9764 8.47235 13.6367 9.14061 13.13 9.67183C13.6989 10.0012 14.1711 10.4745 14.4993 11.044C14.8276 11.6136 15.0002 12.2595 15 12.9168ZM6.66667 10.8335V15.0002H11.25C11.8025 15.0002 12.3324 14.7807 12.7231 14.39C13.1138 13.9993 13.3333 13.4694 13.3333 12.9168C13.3333 12.3643 13.1138 11.8344 12.7231 11.4437C12.3324 11.053 11.8025 10.8335 11.25 10.8335H6.66667Z" fill="black"/>
</svg>
