<svg width="18" height="19" viewBox="0 0 18 19" fill="none" xmlns="http://www.w3.org/2000/svg">
<path d="M15.75 12.875V8C15.75 6.34315 14.4069 5 12.75 5H5.25C3.59315 5 2.25 6.34315 2.25 8V8.31714M15.75 12.875V13.25C15.75 14.9069 14.4069 16.25 12.75 16.25H5.25C3.59315 16.25 2.25 14.9069 2.25 13.25V12.875M15.75 12.875H2.25M2.25 12.875V10.9421" stroke="black" stroke-width="1.2" stroke-linecap="round"/>
<path d="M7.74828 10.9423C7.50993 10.9423 7.31671 10.7491 7.31671 10.5107V8.5847C7.31671 8.49479 7.42349 8.44765 7.48993 8.50824C7.55976 8.57192 7.51471 8.68819 7.4202 8.68819H7.01176C6.86719 8.68819 6.75 8.57099 6.75 8.42643V8.37294C6.75 8.19883 6.89114 8.05769 7.06525 8.05769H7.46493C7.85977 8.05769 8.17985 8.37778 8.17985 8.77262V10.5107C8.17985 10.7491 7.98663 10.9423 7.74828 10.9423Z" fill="black"/>
<path d="M10.0512 11C9.76638 11 9.5179 10.9464 9.30575 10.8393C9.0965 10.7321 8.9323 10.5728 8.81315 10.3613C8.6969 10.1497 8.63877 9.88874 8.63877 9.5783C8.63877 9.24313 8.70707 8.95879 8.84366 8.72527C8.98316 8.48901 9.17352 8.30907 9.41473 8.18544C9.65885 8.06181 9.94075 8 10.2604 8C10.4319 8 10.5961 8.01923 10.753 8.05769C10.7954 8.06715 10.836 8.07767 10.8749 8.08926C11.0406 8.13864 11.0941 8.33013 11.0124 8.48255L10.9863 8.53115C10.9102 8.67294 10.7277 8.71158 10.5699 8.67995C10.4769 8.65797 10.381 8.64698 10.2822 8.64698C10.0468 8.64698 9.85793 8.71429 9.71552 8.8489C9.57603 8.98352 9.50628 9.17995 9.50628 9.43819C9.50628 9.48489 9.50628 9.53434 9.50628 9.58654C9.50948 9.64112 9.44557 9.67844 9.40236 9.64495L9.36105 9.61292C9.32933 9.58834 9.32027 9.54393 9.3424 9.51046C9.39253 9.43466 9.45006 9.36936 9.51499 9.31456C9.59927 9.24588 9.69809 9.19368 9.81143 9.15797C9.92768 9.12225 10.057 9.1044 10.1994 9.1044C10.3912 9.1044 10.5656 9.14286 10.7225 9.21978C10.8824 9.29396 11.0102 9.39973 11.1061 9.53709C11.202 9.6717 11.25 9.83104 11.25 10.0151C11.25 10.2157 11.1962 10.3901 11.0887 10.5385C10.9812 10.6841 10.8373 10.7981 10.6571 10.8805C10.4769 10.9602 10.275 11 10.0512 11ZM9.99888 10.419C10.0803 10.419 10.1515 10.4038 10.2125 10.3736C10.2764 10.3434 10.3258 10.3008 10.3607 10.2459C10.3956 10.1909 10.413 10.1264 10.413 10.0522C10.413 9.94231 10.3738 9.8544 10.2953 9.78846C10.2197 9.72253 10.1195 9.68956 9.99452 9.68956C9.91024 9.68956 9.83613 9.70467 9.77219 9.73489C9.71116 9.76511 9.66176 9.80769 9.62398 9.86264C9.5891 9.91758 9.57167 9.98214 9.57167 10.0563C9.57167 10.1277 9.5891 10.1909 9.62398 10.2459C9.65885 10.2981 9.70826 10.3407 9.77219 10.3736C9.83613 10.4038 9.91169 10.419 9.99888 10.419Z" fill="black"/>
<line x1="5.86875" y1="6.65" x2="5.86875" y2="3.35" stroke="black" stroke-width="1.2" stroke-linecap="round"/>
<line x1="12.6187" y1="6.65" x2="12.6187" y2="3.35" stroke="black" stroke-width="1.2" stroke-linecap="round"/>
</svg>
