<svg width="24" height="24" viewBox="0 0 24 24" fill="none" xmlns="http://www.w3.org/2000/svg">
<path d="M14.5 3.35177C13.7063 3.12273 12.8675 3 12 3C7.02944 3 3 7.02944 3 12C3 16.9706 7.02944 21 12 21C13.209 21 14.3623 20.7616 15.4155 20.3293C15.478 20.3036 15.5093 20.2908 15.5402 20.2864C15.5508 20.2849 15.5606 20.2841 15.5712 20.284C15.6025 20.2834 15.6341 20.2909 15.6974 20.3059L17.8569 20.8167C18.1594 20.8883 18.3106 20.9241 18.4025 20.8594C18.4314 20.8391 18.4557 20.8129 18.4737 20.7825C18.5311 20.6858 18.4838 20.5378 18.3891 20.2418L18.011 19.0596C17.9726 18.9394 17.9534 18.8794 17.9616 18.8225C17.9643 18.8033 17.9688 18.7861 17.9758 18.768C17.9964 18.7144 18.0444 18.6696 18.1403 18.5801C19.8999 16.9374 21 14.5972 21 12C21 10.2827 20.519 8.67769 19.6844 7.31241C19.3086 6.69767 18.8611 6.13152 18.3535 5.62561" stroke="black" stroke-width="1.5" stroke-linecap="round" stroke-linejoin="round"/>
<path d="M12 15.3496C12.2718 15.3496 12.5324 15.4582 12.7246 15.6504L12.793 15.7256C12.9423 15.908 13.0254 16.1372 13.0254 16.375C13.0254 16.5269 12.9911 16.6762 12.9268 16.8125L12.8525 16.9443C12.7681 17.0707 12.6566 17.1763 12.5273 17.2539L12.3926 17.3223C12.2521 17.3804 12.1008 17.4058 11.9502 17.3984L11.7998 17.3799C11.6507 17.3502 11.5108 17.288 11.3896 17.1982L11.2754 17.0996C11.1321 16.9563 11.0347 16.7739 10.9951 16.5752C10.9556 16.3764 10.9752 16.1697 11.0527 15.9824C11.1303 15.7952 11.2622 15.6351 11.4307 15.5225L11.5625 15.4482C11.6988 15.3839 11.8481 15.3496 12 15.3496ZM12 7.03711C13.9933 7.03711 15.6504 8.46022 15.6504 10.25C15.6504 11.8601 14.3069 13.1709 12.5879 13.417V13.75C12.5879 13.9058 12.5252 14.0549 12.415 14.165C12.3049 14.2752 12.1558 14.3379 12 14.3379C11.8832 14.3379 11.7696 14.3031 11.6738 14.2393L11.585 14.165C11.4748 14.0549 11.4121 13.9058 11.4121 13.75V12.875C11.4121 12.7192 11.4748 12.5701 11.585 12.46L11.6738 12.3857C11.7696 12.3219 11.8832 12.2871 12 12.2871C13.3915 12.2871 14.4746 11.3491 14.4746 10.25C14.4746 9.15089 13.3915 8.21289 12 8.21289C10.6085 8.21289 9.52539 9.15089 9.52539 10.25C9.52539 10.3668 9.49062 10.4804 9.42676 10.5762L9.35254 10.665C9.24236 10.7752 9.09331 10.8379 8.9375 10.8379C8.82066 10.8379 8.70713 10.8031 8.61133 10.7393L8.52246 10.665C8.41228 10.5549 8.34961 10.4058 8.34961 10.25L8.35449 10.083C8.45371 8.37252 10.0691 7.03711 12 7.03711Z" fill="black" stroke="black" stroke-width="0.3"/>
</svg>
