<svg width="16" height="20" viewBox="0 0 16 20" fill="none" xmlns="http://www.w3.org/2000/svg">
<path d="M1 7L2.17801 14.068C2.42858 15.5715 2.55387 16.3232 2.87702 16.9156C3.35311 17.7883 4.13714 18.4525 5.07628 18.7786C5.71372 19 6.47582 19 8 19H9.22519C9.58961 19 9.77183 19 9.93165 18.9872C11.6425 18.8498 13.075 17.6363 13.4918 15.9713C13.5307 15.8157 13.5607 15.636 13.6206 15.2765V15.2765M15 7L14.5 10L14.375 10.75" stroke="black" stroke-width="1.5" stroke-linecap="round"/>
<path d="M1 4H4.5M4.5 4V3C4.5 1.89543 5.39543 1 6.5 1H9.5C10.6046 1 11.5 1.89543 11.5 3V4M4.5 4H11.5M11.5 4H15" stroke="black" stroke-width="1.5" stroke-linecap="round"/>
</svg>
