<svg width="18" height="18" viewBox="0 0 18 18" fill="none" xmlns="http://www.w3.org/2000/svg">
<mask id="path-1-inside-1_1237_3520" fill="white">
<path d="M5.712 15.0004C5.376 15.0004 5.09 14.8824 4.854 14.6464C4.618 14.4104 4.5 14.1246 4.5 13.7891V4.70035C4.5 4.58989 4.41046 4.50035 4.3 4.50035H3.95C3.83954 4.50035 3.75 4.41081 3.75 4.30035V3.95035C3.75 3.83989 3.83954 3.75035 3.95 3.75035H6.55C6.66046 3.75035 6.75 3.66081 6.75 3.55035V3.37285C6.75 3.26239 6.83954 3.17285 6.95 3.17285H11.05C11.1605 3.17285 11.25 3.26239 11.25 3.37285V3.55035C11.25 3.66081 11.3395 3.75035 11.45 3.75035H14.05C14.1605 3.75035 14.25 3.83989 14.25 3.95035V4.30035C14.25 4.41081 14.1605 4.50035 14.05 4.50035H13.7C13.5895 4.50035 13.5 4.58989 13.5 4.70035V13.7891C13.5 14.1341 13.3845 14.4224 13.1535 14.6539C12.9225 14.8854 12.634 15.0009 12.288 15.0004H5.712ZM12.75 4.70035C12.75 4.58989 12.6605 4.50035 12.55 4.50035H5.25V13.7891C5.25 13.9236 5.29325 14.0341 5.37975 14.1206C5.46625 14.2071 5.577 14.2504 5.712 14.2504H12.2887C12.4038 14.2504 12.5095 14.2024 12.606 14.1064C12.7025 14.0104 12.7505 13.9044 12.75 13.7884V4.70035ZM7.356 12.5504C7.356 12.6608 7.44554 12.7504 7.556 12.7504H7.906C8.01646 12.7504 8.106 12.6608 8.106 12.5504V6.20035C8.106 6.08989 8.01646 6.00035 7.906 6.00035H7.556C7.44554 6.00035 7.356 6.08989 7.356 6.20035V12.5504ZM9.894 12.5504C9.894 12.6608 9.98354 12.7504 10.094 12.7504H10.444C10.5545 12.7504 10.644 12.6608 10.644 12.5504V6.20035C10.644 6.08989 10.5545 6.00035 10.444 6.00035H10.094C9.98354 6.00035 9.894 6.08989 9.894 6.20035V12.5504Z"/>
</mask>
<path d="M5.25 4.50035H4.5V14.2504H5.25H6V4.50035H5.25ZM4.5 13.7891H6H4.5ZM12.288 15.0004L12.2902 13.5004H12.288V15.0004ZM5.25 4.50035V3.00035H3.75V4.50035H5.25ZM5.712 14.2504V12.7504V14.2504ZM12.75 13.7884H11.25L11.25 13.7948L12.75 13.7884ZM5.712 15.0004V13.5004C5.72328 13.5004 5.76407 13.5031 5.8176 13.5252C5.87133 13.5474 5.90399 13.575 5.91466 13.5857L4.854 14.6464L3.79334 15.707C4.31277 16.2264 4.98119 16.5004 5.712 16.5004V15.0004ZM4.854 14.6464L5.91466 13.5857C5.92512 13.5961 5.95272 13.6287 5.97494 13.6825C5.9971 13.7362 6 13.7773 6 13.7891H4.5H3C3 14.5201 3.27438 15.1881 3.79334 15.707L4.854 14.6464ZM4.5 13.7891H6V4.70035H4.5H3V13.7891H4.5ZM4.3 4.50035V3.00035H3.95V4.50035V6.00035H4.3V4.50035ZM3.75 4.30035H5.25V3.95035H3.75H2.25V4.30035H3.75ZM3.95 3.75035V5.25035H6.55V3.75035V2.25035H3.95V3.75035ZM6.75 3.55035H8.25V3.37285H6.75H5.25V3.55035H6.75ZM6.95 3.17285V4.67285H11.05V3.17285V1.67285H6.95V3.17285ZM11.25 3.37285H9.75V3.55035H11.25H12.75V3.37285H11.25ZM11.45 3.75035V5.25035H14.05V3.75035V2.25035H11.45V3.75035ZM14.25 3.95035H12.75V4.30035H14.25H15.75V3.95035H14.25ZM14.05 4.50035V3.00035H13.7V4.50035V6.00035H14.05V4.50035ZM13.5 4.70035H12V13.7891H13.5H15V4.70035H13.5ZM13.5 13.7891H12C12 13.7917 12.0002 13.7581 12.021 13.7061C12.0425 13.6526 12.072 13.614 12.0917 13.5943L13.1535 14.6539L14.2153 15.7134C14.7436 15.1839 15 14.5071 15 13.7891H13.5ZM13.1535 14.6539L12.0917 13.5943C12.1123 13.5737 12.1518 13.5434 12.2064 13.5216C12.2592 13.5004 12.2932 13.5004 12.2902 13.5004L12.288 15.0004L12.2858 16.5003C13.0052 16.5014 13.6847 16.2451 14.2153 15.7134L13.1535 14.6539ZM12.288 15.0004V13.5004H5.712V15.0004V16.5004H12.288V15.0004ZM12.55 4.50035V3.00035H5.25V4.50035V6.00035H12.55V4.50035ZM5.25 4.50035H3.75V13.7891H5.25H6.75V4.50035H5.25ZM5.25 13.7891H3.75C3.75 14.2779 3.92196 14.7841 4.31909 15.1813L5.37975 14.1206L6.44041 13.0599C6.53882 13.1584 6.62312 13.2827 6.67925 13.4261C6.7343 13.5668 6.75 13.6941 6.75 13.7891H5.25ZM5.37975 14.1206L4.31909 15.1813C4.71734 15.5795 5.2244 15.7504 5.712 15.7504V14.2504V12.7504C5.80611 12.7504 5.93288 12.7658 6.07334 12.8207C6.21668 12.8767 6.34143 12.961 6.44041 13.0599L5.37975 14.1206ZM5.712 14.2504V15.7504H12.2887V14.2504V12.7504H5.712V14.2504ZM12.2887 14.2504V15.7504C12.8721 15.7504 13.3418 15.4902 13.6639 15.1698L12.606 14.1064L11.5481 13.0429C11.6052 12.9861 11.699 12.9099 11.8343 12.8485C11.9742 12.785 12.1302 12.7504 12.2887 12.7504V14.2504ZM12.606 14.1064L13.6639 15.1698C13.9917 14.8437 14.2525 14.3687 14.25 13.7819L12.75 13.7884L11.25 13.7948C11.2493 13.6365 11.2833 13.4789 11.3479 13.3361C11.4105 13.1979 11.4889 13.1018 11.5481 13.0429L12.606 14.1064ZM12.75 13.7884H14.25V4.70035H12.75H11.25V13.7884H12.75ZM7.556 12.7504V14.2504H7.906V12.7504V11.2504H7.556V12.7504ZM8.106 12.5504H9.606V6.20035H8.106H6.606V12.5504H8.106ZM7.906 6.00035V4.50035H7.556V6.00035V7.50035H7.906V6.00035ZM7.356 6.20035H5.856V12.5504H7.356H8.856V6.20035H7.356ZM10.094 12.7504V14.2504H10.444V12.7504V11.2504H10.094V12.7504ZM10.644 12.5504H12.144V6.20035H10.644H9.144V12.5504H10.644ZM10.444 6.00035V4.50035H10.094V6.00035V7.50035H10.444V6.00035ZM9.894 6.20035H8.394V12.5504H9.894H11.394V6.20035H9.894ZM7.906 12.7504V14.2504C8.84488 14.2504 9.606 13.4892 9.606 12.5504H8.106H6.606C6.606 11.8324 7.18803 11.2504 7.906 11.2504V12.7504ZM7.556 12.7504V11.2504C8.27397 11.2504 8.856 11.8324 8.856 12.5504H7.356H5.856C5.856 13.4892 6.61712 14.2504 7.556 14.2504V12.7504ZM13.7 4.50035V3.00035C12.7611 3.00035 12 3.76147 12 4.70035H13.5H15C15 5.41832 14.418 6.00035 13.7 6.00035V4.50035ZM14.25 4.30035H12.75C12.75 3.58238 13.332 3.00035 14.05 3.00035V4.50035V6.00035C14.9889 6.00035 15.75 5.23924 15.75 4.30035H14.25ZM14.05 3.75035V5.25035C13.332 5.25035 12.75 4.66832 12.75 3.95035H14.25H15.75C15.75 3.01147 14.9889 2.25035 14.05 2.25035V3.75035ZM11.25 3.55035H9.75C9.75 4.48924 10.5111 5.25035 11.45 5.25035V3.75035V2.25035C12.168 2.25035 12.75 2.83238 12.75 3.55035H11.25ZM10.094 6.00035V4.50035C9.15512 4.50035 8.394 5.26147 8.394 6.20035H9.894H11.394C11.394 6.91832 10.812 7.50035 10.094 7.50035V6.00035ZM11.05 3.17285V4.67285C10.332 4.67285 9.75 4.09082 9.75 3.37285H11.25H12.75C12.75 2.43397 11.9889 1.67285 11.05 1.67285V3.17285ZM10.644 6.20035H12.144C12.144 5.26146 11.3829 4.50035 10.444 4.50035V6.00035V7.50035C9.72603 7.50035 9.144 6.91832 9.144 6.20035H10.644ZM6.75 3.37285H8.25C8.25 4.09082 7.66797 4.67285 6.95 4.67285V3.17285V1.67285C6.01112 1.67285 5.25 2.43397 5.25 3.37285H6.75ZM10.444 12.7504V14.2504C11.3829 14.2504 12.144 13.4892 12.144 12.5504H10.644H9.144C9.144 11.8324 9.72603 11.2504 10.444 11.2504V12.7504ZM6.55 3.75035V5.25035C7.48888 5.25035 8.25 4.48924 8.25 3.55035H6.75H5.25C5.25 2.83238 5.83203 2.25035 6.55 2.25035V3.75035ZM12.55 4.50035V6.00035C11.832 6.00035 11.25 5.41832 11.25 4.70035H12.75H14.25C14.25 3.76146 13.4889 3.00035 12.55 3.00035V4.50035ZM10.094 12.7504V11.2504C10.812 11.2504 11.394 11.8324 11.394 12.5504H9.894H8.394C8.394 13.4892 9.15512 14.2504 10.094 14.2504V12.7504ZM3.75 3.95035H5.25C5.25 4.66832 4.66797 5.25035 3.95 5.25035V3.75035V2.25035C3.01112 2.25035 2.25 3.01147 2.25 3.95035H3.75ZM7.556 6.00035V4.50035C6.61712 4.50035 5.856 5.26147 5.856 6.20035H7.356H8.856C8.856 6.91832 8.27397 7.50035 7.556 7.50035V6.00035ZM3.95 4.50035V3.00035C4.66797 3.00035 5.25 3.58238 5.25 4.30035H3.75H2.25C2.25 5.23924 3.01112 6.00035 3.95 6.00035V4.50035ZM8.106 6.20035H9.606C9.606 5.26146 8.84488 4.50035 7.906 4.50035V6.00035V7.50035C7.18803 7.50035 6.606 6.91832 6.606 6.20035H8.106ZM4.5 4.70035H6C6 3.76147 5.23888 3.00035 4.3 3.00035V4.50035V6.00035C3.58203 6.00035 3 5.41832 3 4.70035H4.5Z" fill="#FF3B30" mask="url(#path-1-inside-1_1237_3520)"/>
</svg>
