<svg width="18" height="19" viewBox="0 0 18 19" fill="none" xmlns="http://www.w3.org/2000/svg">
<path d="M2.25 9.44214V8M2.25 8V7.25C2.25 5.59315 3.59315 4.25 5.25 4.25H12.75C14.4069 4.25 15.75 5.59315 15.75 7.25V8M2.25 8H15.75M15.75 8V13.25C15.75 14.9069 14.4069 16.25 12.75 16.25H5.25C3.59315 16.25 2.25 14.9069 2.25 13.25V12.0671" stroke="black" stroke-width="1.2" stroke-linecap="round"/>
<path d="M6 5.75V2.75" stroke="black" stroke-width="1.2" stroke-linecap="round"/>
<path d="M12 5.75V2.75" stroke="black" stroke-width="1.2" stroke-linecap="round"/>
<path d="M9.10046 12.8049L7.98323 13.4796C7.9504 13.4958 7.91993 13.5023 7.89182 13.4993C7.86391 13.496 7.83673 13.4863 7.81026 13.4703C7.78358 13.4539 7.76348 13.4307 7.74993 13.4008C7.73639 13.3708 7.73516 13.3381 7.74624 13.3026L8.04355 12.0376L7.0602 11.1851C7.0325 11.1625 7.01424 11.1355 7.00542 11.1041C6.9966 11.0727 6.99855 11.0427 7.01127 11.014C7.02399 10.9852 7.04092 10.9616 7.06205 10.9432C7.08339 10.9253 7.11212 10.9132 7.14823 10.9069L8.44582 10.7936L8.95181 9.59572C8.96576 9.56186 8.98587 9.53745 9.01213 9.52247C9.03839 9.50749 9.06784 9.5 9.10046 9.5C9.13309 9.5 9.16263 9.50749 9.1891 9.52247C9.21557 9.53745 9.23558 9.56186 9.24912 9.59572L9.75511 10.7936L11.0524 10.9069C11.0887 10.913 11.1175 10.9252 11.1389 10.9435C11.1602 10.9615 11.1772 10.985 11.19 11.014C11.2025 11.0427 11.2043 11.0727 11.1955 11.1041C11.1867 11.1355 11.1684 11.1625 11.1407 11.1851L10.1574 12.0376L10.4547 13.3026C10.4662 13.3377 10.465 13.3703 10.4513 13.4005C10.4376 13.4306 10.4173 13.4538 10.3907 13.47C10.3644 13.4864 10.3372 13.4962 10.3091 13.4993C10.2812 13.5023 10.2508 13.4958 10.218 13.4796L9.10046 12.8049Z" fill="black"/>
</svg>
