<svg width="24" height="24" viewBox="0 0 24 24" fill="none" xmlns="http://www.w3.org/2000/svg">
<path d="M14.8911 17.3559C13.9837 17.7516 13.0113 18 12 18C9.81991 18 7.82086 16.8458 6.26343 15.5498C5.13291 14.6091 4.56765 14.1387 4.31236 12.6978C4.25727 12.3869 4.25727 11.6131 4.31236 11.3022C4.56765 9.86127 5.13291 9.39091 6.26343 8.45018C7.82086 7.15422 9.81991 6 12 6C14.5102 6 16.7804 7.53026 18.4128 9.04516C18.8077 9.41161 19.0051 9.59483 19.3351 10.2954C19.6978 11.0653 19.6977 12.9349 19.3351 13.7047C19.005 14.4053 18.8074 14.5886 18.4123 14.9553V14.9553C18.3539 15.0095 18.2947 15.0637 18.2347 15.1179" stroke="#2E2E2E" stroke-width="1.5" stroke-linecap="round"/>
<circle cx="12" cy="12" r="3" stroke="#2E2E2E" stroke-width="1.5"/>
<path d="M19 5L5 19" stroke="#2E2E2E" stroke-width="1.5" stroke-linecap="round" stroke-linejoin="round"/>
</svg>
