<svg width="18" height="18" viewBox="0 0 18 18" fill="none" xmlns="http://www.w3.org/2000/svg">
<path d="M11.1683 13.0169C10.4878 13.3137 9.7585 13.5 9 13.5C7.36493 13.5 5.86565 12.6343 4.69758 11.6624C3.84968 10.9568 3.42574 10.604 3.23427 9.52337C3.19295 9.29017 3.19295 8.70983 3.23427 8.47663C3.42574 7.39595 3.84968 7.04318 4.69757 6.33764C5.86565 5.36567 7.36493 4.5 9 4.5C10.8827 4.5 12.5853 5.64769 13.8096 6.78387C14.1058 7.05871 14.2538 7.19613 14.5014 7.72158C14.7733 8.29897 14.7733 9.70116 14.5013 10.2785C14.2538 10.804 14.1056 10.9415 13.8092 11.2165V11.2165C13.7654 11.2571 13.721 11.2978 13.676 11.3384" stroke="black" stroke-width="1.125" stroke-linecap="round"/>
<circle cx="9" cy="9" r="2.25" stroke="black" stroke-width="1.125"/>
</svg>
