<svg width="83" height="83" viewBox="0 0 83 83" fill="none" xmlns="http://www.w3.org/2000/svg">
<rect x="0.25" y="0.25" width="82.5" height="82.5" rx="11.75" fill="#1877F2"/>
<rect x="0.25" y="0.25" width="82.5" height="82.5" rx="11.75" stroke="#ACACAC" stroke-width="0.5"/>
<path d="M38.5 44H36.5C35.9477 44 35.5 43.5523 35.5 43V41C35.5 40.4477 35.9477 40 36.5 40H37.5C38.0523 40 38.5 39.5523 38.5 39V37C38.5 35.6739 39.0268 34.4021 39.9645 33.4645C40.9021 32.5268 42.1739 32 43.5 32H45.5C46.0523 32 46.5 32.4477 46.5 33V35C46.5 35.5523 46.0523 36 45.5 36H43.5C43.2348 36 42.9804 36.1054 42.7929 36.2929C42.6054 36.4804 42.5 36.7348 42.5 37V39C42.5 39.5523 42.9477 40 43.5 40H45.2192C45.8698 40 46.3472 40.6114 46.1894 41.2425L45.6894 43.2425C45.5781 43.6877 45.1781 44 44.7192 44H43.5C42.9477 44 42.5 44.4477 42.5 45V51C42.5 51.5523 42.0523 52 41.5 52H39.5C38.9477 52 38.5 51.5523 38.5 51V48" stroke="white" stroke-width="1.5" stroke-linecap="round" stroke-linejoin="round"/>
</svg>
