<svg width="21" height="20" viewBox="0 0 21 20" fill="none" xmlns="http://www.w3.org/2000/svg">
<path d="M18 9.10205V6.5968C18 4.79426 16.5067 3.33301 14.7042 3.33301V3.33301C13.8254 3.33301 12.9728 3.69901 12.375 4.34311V4.34311C11.7772 4.9872 10.9381 5.35321 10.0594 5.35321H8.65657C7.11464 5.35321 6.34367 5.35321 5.72176 5.56295C4.53812 5.96212 3.60891 6.89133 3.20974 8.07497C3 8.69688 3 9.46785 3 11.0098V11.0098C3 12.5517 3 13.3227 3.20974 13.9446C3.60891 15.1282 4.53812 16.0574 5.72176 16.4566C6.34367 16.6663 7.11464 16.6663 8.65657 16.6663H13.769C13.9835 16.6663 14.0907 16.6663 14.1813 16.6622C16.248 16.5684 17.9021 14.9143 17.9959 12.8477C18 12.7571 18 12.6498 18 12.4354V12.4354" stroke="#2E2E2E" stroke-width="1.5" stroke-linecap="round" stroke-linejoin="round"/>
</svg>
