<svg width="24" height="24" viewBox="0 0 24 24" fill="none" xmlns="http://www.w3.org/2000/svg">
<path fill-rule="evenodd" clip-rule="evenodd" d="M19.6201 3.14844L19.7657 3.15723C20.1032 3.1918 20.4225 3.3373 20.669 3.5752C20.7802 3.68267 20.8319 3.79922 20.8487 3.83789C20.872 3.89165 20.8871 3.94156 20.8965 3.97559C20.9156 4.04448 20.9295 4.11626 20.9395 4.17773C20.9601 4.30437 20.9779 4.46158 20.9932 4.62793C21.0242 4.96481 21.0504 5.39573 21.0723 5.81836C21.1161 6.66416 21.1425 7.51932 21.1446 7.62695C21.1481 7.81889 21.0771 7.99319 20.961 8.12793C21.0049 8.22329 21.0313 8.32856 21.0313 8.44043V19.8984C21.0313 20.3079 20.9156 20.732 20.67 21.0732C20.4218 21.4179 20.0235 21.6904 19.5313 21.6904H4.53128C4.03909 21.6904 3.64075 21.4179 3.39261 21.0732C3.14694 20.732 3.03128 20.3079 3.03128 19.8984V17.0342C3.03128 16.62 3.36707 16.2842 3.78128 16.2842C4.19549 16.2842 4.53128 16.62 4.53128 17.0342V19.8984C4.53128 20.0356 4.57089 20.1386 4.6055 20.1904H19.4571C19.4917 20.1386 19.5313 20.0356 19.5313 19.8984V9.19043H4.53128V14.1699C4.5311 14.584 4.19539 14.9199 3.78128 14.9199C3.36718 14.9199 3.03146 14.584 3.03128 14.1699V8.44043C3.03128 8.23606 3.11355 8.05129 3.24612 7.91602C3.11587 7.78253 3.0333 7.60154 3.03128 7.40039L3.00198 4.48145V4.47949C3.00071 4.28161 3.03937 4.08484 3.11624 3.90234L3.18069 3.76855C3.25155 3.63894 3.34195 3.52085 3.44827 3.41797L3.5596 3.32031C3.67512 3.22907 3.8043 3.15603 3.94144 3.10254C4.07851 3.04914 4.22245 3.01544 4.36819 3.00391L4.51468 3L19.6201 3.14844ZM4.53128 7.38574C4.53236 7.49393 4.51011 7.59712 4.46976 7.69043H19.6475C19.6467 7.67856 19.6458 7.66632 19.6455 7.6543C19.6438 7.56424 19.6174 6.7273 19.5742 5.89551C19.5526 5.47863 19.5273 5.07209 19.4991 4.76562C19.4951 4.72288 19.4882 4.68329 19.4844 4.64648L4.50296 4.49902L4.53128 7.38574Z" fill="black"/>
<path d="M6 3.94043L12 7.94043" stroke="black" stroke-linecap="round" stroke-linejoin="round"/>
<path d="M13 3.94043L20 7.94043" stroke="black" stroke-linecap="round" stroke-linejoin="round"/>
<path d="M12.5 16.293L12 16.5817C11.217 17.0338 10.8255 17.2598 10.5118 17.1579C10.4131 17.1258 10.3222 17.0733 10.2451 17.0039C10 16.7832 10 16.3311 10 15.427V14.2723C10 13.3682 10 12.9161 10.2451 12.6954C10.3222 12.626 10.4131 12.5735 10.5118 12.5414C10.8255 12.4395 11.217 12.6655 12 13.1176L14.375 14.4888C14.6528 14.6492 14.6528 15.0501 14.375 15.2105L13.75 15.5713" stroke="black" stroke-width="1.2" stroke-linecap="round" stroke-linejoin="round"/>
</svg>
