<svg width="24" height="24" viewBox="0 0 24 24" fill="none" xmlns="http://www.w3.org/2000/svg">
<path d="M19.375 9.33901L20.2942 8.55881C20.7419 8.17881 21 7.62124 21 7.03401V5C21 3.89543 20.1046 3 19 3H5C3.89543 3 3 3.89543 3 5V7.03401C3 7.62124 3.25808 8.17881 3.70579 8.55881L8.79421 12.8777C9.24192 13.2577 9.5 13.8153 9.5 14.4025V19.4657C9.5 21.0207 11.1967 21.9809 12.5298 21.1803L13.5298 20.5796C14.1317 20.2181 14.5 19.5673 14.5 18.8651V14.4025C14.5 13.8153 14.7581 13.2577 15.2058 12.8777L16.125 12.0975" stroke="#2E2E2E" stroke-width="1.5" stroke-linecap="round" stroke-linejoin="round"/>
</svg>
