<svg width="24" height="24" viewBox="0 0 24 24" fill="none" xmlns="http://www.w3.org/2000/svg">
<path d="M20.1571 5.55777C19.3056 4.31731 18.2042 3.2887 16.9439 2.52452C14.582 1.09234 11.6619 0.58892 8.78307 1.3603C8.48241 1.44086 8.1883 1.53369 7.90115 1.63811M20.1571 5.55777L16.6913 5.64581M20.1571 5.55777L20.152 1.74304M2.81884 17.407C3.76045 18.7909 5.01223 19.9135 6.44896 20.7023C8.73768 21.959 11.4957 22.3688 14.2169 21.6397C19.5117 20.221 22.7712 14.9979 21.8425 9.69939M2.81884 17.407L2.84805 21.2569M2.81884 17.407L6.30884 17.3541M1.17302 13.3869C0.66307 10.6132 1.30377 7.85456 2.7864 5.64581C3.20492 5.02231 3.69053 4.44263 4.23628 3.91879" stroke="black" stroke-width="1.2" stroke-linecap="round" stroke-linejoin="round"/>
<circle cx="11.6523" cy="9" r="2" stroke="black"/>
<path d="M15.4023 15.2177C15.8762 14.9405 16.1523 14.6078 16.1523 14.25C16.1523 13.2835 14.1376 12.5 11.6523 12.5C9.16706 12.5 7.15234 13.2835 7.15234 14.25C7.15234 15.2165 9.16706 16 11.6523 16C12.0672 16 12.469 15.9782 12.8504 15.9373" stroke="black" stroke-linecap="round"/>
</svg>
