<svg width="60" height="40" viewBox="0 0 60 40" fill="none" xmlns="http://www.w3.org/2000/svg">
<rect x="0.5" y="0.5" width="59" height="39" stroke="white"/>
<path d="M13.3461 25V14.8182H19.8688V16.3643H15.1905V19.1286H19.4213V20.6747H15.1905V25H13.3461ZM21.5492 25V14.8182H25.3674C26.1496 14.8182 26.8058 14.9541 27.3361 15.2259C27.8697 15.4976 28.2724 15.8788 28.5442 16.3693C28.8193 16.8565 28.9569 17.425 28.9569 18.0746C28.9569 18.7275 28.8176 19.2943 28.5392 19.7749C28.2641 20.2521 27.8581 20.6217 27.3212 20.8835C26.7843 21.142 26.1247 21.2713 25.3425 21.2713H22.623V19.7401H25.0939C25.5513 19.7401 25.9258 19.6771 26.2175 19.5511C26.5092 19.4219 26.7246 19.2346 26.8638 18.9893C27.0063 18.7408 27.0776 18.4358 27.0776 18.0746C27.0776 17.7133 27.0063 17.4051 26.8638 17.1499C26.7213 16.8913 26.5042 16.6958 26.2125 16.5632C25.9209 16.4273 25.5447 16.3594 25.084 16.3594H23.3936V25H21.5492ZM26.8091 20.3864L29.3297 25H27.2715L24.7956 20.3864H26.8091ZM30.6547 25V14.8182H37.2768V16.3643H32.4991V19.1286H36.9338V20.6747H32.4991V23.4538H37.3166V25H30.6547ZM39.1586 25V14.8182H45.7807V16.3643H41.003V19.1286H45.4377V20.6747H41.003V23.4538H45.8205V25H39.1586Z" fill="white"/>
</svg>
