<svg width="24" height="24" viewBox="0 0 24 24" fill="none" xmlns="http://www.w3.org/2000/svg">
<path d="M12 21C4.8 15.4 9 6.66667 12 3M12 21C19.2 15 15 6.5 12 3M12 21C8.06846 21 4.72571 18.4791 3.5 14.9655M12 21C15.9315 21 19.2743 18.4791 20.5 14.9655M12 3C15.9315 3 19.2743 5.52092 20.5 9.03451M12 3C9.92877 3 9.02095 3.24697 7.5 4.42285M3.5 9.03451C3.17607 9.96308 3 10.961 3 12C3 13.039 3.17607 14.0369 3.5 14.9655M3.5 9.03451H20.5M3.5 9.03451C3.76329 8.27977 4.12426 7.57084 4.56777 6.92285M20.5 9.03451C20.8239 9.96308 21 10.961 21 12C21 13.039 20.8239 14.0369 20.5 14.9655M3.5 14.9655H20.5" stroke="#2E2E2E" stroke-width="1.5" stroke-linecap="round"/>
</svg>
