<svg width="18" height="18" viewBox="0 0 18 18" fill="none" xmlns="http://www.w3.org/2000/svg">
<path d="M2.25 4.44214V5.06179C2.25 5.63882 2.25 5.92734 2.30262 6.16636C2.49114 7.02266 3.15993 7.69145 4.01623 7.87997C4.25525 7.93259 4.54871 7.93259 5.13563 7.93259V7.93259C5.69497 7.93259 5.97464 7.93259 6.20272 7.88484C7.07735 7.7017 7.76072 7.01834 7.94385 6.1437C7.99161 5.91562 7.99161 5.64085 7.99161 5.0913V5.0913C7.99161 4.54175 7.99161 4.26697 7.94385 4.03889C7.76072 3.16425 7.07735 2.48089 6.20272 2.29776C5.97464 2.25 5.69986 2.25 5.15031 2.25H3.2828" stroke="white" stroke-width="1.2" stroke-linecap="round"/>
<rect x="2.25" y="10.0673" width="5.74161" height="5.68259" rx="2.25" stroke="white" stroke-width="1.2"/>
<path d="M15.7504 12.9087H12.8796M10.0088 12.9087H12.8796M12.8796 12.9087V15.75M12.8796 12.9087V10.0674" stroke="white" stroke-width="1.2" stroke-linecap="round"/>
<rect x="10.0088" y="2.25" width="5.74161" height="5.68259" rx="2.25" stroke="white" stroke-width="1.2"/>
</svg>
