<svg width="18" height="19" viewBox="0 0 18 19" fill="none" xmlns="http://www.w3.org/2000/svg">
<path d="M2.25 4.94214V5.56179C2.25 6.13882 2.25 6.42734 2.30262 6.66636C2.49114 7.52266 3.15993 8.19145 4.01623 8.37997C4.25525 8.43259 4.54871 8.43259 5.13563 8.43259V8.43259C5.69497 8.43259 5.97464 8.43259 6.20272 8.38484C7.07735 8.2017 7.76072 7.51834 7.94385 6.6437C7.99161 6.41562 7.99161 6.14085 7.99161 5.5913V5.5913C7.99161 5.04175 7.99161 4.76697 7.94385 4.53889C7.76072 3.66425 7.07735 2.98089 6.20272 2.79776C5.97464 2.75 5.69986 2.75 5.15031 2.75H3.2828" stroke="black" stroke-width="1.2" stroke-linecap="round"/>
<rect x="2.25" y="10.5674" width="5.74161" height="5.68259" rx="2.25" stroke="black" stroke-width="1.2"/>
<path d="M15.7494 13.4087H12.8786M10.0078 13.4087H12.8786M12.8786 13.4087V16.25M12.8786 13.4087V10.5674" stroke="black" stroke-width="1.2" stroke-linecap="round"/>
<rect x="10.0078" y="2.75" width="5.74161" height="5.68259" rx="2.25" stroke="black" stroke-width="1.2"/>
</svg>
