<svg width="24" height="24" viewBox="0 0 24 24" fill="none" xmlns="http://www.w3.org/2000/svg">
<path d="M3 5.92285V6.74905C3 7.51843 3 7.90312 3.07016 8.22182C3.32153 9.36355 4.21324 10.2553 5.35497 10.5066C5.67367 10.5768 6.06495 10.5768 6.84751 10.5768V10.5768C7.59329 10.5768 7.96618 10.5768 8.27029 10.5131C9.43647 10.2689 10.3476 9.35778 10.5918 8.1916C10.6555 7.88749 10.6555 7.52113 10.6555 6.78839V6.78839C10.6555 6.05566 10.6555 5.68929 10.5918 5.38518C10.3476 4.21901 9.43647 3.30785 8.27029 3.06368C7.96618 3 7.59982 3 6.86709 3H4.65278" stroke="#2E2E2E" stroke-width="1.5" stroke-linecap="round"/>
<rect x="3" y="13.4229" width="7.65548" height="7.57679" rx="3" stroke="#2E2E2E" stroke-width="1.5"/>
<rect x="13.3438" y="13.4229" width="7.65548" height="7.57679" rx="3" stroke="#2E2E2E" stroke-width="1.5"/>
<rect x="13.3438" y="3" width="7.65548" height="7.57679" rx="3" stroke="#2E2E2E" stroke-width="1.5"/>
</svg>
