<svg width="24" height="24" viewBox="0 0 24 24" fill="none" xmlns="http://www.w3.org/2000/svg">
<rect x="3" y="3" width="7.57895" height="5" rx="2.5" stroke="black" stroke-width="1.5"/>
<path d="M3 14.4229V14.4229C3 14.0301 3 13.8338 3.01836 13.6686C3.17336 12.2741 4.27414 11.1734 5.66857 11.0184C5.83378 11 6.03013 11 6.42285 11H6.78947C7.52321 11 7.89008 11 8.19459 11.0638C9.3601 11.3082 10.2707 12.2188 10.5151 13.3844C10.5789 13.6889 10.5789 14.0557 10.5789 14.7895V17.2105C10.5789 17.9443 10.5789 18.3111 10.5151 18.6156C10.2707 19.7812 9.3601 20.6918 8.19459 20.9362C7.89008 21 7.52321 21 6.78947 21H4.78857C3.80077 21 3 20.1992 3 19.2114V19.2114V17.4229" stroke="black" stroke-width="1.5" stroke-linecap="round"/>
<rect x="13.4219" y="16" width="7.57895" height="5" rx="2.5" stroke="black" stroke-width="1.5"/>
<rect x="13.4219" y="3" width="7.57895" height="10" rx="3" stroke="black" stroke-width="1.5"/>
</svg>
