<svg width="24" height="24" viewBox="0 0 24 24" fill="none" xmlns="http://www.w3.org/2000/svg">
<path d="M3 13.9229V14.2229C3 17.2226 3 18.7225 3.76393 19.774C4.01065 20.1136 4.30928 20.4122 4.64886 20.6589C5.70032 21.4229 7.20021 21.4229 10.2 21.4229H13.8C16.7998 21.4229 18.2997 21.4229 19.3511 20.6589C19.6907 20.4122 19.9893 20.1136 20.2361 19.774C21 18.7225 21 17.2226 21 14.2229V10.6229C21 7.62307 21 6.12317 20.2361 5.07171C19.9893 4.73213 19.6907 4.4335 19.3511 4.18678C18.2997 3.42285 16.7998 3.42285 13.8 3.42285H10C7.19108 3.42285 5.78661 3.42285 4.77772 4.09697C4.34096 4.38881 3.96596 4.76381 3.67412 5.20057C3 6.20946 3 7.61393 3 10.4229V10.4229" stroke="black" stroke-width="1.5" stroke-linecap="round" stroke-linejoin="round"/>
<path d="M13.3848 9H14.4566C16.4135 9 17.9999 10.2536 17.9999 11.8C17.9999 13.5673 16.1869 15 13.9504 15H13.3848V9Z" stroke="black" stroke-width="1.5" stroke-linecap="round" stroke-linejoin="round"/>
<path d="M6 12V12M6 15V12M6 12H10.562M10.562 12V12M10.562 12V15" stroke="black" stroke-width="1.5" stroke-linecap="round" stroke-linejoin="round"/>
<path d="M6 12.4229L6 11.4939C6 9.79781 7.05749 8.42285 8.23533 8.42285C9.58143 8.42285 10.57 9.99423 10.57 11.9326L10.57 12.4229L6 12.4229Z" stroke="black" stroke-width="1.5" stroke-linecap="round" stroke-linejoin="round"/>
<rect x="6.75" y="12.8232" width="3.06" height="1" fill="#F9F9F9"/>
</svg>
