<svg width="24" height="24" viewBox="0 0 24 24" fill="none" xmlns="http://www.w3.org/2000/svg">
<path d="M14.1836 7.01113V4.13113C14.1836 3.73349 13.858 3.41113 13.4563 3.41113L10.5472 3.41113C10.1456 3.41113 9.81996 3.73349 9.81996 4.13113V7.01113C9.81996 7.40878 10.1456 7.73113 10.5472 7.73113L13.4563 7.73113C13.858 7.73113 14.1836 7.40878 14.1836 7.01113Z" stroke="black" stroke-width="1.5" stroke-linecap="round" stroke-linejoin="round"/>
<path d="M20 20.6914V16.3714C20 15.9737 19.6744 15.6514 19.2727 15.6514L14.9091 15.6514C14.5074 15.6514 14.1818 15.9737 14.1818 16.3714V20.6914C14.1818 21.089 14.5074 21.4114 14.9091 21.4114L19.2727 21.4114C19.6744 21.4114 20 21.089 20 20.6914Z" stroke="black" stroke-width="1.5" stroke-linecap="round" stroke-linejoin="round"/>
<path d="M3.99822 20.0061V20.6914C3.99822 21.089 4.32384 21.4114 4.7255 21.4114L9.08913 21.4114C9.4908 21.4114 9.81641 21.089 9.81641 20.6914V16.3714C9.81641 15.9737 9.4908 15.6514 9.08913 15.6514L4.7255 15.6514C4.32384 15.6514 3.99822 15.9737 3.99822 16.3714V17.1261" stroke="black" stroke-width="1.5" stroke-linecap="round" stroke-linejoin="round"/>
<path d="M12 7.73145V12.0514" stroke="black" stroke-width="1.5" stroke-linecap="round" stroke-linejoin="round"/>
<path d="M6.90803 15.6508V13.4908C6.90803 13.1089 7.06127 12.7426 7.33405 12.4725C7.60683 12.2025 7.9768 12.0508 8.36257 12.0508L15.6353 12.0508C16.0211 12.0508 16.391 12.2025 16.6638 12.4725C16.9366 12.7426 17.0898 13.1089 17.0898 13.4908V15.6508" stroke="black" stroke-width="1.5" stroke-linecap="round" stroke-linejoin="round"/>
</svg>
