<svg width="15" height="15" viewBox="0 0 15 15" fill="none" xmlns="http://www.w3.org/2000/svg">
<path d="M12.5625 4.52206V4.52206C13.0312 4.87125 13.2655 5.04585 13.4542 5.25021C13.837 5.66484 14.0951 6.17905 14.1989 6.73376C14.25 7.00717 14.25 7.29939 14.25 7.88383V8.85C14.25 11.0998 14.25 12.2248 13.6771 13.0134C13.492 13.268 13.268 13.492 13.0134 13.6771C12.2248 14.25 11.0998 14.25 8.85 14.25H6.15C3.90016 14.25 2.77524 14.25 1.98664 13.6771C1.73196 13.492 1.50799 13.268 1.32295 13.0134C0.75 12.2248 0.75 11.0998 0.75 8.85V8.49003C0.75 7.31035 0.75 6.72051 0.955385 6.19438C1.0231 6.02091 1.10683 5.85412 1.20547 5.69617C1.50465 5.21712 1.97764 4.8647 2.9236 4.15987L5.8125 2.00735C6.81381 1.26128 8.18619 1.26128 9.1875 2.00735V2.00735L10.0312 2.63603" stroke="black" stroke-width="1.2" stroke-linecap="round" stroke-linejoin="round"/>
<line x1="6.6" y1="10.65" x2="8.4" y2="10.65" stroke="black" stroke-width="1.2" stroke-linecap="round"/>
</svg>
