<svg width="24" height="24" viewBox="0 0 24 24" fill="none" xmlns="http://www.w3.org/2000/svg">
<path d="M20.4375 7.03676V7.03676C21.2186 7.61876 21.6091 7.90975 21.9236 8.25035C22.5617 8.9414 22.9918 9.79841 23.1648 10.7229C23.25 11.1786 23.25 11.6656 23.25 12.6397V14.25C23.25 17.9997 23.25 19.8746 22.2951 21.1889C21.9867 21.6134 21.6134 21.9867 21.1889 22.2951C19.8746 23.25 17.9997 23.25 14.25 23.25H9.75C6.00027 23.25 4.1254 23.25 2.81107 22.2951C2.3866 21.9867 2.01331 21.6134 1.70492 21.1889C0.75 19.8746 0.75 17.9997 0.75 14.25V13.6501C0.75 11.6839 0.75 10.7009 1.09231 9.82397C1.20517 9.53485 1.34471 9.25686 1.50912 8.99362C2.00776 8.1952 2.79606 7.60784 4.37267 6.43311L9.1875 2.84559C10.8563 1.60214 13.1437 1.60214 14.8125 2.84559V2.84559L16.2188 3.89338" stroke="black" stroke-width="1.4" stroke-linecap="round" stroke-linejoin="round"/>
<line x1="10.2" y1="17.55" x2="13.8" y2="17.55" stroke="black" stroke-width="1.4" stroke-linecap="round"/>
</svg>
