<svg width="24" height="24" viewBox="0 0 24 24" fill="none" xmlns="http://www.w3.org/2000/svg">
<path d="M4.36827 13.1764C2.62572 12.8083 2.51646 10.3314 4.21966 9.80756L16.7204 5.96284L18.0262 4.55339C19.0924 3.40262 21 4.16628 21 5.74389V17.2366C21 18.6265 19.4696 19.4557 18.3269 18.6848L16.7204 17.6011L10.2627 14.9835L6.9375 13.9802L4.36827 13.1764Z" fill="white"/>
<path d="M16.7204 5.96284L4.21966 9.80756C2.51646 10.3314 2.62572 12.8083 4.36827 13.1764L6.9375 13.9802M16.7204 5.96284L18.0262 4.55339C19.0924 3.40262 21 4.16628 21 5.74389V17.2366C21 18.6265 19.4696 19.4557 18.3269 18.6848L16.7204 17.6011M16.7204 5.96284V17.6011M16.7204 17.6011L10.2627 14.9835M10.2627 14.9835V18.3374C10.2627 19.2556 9.51832 20 8.6001 20V20C7.68187 20 6.9375 19.2556 6.9375 18.3374V13.9802M10.2627 14.9835L6.9375 13.9802" stroke="black" stroke-width="1.5" stroke-linejoin="round"/>
</svg>
