<?xml version="1.0" encoding="UTF-8"?>
<!DOCTYPE svg PUBLIC "-//W3C//DTD SVG 1.1//EN" "http://www.w3.org/Graphics/SVG/1.1/DTD/svg11.dtd">
<!-- Creator: CorelDRAW -->
<svg xmlns="http://www.w3.org/2000/svg" xml:space="preserve" width="43.18mm" height="43.18mm" version="1.1" style="shape-rendering:geometricPrecision; text-rendering:geometricPrecision; image-rendering:optimizeQuality; fill-rule:evenodd; clip-rule:evenodd"
viewBox="0 0 1494.06 1494.06"
 xmlns:xlink="http://www.w3.org/1999/xlink"
 xmlns:xodm="http://www.corel.com/coreldraw/odm/2003">
 <defs>
  <style type="text/css">
   <![CDATA[
    .fil1 {fill:black}
    .fil0 {fill:#FFCC00}
   ]]>
  </style>
 </defs>
 <g id="Layer_x0020_1">
  <metadata id="CorelCorpID_0Corel-Layer"/>
  <g id="_2319578733664">
   <rect class="fil0" x="0" y="0" width="1494.06" height="1494.06" rx="232.84" ry="232.84"/>
   <path class="fil1" d="M232.84 148.1l231.23 0 -315.97 228.06 0 -143.32c0,-46.61 38.13,-84.74 84.73,-84.74zm603.4 0l42.02 0 -178.62 100.35 0.46 -6.34 136.14 -94.01zm335.72 0l89.27 0c30.99,0 58.24,16.86 73.01,41.87l-307.33 139.95 3.91 -2.61 82.68 -82.61 -23.97 -27.97 13.84 -11.38 -4.9 -3.94 73.5 -53.31zm174 288.87l0 28.31 -67.35 54.38 67.35 -82.69zm0 113.92l0 7.75 -3.76 2.06 3.76 -9.82zm0 202.31l0 161.12 -13.92 7.67 -15.84 -14.28 2.55 -48.41 -164.34 134.98 -57.48 26.73 87.44 -70.13 -17.95 -11.78 179.55 -185.9zm0 268.4l0 239.62c0,46.6 -38.13,84.73 -84.73,84.73l-251.12 0 78.33 -33.07 156.18 -174.11 -4.12 0.82 105.47 -118zm-839.81 324.35l-82.02 0 172.17 -26.88 -90.16 26.88zm-271.13 0l-2.18 0c-28.29,0 -53.45,-14.06 -68.87,-35.52l104.91 10.32 -33.86 25.21zm-74.13 -40.12c-8.09,-12.98 -12.79,-28.27 -12.79,-44.61l0 -25.29 88.6 -51.3 -35.67 61.58 76.03 -54.29 10.07 15.1 87.73 -48.62 -21.53 50.68 -192.45 96.74zm-12.79 -236.9l0 -29.83 139.67 -130.55 26.38 -6.05 -157.55 133.7 44.16 -10.9 -52.65 43.63zm0 -237.54l0 -124.16 158.61 -131 -158.61 255.16zm0 -313.06l0 -59.99 53.41 -20.47 -53.41 80.46zm0 -67.08l0 -24.79 27.55 -8.23 -27.55 33.02zm729.49 734.31l-1.16 0.86 -70.47 20.87 0 19.75 42.16 -17.79 29.48 -23.69zm-166.03 97.51l-5.98 3.42 7.26 -2.17 -1.28 -1.25z"/>
   <path class="fil1" d="M806.84 416.66l238.41 -174.61 -46.37 46.32 -192.04 128.29zm-294.13 545.44l-67.4 158.66 173.77 -121.11 32.11 29.76 56 -4.72 -65.19 57.61 -6.68 -17.51 -117.95 127.91 -16.59 -1.62 -169.94 85.43 71.94 7.07 -25.54 19.01 235.56 -36.78 167.06 -118.92 -8.15 18.32 82.01 -24.29 181.43 -134.56 64.08 -51.39 -10.87 -7.14 199.22 -206.27 -34.79 13.86 93.17 -129.79 -122.23 45.56 -53.48 29.11 -49.16 1.48 96.57 -96.07 -58.95 -18.16 72.05 -88.46 -162.9 54.22 144.3 -136.85 -84.21 42.73 0.45 -0.71 -2.94 -4.1 100.64 -93.29 -5.06 -5.81 95.37 -75.21 -113.21 49.86 60.72 -52.88 -314.08 143.02 -186.71 133.34 61.32 -19.99 -365.79 284.55 44.62 -10.23 -151.73 128.76 49.69 -12.27 -231.77 192.09 113.05 -23.51 -14.1 15.59 105.87 -61.3 -13.69 23.64 152.09 -108.6zm343.6 -255.11l0.37 2.76 0.25 1.87 0.11 0.9 0.01 0.05c0.23,1.83 0.43,3.68 0.63,5.52l0.29 2.79 0.02 0.21 0.24 2.6 0.05 0.58 0.18 2.22c0.22,2.73 0.4,5.46 0.55,8.2l0.02 0.52c0.09,1.78 0.16,3.56 0.22,5.35l0.08 2.81 0 0.02 0.04 2.8 0.01 0.39 0.01 2.42 -0.01 2.56 0 0.42 -0.04 2.31 -0.01 0.58c-0.09,3.65 -0.26,7.3 -0.51,10.93l-0.22 2.78 -0.24 2.69 -0.01 0.1c-0.17,1.79 -0.38,3.56 -0.6,5.34l-0.03 0.28 -0.34 2.53 -0.03 0.2 -0.35 2.38 -0.13 0.86 -0.3 1.84 -0.19 1.07 -0.34 1.89 -0.52 2.7 0 0 -0.56 2.67 -0.08 0.36 -0.53 2.3 -0.06 0.24 -0.39 1.58 -0.31 1.22 -0.44 1.67 -0.28 1.02 -0.52 1.84 -0.22 0.78 -0.55 1.81 -0.1 0.32 -0.66 2.07 -0.17 0.51 -0.82 2.39 -0.06 0.16 -0.93 2.54 -0.06 0.17 -0.91 2.34 -0.2 0.51 -0.37 0.87 -0.64 1.54 -0.43 1.01 -0.77 1.73 -0.47 1.01 -0.72 1.53 -0.52 1.08 -0.88 1.74 -0.43 0.84c-0.79,1.51 -1.61,3.01 -2.47,4.48l-0.34 0.6 0 0.01 -1.38 2.31 -0.19 0.31 -1.25 1.97 -0.14 0.21 -0.95 1.43 -0.63 0.92 -0.92 1.32 -0.8 1.12 -0.88 1.21 -1.09 1.43 -0.56 0.71 -1.07 1.34 -1.01 1.24 -0.03 0.05 -1.67 1.96 -1.97 2.2 -0.13 0.14 -0.53 0.56 -1.46 1.54 -0.91 0.91 -1.18 1.18 -0.86 0.83 -1.49 1.4 -0.89 0.81 -1.08 0.96 -1.43 1.24 -0.82 0.69 -1.4 1.15 -1.28 1.02 -1.18 0.93 -2.44 1.83 -1.05 -0.67 -0.86 -0.56 -0.18 -0.12 -1.04 -0.68 -0.67 -0.45 -0.36 -0.24 -1.03 -0.7 -0.49 -0.33 -0.54 -0.37 -1.02 -0.71 -0.3 -0.21 -0.72 -0.51 -1.02 -0.72 -0.13 -0.09 -0.88 -0.64 -0.95 -0.7 -0.05 -0.04 -1.01 -0.75 -0.78 -0.58 -0.23 -0.17 -0.99 -0.76 -0.59 -0.46 -0.4 -0.31 -0.99 -0.77 -0.42 -0.33 -0.56 -0.45 -0.97 -0.79 -0.25 -0.19 -0.73 -0.6 -0.97 -0.8 -0.07 -0.06 -0.89 -0.75 -0.86 -0.73 -0.1 -0.08 -0.95 -0.82 -0.69 -0.59 -0.26 -0.23 -0.95 -0.83 -0.51 -0.45 -0.43 -0.38 -0.93 -0.84 -0.35 -0.31 -0.58 -0.53 -0.92 -0.85 -0.18 -0.17 -0.74 -0.7 -0.91 -0.87 -0.02 -0.02 -0.89 -0.85 -0.76 -0.74 -0.14 -0.13 -0.89 -0.89 -0.6 -0.59 -0.29 -0.3 -0.88 -0.89 -0.44 -0.45 -0.45 -0.46 -0.87 -0.9 -0.28 -0.29 -0.59 -0.62 -0.86 -0.92 -0.12 -0.13 -0.74 -0.8 -0.82 -0.9 -0.03 -0.03 -1.5 -1.67 -0.01 -0.01 -0.17 -0.2 -0.84 -0.95 -0.51 -0.58 -0.31 -0.37 -0.82 -0.95 -0.36 -0.43 -0.46 -0.54 -0.81 -0.97 -0.21 -0.26 -0.58 -0.71 -0.8 -0.98 -0.07 -0.09 -0.72 -0.9 -0.71 -0.91 -0.07 -0.08 -0.78 -1 -0.57 -0.74 -0.2 -0.26 -0.77 -1.01 -0.42 -0.56 -0.33 -0.45 -0.75 -1.01 -0.29 -0.39 -0.45 -0.63 -0.74 -1.02 -0.16 -0.22 -0.57 -0.81 -0.72 -1.03 -0.02 -0.04 -0.69 -1 -0.61 -0.9 -0.1 -0.15c-12.38,-18.42 -21.5,-39.1 -26.22,-61.25 -62.43,33.18 -131.3,113.42 -161.74,188.94l-0.36 0.9 -0.71 1.79 -0.35 0.89 -0.25 0.63 -0.1 0.27 -0.34 0.89 -1 2.69 -0.21 0.57 -0.11 0.32 -1.27 3.57 -0.18 0.52 -0.12 0.37 -1.17 3.47 -0.02 0.08 -0.16 0.46 -0.13 0.43 -1.11 3.53 -0.13 0.41 -0.14 0.47 -1.02 3.48 -0.01 0.03 -0.1 0.35 -0.15 0.52 -0.95 3.49 -0.08 0.31 -0.15 0.57 -0.22 0.87 -0.64 2.6 -0.06 0.26 -0.14 0.61 -0.78 3.45 -0.04 0.2 -0.83 4.08 -0.03 0.15 -0.02 0.13 -0.71 3.98 -0.02 0.1 -0.02 0.1c-0.21,1.27 -0.4,2.53 -0.58,3.79l-0.03 0.22 -0.01 0.05 -0.03 0.25c-0.18,1.3 -0.35,2.59 -0.5,3.88l77.98 -91.44c209.3,71.72 405.92,-36.09 373.89,-298.86l-8.56 4.54 -0 0 -138.62 73.56c1.5,7.53 2.82,15.26 3.9,23.09zm-193.63 -540.9l-168.84 32.47 -1.29 -9.21 -193.65 139.77 21.79 -6.51 -19.52 23.39 28.77 -11.03 -144.68 217.99 -41.64 79.74 33.22 -35.95 1.53 20.49 214.49 -177.15 -11.78 -10.57 33.74 -60.82 -1.83 25.91 56.91 -61.75 -24.04 10.77 160.8 -123.37 -22.11 -15.73 78.12 -38.44zm414.24 -10.95l-151.24 51.77 27.37 -22.93 -62.34 20.9 17.49 -16.12 -265.27 149.03 0.9 -12.39 -130.6 107.48 50.51 4.82 -218.85 172.04 -196.77 316.56 0 44.22 131.62 -123.03 -18.95 -7.2 121.29 -90.87 167.61 -95 -34.66 10.21 98.82 -102.46 141.95 -97.7 18.26 -53.24 249.87 -205.42 -8 -6.42 60.99 -44.23zm-321.05 1031.23l-121.88 83.33 121.88 -69.65 0 -13.67zm-270.9 -189.56l-181.74 144.02 136.63 -75.72 45.11 -68.3zm105.27 -750.96l-110.29 87.4 137.89 -95.22 -27.6 7.82zm-166.14 493.39l37.76 -6.33 -146.55 87.89 108.79 -81.56zm875.08 -368.93l-179.76 145.14 180.87 -127.28 -1.11 -17.87zm-19.13 212.59l-131.38 106.08 117.84 -70.72 13.54 -35.36zm-7.7 429.19l-101.64 130.4 131.04 -146.6 -29.4 16.2zm-545.59 320.37l82.13 -24.49 -19.88 -19.38 102.71 -43.34 71.91 -50.82 -25.14 6.48 100.7 -80.95 -10.95 -11.76 153.07 -71.15 81.45 -66.9 -1.08 20.52 34.96 -33.14 -154.21 200.58 -65.25 64.96 29.85 -5.92 -48.39 53.94 -160.67 67.84 -0.11 -9.33 -171.09 2.86z"/>
  </g>
 </g>
</svg>
