<svg width="24" height="24" viewBox="0 0 24 24" fill="none" xmlns="http://www.w3.org/2000/svg">
<g clip-path="url(#clip0_7933_14378)">
<path d="M20 11.875V14.8C20 17.7998 20 19.2997 19.2361 20.3511C18.9893 20.6907 18.6907 20.9893 18.3511 21.2361C17.2997 22 15.7998 22 12.8 22H9.2C6.20021 22 4.70032 22 3.64886 21.2361C3.30928 20.9893 3.01065 20.6907 2.76393 20.3511C2 19.2997 2 17.7998 2 14.8V13.5625M12.125 4H11H7.0625C6.07499 4 5.58124 4 5.17155 4.08673C3.62368 4.41442 2.41442 5.62368 2.08673 7.17155C2 7.58124 2 8.07499 2 9.0625V9.0625" stroke="black" style="stroke:black;stroke-opacity:1;" stroke-width="1.5" stroke-linecap="round"/>
<path d="M3 18L6.70116 16.1775C7.1974 15.9331 7.44553 15.8109 7.70519 15.7598C7.95163 15.7112 8.20501 15.7096 8.45207 15.7548C8.71238 15.8025 8.9621 15.9214 9.46154 16.1592V16.1592L11.3077 17.0796V17.0796C11.8435 17.3467 12.1114 17.4803 12.3792 17.5322C12.8449 17.6224 13.3276 17.5442 13.741 17.3114C13.9787 17.1775 14.1907 16.9662 14.6146 16.5434L15 16.1592" stroke="black" style="stroke:black;stroke-opacity:1;" stroke-width="1.5" stroke-linecap="round" stroke-linejoin="round"/>
<circle cx="7.375" cy="9.375" r="2" stroke="black" style="stroke:black;stroke-opacity:1;" stroke-width="1.5"/>
<path d="M18.0293 3.75388L13.3702 8.41297C12.7134 9.06985 12.3849 9.39829 12.1435 9.78459C12.0223 9.97843 11.918 10.1823 11.8317 10.394C11.6596 10.8158 11.5853 11.2752 11.4366 12.194V12.194C11.401 12.4138 11.3832 12.5236 11.4262 12.5999C11.4482 12.639 11.4803 12.6714 11.5192 12.6938C11.595 12.7375 11.7049 12.7208 11.9245 12.6873V12.6873C12.8445 12.5472 13.3046 12.4772 13.7284 12.3088C13.9518 12.2201 14.1668 12.1113 14.3707 11.9839C14.7575 11.7423 15.0866 11.4133 15.7447 10.7552L20.3712 6.1287M18.0293 3.75388L18.429 3.35423C19.0802 2.70299 20.1361 2.70299 20.7873 3.35423V3.35423C21.4385 4.00546 21.4385 5.06133 20.7873 5.71256L20.3712 6.1287M18.0293 3.75388L20.3712 6.1287" stroke="black" style="stroke:black;stroke-opacity:1;" stroke-width="1.5" stroke-linejoin="round"/>
</g>
<defs>
<clipPath id="clip0_7933_14378">
<rect width="24" height="24" fill="white" style="fill:white;fill-opacity:1;"/>
</clipPath>
</defs>
</svg>
