<svg width="24" height="24" viewBox="0 0 24 24" fill="none" xmlns="http://www.w3.org/2000/svg">
<path d="M19 12V13.8C19 16.7998 19 18.2996 18.2361 19.3511C17.9893 19.6907 17.6907 19.9893 17.3511 20.236C16.2997 21 14.7998 21 11.8 21H10.2C7.20021 21 5.70032 21 4.64886 20.236C4.30928 19.9893 4.01065 19.6907 3.76393 19.3511C3 18.2996 3 16.7998 3 13.8V13.5M12 4.99997H11H7.5C7.03566 4.99997 6.80349 4.99997 6.60793 5.01923C4.70882 5.20628 3.20631 6.70879 3.01926 8.6079C3 8.80346 3 9.03563 3 9.49997" stroke="black" stroke-width="1.5" stroke-linecap="round"/>
<path d="M16.4202 4.89354L10.5858 10.7279C9.8616 11.4521 9.49949 11.8142 9.24308 12.2465C9.15802 12.3898 9.08202 12.5384 9.0155 12.6912C8.81497 13.1521 8.73315 13.6576 8.5695 14.6686L8.49898 15.1043C8.45921 15.35 8.43933 15.4728 8.49452 15.5548C8.51209 15.5809 8.53443 15.6035 8.56037 15.6213C8.64183 15.6772 8.76487 15.6585 9.01094 15.621L9.43324 15.5567C10.4617 15.4001 10.976 15.3218 11.4449 15.1209C11.6004 15.0543 11.7516 14.9778 11.8974 14.892C12.3372 14.6334 12.705 14.2656 13.4406 13.5299L19.2288 7.74174M16.4202 4.89354L16.8995 4.41423C17.6805 3.63318 18.9469 3.63318 19.7279 4.41422C20.509 5.19527 20.509 6.4616 19.7279 7.24265L19.2288 7.74174M16.4202 4.89354L19.2288 7.74174" stroke="black" stroke-width="1.5" stroke-linejoin="round"/>
</svg>
