<svg width="82" height="83" viewBox="0 0 82 83" fill="none" xmlns="http://www.w3.org/2000/svg">
<rect x="0.25" y="0.25" width="81.5" height="82.5" rx="11.75" fill="#F6F6F6"/>
<rect x="0.25" y="0.25" width="81.5" height="82.5" rx="11.75" fill="url(#paint0_radial_575_906)"/>
<rect x="0.25" y="0.25" width="81.5" height="82.5" rx="11.75" fill="url(#paint1_radial_575_906)"/>
<rect x="0.25" y="0.25" width="81.5" height="82.5" rx="11.75" stroke="#ACACAC" stroke-width="0.5"/>
<path d="M32 43.4229V44.2229C32 47.2226 32 48.7225 32.7639 49.774C33.0107 50.1136 33.3093 50.4122 33.6489 50.6589C34.7003 51.4229 36.2002 51.4229 39.2 51.4229H42.8C45.7998 51.4229 47.2997 51.4229 48.3511 50.6589C48.6907 50.4122 48.9893 50.1136 49.2361 49.774C50 48.7225 50 47.2226 50 44.2229V40.6229C50 37.6231 50 36.1232 49.2361 35.0717C48.9893 34.7321 48.6907 34.4335 48.3511 34.1868C47.2997 33.4229 45.7998 33.4229 42.8 33.4229H38C36.1362 33.4229 35.2044 33.4229 34.4693 33.7273C33.4892 34.1333 32.7105 34.912 32.3045 35.8921C32 36.6272 32 37.5591 32 39.4229V39.4229" stroke="white" stroke-width="1.5" stroke-linecap="round"/>
<circle cx="41" cy="42" r="4" stroke="white" stroke-width="1.5"/>
<circle cx="46" cy="37" r="1" fill="white"/>
<defs>
<radialGradient id="paint0_radial_575_906" cx="0" cy="0" r="1" gradientUnits="userSpaceOnUse" gradientTransform="translate(-13.7353 5.97892) rotate(78.8139) scale(36.7533 149.811)">
<stop stop-color="#3771C8"/>
<stop offset="0.128" stop-color="#3771C8"/>
<stop offset="1" stop-color="#6600FF" stop-opacity="0"/>
</radialGradient>
<radialGradient id="paint1_radial_575_906" cx="0" cy="0" r="1" gradientUnits="userSpaceOnUse" gradientTransform="translate(21.7812 89.3926) rotate(-90) scale(82.2592 75.5857)">
<stop stop-color="#FFDD55"/>
<stop offset="0.1" stop-color="#FFDD55"/>
<stop offset="0.5" stop-color="#FF543E"/>
<stop offset="1" stop-color="#C837AB"/>
</radialGradient>
</defs>
</svg>
