<svg width="20" height="20" viewBox="0 0 20 20" fill="none" xmlns="http://www.w3.org/2000/svg">
<path fill-rule="evenodd" clip-rule="evenodd" d="M7.5026 4.16683C7.5026 3.70659 7.8757 3.3335 8.33594 3.3335H15.8359C16.2962 3.3335 16.6693 3.70659 16.6693 4.16683C16.6693 4.62707 16.2962 5.00016 15.8359 5.00016H12.6986L9.05276 15.0002H11.6693C12.1295 15.0002 12.5026 15.3733 12.5026 15.8335C12.5026 16.2937 12.1295 16.6668 11.6693 16.6668H4.16927C3.70903 16.6668 3.33594 16.2937 3.33594 15.8335C3.33594 15.3733 3.70903 15.0002 4.16927 15.0002H7.30661L10.9524 5.00016H8.33594C7.8757 5.00016 7.5026 4.62707 7.5026 4.16683Z" fill="black"/>
</svg>
