<svg width="18" height="19" viewBox="0 0 18 19" fill="none" xmlns="http://www.w3.org/2000/svg">
<path d="M2.7002 9.3873V10.1748C2.7002 12.7028 2.7002 13.9669 3.30691 14.8749C3.56956 15.2679 3.90706 15.6054 4.30014 15.8681C5.20815 16.4748 6.47216 16.4748 9.00019 16.4748H11.2502C11.6681 16.4748 11.8771 16.4748 12.0531 16.4575C13.7623 16.2891 15.1145 14.9369 15.2829 13.2277C15.3002 13.0517 15.3002 12.8427 15.3002 12.4248V11.2998C15.3002 11.2998 15.3002 11.2998 15.3002 11.2998C15.3002 6.32924 11.2708 2.29981 6.3002 2.2998C6.3002 2.2998 6.28674 2.2998 6.25984 2.2998V2.2998C4.30268 2.2998 2.7002 3.8864 2.7002 5.84355V5.84355" stroke="black" stroke-width="1.2" stroke-linecap="round"/>
<path d="M5.84961 7.02441H9.78711" stroke="black" stroke-width="1.2" stroke-linecap="round"/>
<path d="M5.84961 10.1748H12.1496" stroke="black" stroke-width="1.2" stroke-linecap="round"/>
</svg>
