<svg width="24" height="24" viewBox="0 0 24 24" fill="none" xmlns="http://www.w3.org/2000/svg">
<path d="M5.27881 10.7999L8.15881 7.67986L10.5588 7.19986L12.7188 7.67986L15.4788 7.19986L19.0788 3.35986" stroke="black"/>
<circle cx="4.19916" cy="11.3998" r="1.56" fill="black"/>
<circle cx="9.47894" cy="6.60004" r="1.56" fill="black"/>
<circle cx="14.52" cy="7.56" r="1.56" fill="black"/>
<circle cx="20.039" cy="2.51996" r="1.56" fill="black"/>
<mask id="path-6-inside-1_4522_14483" fill="white">
<rect width="4.08" height="10.56" rx="0.96" transform="matrix(1 -8.74228e-08 -8.74228e-08 -1 7.19873 22.6396)"/>
</mask>
<rect width="4.08" height="10.56" rx="0.96" transform="matrix(1 -8.74228e-08 -8.74228e-08 -1 7.19873 22.6396)" stroke="black" stroke-width="2.4" mask="url(#path-6-inside-1_4522_14483)"/>
<mask id="path-7-inside-2_4522_14483" fill="white">
<rect width="4.08" height="8.88" rx="0.96" transform="matrix(1 -8.74228e-08 -8.74228e-08 -1 12.48 22.6396)"/>
</mask>
<rect width="4.08" height="8.88" rx="0.96" transform="matrix(1 -8.74228e-08 -8.74228e-08 -1 12.48 22.6396)" stroke="black" stroke-width="2.4" mask="url(#path-7-inside-2_4522_14483)"/>
<path d="M18.7192 22.04L20.8794 22.04C21.0774 22.04 21.2397 21.8782 21.2397 21.6787L21.2397 8.96094C21.2397 8.76142 21.0774 8.59967 20.8794 8.59961L18.7192 8.59961C18.5204 8.59963 18.3589 8.76115 18.3589 8.95996L18.3589 21.6797C18.3589 21.8785 18.5204 22.04 18.7192 22.04Z" stroke="black" stroke-width="1.2"/>
<path d="M2 22H22.9986" stroke="black" stroke-width="1.5" stroke-linecap="round" stroke-linejoin="round"/>
<path d="M5.04004 16.3994L5.1377 16.4043C5.58978 16.45 5.94932 16.8097 5.99512 17.2617L6 17.3594V21.6797C5.99998 22.1769 5.62195 22.5858 5.1377 22.6348L5.04004 22.6396H2.87988C2.34972 22.6396 1.91994 22.2099 1.91992 21.6797V19.6229C1.91992 19.5124 2.00946 19.4229 2.11992 19.4229H2.92012C3.03057 19.4229 3.12012 19.5124 3.12012 19.6229V21.2395C3.12012 21.3499 3.20966 21.4395 3.32012 21.4395H4.5998C4.71026 21.4395 4.7998 21.3499 4.7998 21.2395V17.7996C4.7998 17.6892 4.71026 17.5996 4.5998 17.5996H3.32012C3.20966 17.5996 3.12012 17.6892 3.12012 17.7996V18.2229C3.12012 18.3333 3.03057 18.4229 2.92012 18.4229H2.11992C2.00946 18.4229 1.91992 18.3333 1.91992 18.2229V17.3594L1.9248 17.2617C1.97061 16.8096 2.33011 16.45 2.78223 16.4043L2.87988 16.3994H5.04004Z" fill="black"/>
</svg>
