<svg width="24" height="24" viewBox="0 0 24 24" fill="none" xmlns="http://www.w3.org/2000/svg">
<g clip-path="url(#clip0_4243_7897)">
<path d="M7 8H13" stroke="black" stroke-width="1.5" stroke-linecap="round" stroke-linejoin="round"/>
<path d="M7 11H13" stroke="black" stroke-width="1.5" stroke-linecap="round" stroke-linejoin="round"/>
<path d="M7 14H10" stroke="black" stroke-width="1.5" stroke-linecap="round" stroke-linejoin="round"/>
<path d="M14.6897 21.75H4.5C4.30109 21.75 4.11032 21.6638 3.96967 21.5104C3.82902 21.3569 3.75 21.1488 3.75 20.9318V16.8409V15.7955M20.25 11.2297C20.25 11.2297 20.25 8.90926 20.25 4.56818C20.25 4.35119 20.171 4.14308 20.0303 3.98964C19.8897 3.8362 19.6989 3.75 19.5 3.75H4.5C4.30109 3.75 4.11032 3.8362 3.96967 3.98964C3.82902 4.14308 3.75 4.35119 3.75 4.56818V12.75" stroke="black" stroke-width="1.5" stroke-linecap="round" stroke-linejoin="round"/>
<path d="M17.3335 17.3333L18.3335 18.3333L20.6668 16" stroke="black" stroke-width="1.06667" stroke-linecap="round" stroke-linejoin="round"/>
<path d="M19 21C21.2091 21 23 19.2091 23 17C23 14.7909 21.2091 13 19 13C16.7909 13 15 14.7909 15 17C15 19.2091 16.7909 21 19 21Z" stroke="black" stroke-width="1.06667" stroke-linecap="round" stroke-linejoin="round"/>
</g>
<defs>
<clipPath id="clip0_4243_7897">
<rect width="24" height="24" fill="white"/>
</clipPath>
</defs>
</svg>
