<svg width="20" height="20" viewBox="0 0 20 20" fill="none" xmlns="http://www.w3.org/2000/svg">
<path d="M3.71734 5.83345V3.01345L6.53734 4.42345L3.71734 5.83345ZM14.294 5.83345V3.01345L17.114 4.42345L14.294 5.83345ZM9.35818 5.12845V2.30762L12.179 3.71845L9.35818 5.12845ZM8.74901 17.741C7.78957 17.7021 6.92179 17.6204 6.14568 17.496C5.36957 17.3715 4.70345 17.2168 4.14734 17.0318C3.59123 16.8468 3.16151 16.6379 2.85818 16.4051C2.55484 16.1723 2.4029 15.9285 2.40234 15.6735V8.81428C2.40234 8.52039 2.59179 8.24817 2.97068 7.99762C3.34957 7.74706 3.87679 7.52845 4.55234 7.34178C5.2279 7.15512 6.02957 7.00678 6.95734 6.89678C7.88512 6.78678 8.89901 6.73151 9.99901 6.73095C11.099 6.73039 12.1129 6.78567 13.0407 6.89678C13.9685 7.00789 14.7704 7.15651 15.4465 7.34262C16.1226 7.52873 16.6496 7.74706 17.0273 7.99762C17.4051 8.24817 17.5943 8.52039 17.5948 8.81428V15.6726C17.5948 15.9282 17.4432 16.1726 17.1398 16.4059C16.8365 16.6393 16.4068 16.8482 15.8507 17.0326C15.2951 17.2171 14.629 17.3715 13.8523 17.496C13.0762 17.6204 12.2085 17.7021 11.249 17.741V14.4235H8.74901V17.741ZM9.99901 10.0643C11.3785 10.0643 12.6698 9.95512 13.8732 9.73678C15.0765 9.51845 15.9754 9.23012 16.5698 8.87178C16.3882 8.57789 15.7243 8.28651 14.5782 7.99762C13.4321 7.70873 11.9057 7.56428 9.99901 7.56428C8.09234 7.56428 6.56623 7.70873 5.42068 7.99762C4.27512 8.28651 3.61123 8.57817 3.42901 8.87262C4.02234 9.23039 4.85957 9.51845 5.94068 9.73678C7.02179 9.95512 8.37457 10.0643 9.99901 10.0643ZM7.91568 16.8468V13.5901H12.0823V16.8459C13.3968 16.7459 14.4535 16.5721 15.2523 16.3243C16.0512 16.0771 16.5546 15.8326 16.7623 15.591V9.70512C15.8485 10.1285 14.8312 10.4329 13.7107 10.6185C12.5901 10.804 11.3529 10.8971 9.99901 10.8976C8.64512 10.8982 7.4079 10.8051 6.28734 10.6185C5.16679 10.4329 4.14957 10.1285 3.23568 9.70512V15.5918C3.44345 15.8329 3.91484 16.0773 4.64984 16.3251C5.38484 16.5723 6.47345 16.7462 7.91568 16.8468Z" fill="black" stroke="black" stroke-width="0.416667"/>
</svg>
