<svg width="20" height="20" viewBox="0 0 20 20" fill="none" xmlns="http://www.w3.org/2000/svg">
<path d="M1 15V15C1 17.2091 2.79086 19 5 19H11.8C14.7998 19 16.2997 19 17.3511 18.2361C17.6907 17.9893 17.9893 17.6907 18.2361 17.3511C19 16.2997 19 14.7998 19 11.8V5.5M1 15V8.2C1 5.20021 1 3.70032 1.76393 2.64886C2.01065 2.30928 2.30928 2.01065 2.64886 1.76393C3.70032 1 5.20021 1 8.2 1H14.5C14.9643 1 15.1965 1 15.3921 1.01926C17.2912 1.20631 18.7937 2.70882 18.9807 4.60793C19 4.80349 19 5.03566 19 5.5V5.5M1 15L5.01418 12.4455C5.42946 12.1813 5.6371 12.0491 5.85277 11.9731C6.27339 11.8247 6.73152 11.8213 7.15434 11.9632C7.37114 12.036 7.58076 12.1649 8 12.4229V12.4229L10 13.7114V13.7114C10.4313 13.9893 10.6469 14.1282 10.8557 14.2047C11.5221 14.4485 12.2677 14.3211 12.8152 13.8698C12.9868 13.7284 13.1441 13.5257 13.4586 13.1204L14 12.4229M19 5.5L16.5 8.92285" stroke="black" stroke-width="1.5" stroke-linecap="round" stroke-linejoin="round"/>
<circle cx="6.375" cy="6.375" r="2" stroke="black" stroke-width="1.5"/>
</svg>
