<svg width="18" height="19" viewBox="0 0 18 19" fill="none" xmlns="http://www.w3.org/2000/svg">
<path d="M11.925 2.75L12.375 2.75V2.75C12.7233 2.75 12.8974 2.75 13.0441 2.76445C14.4684 2.90473 15.5953 4.03162 15.7356 5.45595C15.75 5.60262 15.75 5.77675 15.75 6.125L15.75 10.85C15.75 13.0998 15.75 14.2248 15.1771 15.0134C14.992 15.268 14.768 15.492 14.5134 15.6771C13.7248 16.25 12.5998 16.25 10.35 16.25L7.65 16.25C5.40016 16.25 4.27524 16.25 3.48664 15.6771C3.23196 15.492 3.00799 15.268 2.82295 15.0134C2.25 14.2248 2.25 13.0998 2.25 10.85L2.25 6.125C2.25 5.77675 2.25 5.60262 2.26445 5.45595C2.40473 4.03162 3.53162 2.90473 4.95595 2.76445C5.10262 2.75 5.27675 2.75 5.625 2.75V2.75L7.3125 2.75L8.15625 2.75" stroke="black" stroke-width="1.125" stroke-linecap="round"/>
<path d="M6 8H12" stroke="black" stroke-width="1.125" stroke-linecap="round"/>
<path d="M9 11H6" stroke="black" stroke-width="1.125" stroke-linecap="round"/>
</svg>
