<svg width="24" height="24" viewBox="0 0 24 24" fill="none" xmlns="http://www.w3.org/2000/svg">
<g clip-path="url(#clip0_4502_6479)">
<mask id="path-1-inside-1_4502_6479" fill="white">
<path d="M14.6406 0.827637C18.4464 0.827637 21.5312 3.91252 21.5312 7.71826C21.5312 10.3723 20.03 12.6735 17.8311 13.8247C18.2581 14.6013 18.5165 15.4667 18.5752 16.3647C18.6716 17.8416 18.2267 19.3043 17.3252 20.478C16.4236 21.6515 15.1255 22.457 13.6738 22.7446C12.297 23.0173 10.871 22.8057 9.63477 22.1509L7.66211 22.8101C7.4919 22.8668 7.30843 22.8747 7.13379 22.8335C6.95935 22.7922 6.79965 22.7034 6.67285 22.5767C6.54591 22.4497 6.45627 22.2895 6.41504 22.1147C6.37393 21.9402 6.38277 21.7575 6.43945 21.5874V21.5864L7.09863 19.6147C6.67485 18.8139 6.43796 17.9336 6.39746 17.0386C3.71906 16.4243 1.7207 14.0283 1.7207 11.1636C1.72083 7.83374 4.42017 5.13441 7.75 5.13428C7.916 5.13428 8.08055 5.1426 8.24316 5.15576C9.26009 2.6192 11.7407 0.827686 14.6406 0.827637ZM16.9102 14.2231C16.1992 14.4712 15.4362 14.6089 14.6406 14.6089C14.0224 14.6089 13.4236 14.5262 12.8535 14.3735C11.786 16.0672 9.89996 17.1929 7.75 17.1929C7.63493 17.1929 7.5207 17.1885 7.40723 17.1821C7.4689 17.9288 7.69513 18.6585 8.07617 19.3169C8.14778 19.4409 8.16256 19.5903 8.11719 19.7261L7.4082 21.8394L9.52637 21.1343L9.62988 21.1108C9.73464 21.0994 9.84176 21.1217 9.93457 21.1753C11.0055 21.795 12.2657 22.0045 13.4795 21.7642C14.6931 21.5236 15.7785 20.8498 16.5322 19.8687C17.2859 18.8873 17.6577 17.6649 17.5771 16.4302C17.526 15.6474 17.295 14.8933 16.9102 14.2231ZM15.2158 18.0894C15.4734 18.0895 15.6826 18.2985 15.6826 18.5562C15.6826 18.8137 15.4734 19.0228 15.2158 19.0229H11.4834C11.2257 19.0229 11.0166 18.8138 11.0166 18.5562C11.0166 18.2985 11.2257 18.0894 11.4834 18.0894H15.2158ZM15.2158 16.2231C15.4734 16.2232 15.6826 16.4323 15.6826 16.6899C15.6825 16.9475 15.4734 17.1566 15.2158 17.1567H11.4834C11.2258 17.1567 11.0167 16.9476 11.0166 16.6899C11.0166 16.4323 11.2257 16.2231 11.4834 16.2231H15.2158Z"/>
</mask>
<path d="M14.6406 0.827637V-0.172363H14.6406L14.6406 0.827637ZM21.5312 7.71826H22.5312V7.71826H21.5312ZM17.8311 13.8247L17.3672 12.9388L16.463 13.4122L16.9548 14.3066L17.8311 13.8247ZM18.5752 16.3647L19.5731 16.2996L19.5731 16.2995L18.5752 16.3647ZM17.3252 20.478L18.1182 21.0873L18.1183 21.0872L17.3252 20.478ZM13.6738 22.7446L13.8681 23.7256L13.8682 23.7256L13.6738 22.7446ZM9.63477 22.1509L10.1028 21.2672L9.72421 21.0666L9.31783 21.2024L9.63477 22.1509ZM7.66211 22.8101L7.97847 23.7587L7.97904 23.7585L7.66211 22.8101ZM7.13379 22.8335L6.90367 23.8067L6.90441 23.8068L7.13379 22.8335ZM6.67285 22.5767L5.96574 23.2838L5.96602 23.284L6.67285 22.5767ZM6.41504 22.1147L5.44168 22.344L5.44177 22.3444L6.41504 22.1147ZM6.43945 21.5874L7.38817 21.9035L7.43945 21.7496V21.5874H6.43945ZM6.43945 21.5864L5.49105 21.2694L5.43945 21.4237V21.5864H6.43945ZM7.09863 19.6147L8.04703 19.9318L8.18284 19.5256L7.98251 19.147L7.09863 19.6147ZM6.39746 17.0386L7.39644 16.9934L7.36207 16.2338L6.62099 16.0639L6.39746 17.0386ZM1.7207 11.1636L0.720703 11.1635V11.1636H1.7207ZM7.75 5.13428V4.13428H7.74996L7.75 5.13428ZM8.24316 5.15576L8.16249 6.1525L8.8971 6.21196L9.17135 5.52788L8.24316 5.15576ZM16.9102 14.2231L17.7774 13.7252L17.3642 13.0057L16.5808 13.2789L16.9102 14.2231ZM14.6406 14.6089L14.6406 15.6089H14.6406V14.6089ZM12.8535 14.3735L13.1123 13.4076L12.4005 13.2169L12.0075 13.8403L12.8535 14.3735ZM7.75 17.1929L7.74996 18.1929H7.75V17.1929ZM7.40723 17.1821L7.46324 16.1837L6.31604 16.1193L6.41062 17.2644L7.40723 17.1821ZM8.07617 19.3169L8.94211 18.8167L8.94167 18.816L8.07617 19.3169ZM8.11719 19.7261L9.06526 20.0441L9.06565 20.043L8.11719 19.7261ZM7.4082 21.8394L6.46013 21.5213L5.82279 23.421L7.72404 22.7882L7.4082 21.8394ZM9.52637 21.1343L9.30554 20.159L9.25738 20.1699L9.21053 20.1855L9.52637 21.1343ZM9.62988 21.1108L9.52164 20.1167L9.46481 20.1229L9.40906 20.1355L9.62988 21.1108ZM9.93457 21.1753L10.4355 20.3098L10.4348 20.3094L9.93457 21.1753ZM13.4795 21.7642L13.6738 22.7451L13.6739 22.7451L13.4795 21.7642ZM16.5322 19.8687L17.3252 20.4779L17.3253 20.4778L16.5322 19.8687ZM17.5771 16.4302L18.575 16.365L18.575 16.365L17.5771 16.4302ZM15.2158 18.0894L15.2162 17.0894H15.2158V18.0894ZM15.6826 18.5562L16.6826 18.5563V18.5562H15.6826ZM15.2158 19.0229V20.0229H15.2162L15.2158 19.0229ZM11.0166 18.5562H10.0166V18.5563L11.0166 18.5562ZM15.2158 16.2231L15.2162 15.2231H15.2158V16.2231ZM15.6826 16.6899L16.6826 16.6902V16.6899H15.6826ZM15.2158 17.1567V18.1567H15.2162L15.2158 17.1567ZM11.0166 16.6899H10.0166V16.6902L11.0166 16.6899ZM14.6406 0.827637V1.82764C17.8941 1.82764 20.5312 4.46481 20.5312 7.71826H21.5312H22.5312C22.5312 3.36024 18.9986 -0.172363 14.6406 -0.172363V0.827637ZM21.5312 7.71826H20.5312C20.5312 9.98514 19.2501 11.953 17.3672 12.9388L17.8311 13.8247L18.2949 14.7106C20.8098 13.394 22.5312 10.7595 22.5312 7.71826H21.5312ZM17.8311 13.8247L16.9548 14.3066C17.3128 14.9576 17.5284 15.6811 17.5773 16.43L18.5752 16.3647L19.5731 16.2995C19.5046 15.2523 19.2034 14.245 18.7073 13.3428L17.8311 13.8247ZM18.5752 16.3647L17.5773 16.4299C17.6579 17.6643 17.286 18.8874 16.5321 19.8689L17.3252 20.478L18.1183 21.0872C19.1674 19.7212 19.6853 18.019 19.5731 16.2996L18.5752 16.3647ZM17.3252 20.478L16.5322 19.8688C15.7786 20.8497 14.6933 21.5232 13.4794 21.7637L13.6738 22.7446L13.8682 23.7256C15.5576 23.3908 17.0686 22.4534 18.1182 21.0873L17.3252 20.478ZM13.6738 22.7446L13.4795 21.7637C12.3288 21.9916 11.1367 21.8148 10.1028 21.2672L9.63477 22.1509L9.16669 23.0346C10.6054 23.7966 12.2651 24.0431 13.8681 23.7256L13.6738 22.7446ZM9.63477 22.1509L9.31783 21.2024L7.34518 21.8616L7.66211 22.8101L7.97904 23.7585L9.9517 23.0993L9.63477 22.1509ZM7.66211 22.8101L7.34575 21.8614C7.34981 21.8601 7.35316 21.8596 7.35572 21.8595C7.35826 21.8594 7.3607 21.8596 7.36317 21.8602L7.13379 22.8335L6.90441 23.8068C7.25793 23.8901 7.63042 23.8748 7.97847 23.7587L7.66211 22.8101ZM7.13379 22.8335L7.36391 21.8603C7.36944 21.8616 7.37493 21.8645 7.37969 21.8693L6.67285 22.5767L5.96602 23.284C6.22437 23.5422 6.54926 23.7229 6.90367 23.8067L7.13379 22.8335ZM6.67285 22.5767L7.37996 21.8696C7.38363 21.8732 7.38664 21.878 7.3883 21.8851L6.41504 22.1147L5.44177 22.3444C5.5259 22.7009 5.70819 23.0262 5.96574 23.2838L6.67285 22.5767ZM6.41504 22.1147L7.3884 21.8855C7.39035 21.8937 7.38941 21.8998 7.38817 21.9035L6.43945 21.5874L5.49073 21.2713C5.37614 21.6152 5.35751 21.9867 5.44168 22.344L6.41504 22.1147ZM6.43945 21.5874H7.43945V21.5864H6.43945H5.43945V21.5874H6.43945ZM6.43945 21.5864L7.38785 21.9035L8.04703 19.9318L7.09863 19.6147L6.15023 19.2977L5.49105 21.2694L6.43945 21.5864ZM7.09863 19.6147L7.98251 19.147C7.62844 18.4779 7.43032 17.7421 7.39644 16.9934L6.39746 17.0386L5.39848 17.0838C5.4456 18.1251 5.72125 19.1499 6.21476 20.0825L7.09863 19.6147ZM6.39746 17.0386L6.62099 16.0639C4.38638 15.5514 2.7207 13.5514 2.7207 11.1636H1.7207H0.720703C0.720703 14.5052 3.05174 17.2973 6.17394 18.0133L6.39746 17.0386ZM1.7207 11.1636L2.7207 11.1636C2.72081 8.38604 4.97246 6.13438 7.75004 6.13428L7.75 5.13428L7.74996 4.13428C3.86788 4.13443 0.720853 7.28145 0.720703 11.1635L1.7207 11.1636ZM7.75 5.13428V6.13428C7.88293 6.13428 8.01979 6.14095 8.16249 6.1525L8.24316 5.15576L8.32383 4.15902C8.14131 4.14425 7.94908 4.13428 7.75 4.13428V5.13428ZM8.24316 5.15576L9.17135 5.52788C10.0415 3.35744 12.1633 1.82768 14.6406 1.82764L14.6406 0.827637L14.6406 -0.172363C11.3181 -0.172307 8.47868 1.88097 7.31498 4.78364L8.24316 5.15576ZM16.9102 14.2231L16.5808 13.2789C15.9717 13.4914 15.3198 13.6089 14.6406 13.6089V14.6089V15.6089C15.5525 15.6089 16.4267 15.4509 17.2395 15.1673L16.9102 14.2231ZM14.6406 14.6089L14.6406 13.6089C14.1119 13.6089 13.6001 13.5383 13.1123 13.4076L12.8535 14.3735L12.5948 15.3395C13.2471 15.5142 13.9328 15.6089 14.6406 15.6089L14.6406 14.6089ZM12.8535 14.3735L12.0075 13.8403C11.1153 15.256 9.54198 16.1929 7.75 16.1929V17.1929V18.1929C10.2579 18.1929 12.4568 16.8785 13.6995 14.9067L12.8535 14.3735ZM7.75 17.1929L7.75004 16.1929C7.65973 16.1929 7.56536 16.1894 7.46324 16.1837L7.40723 17.1821L7.35122 18.1806C7.47605 18.1876 7.61013 18.1929 7.74996 18.1929L7.75 17.1929ZM7.40723 17.1821L6.41062 17.2644C6.4844 18.1578 6.75506 19.0306 7.21067 19.8178L8.07617 19.3169L8.94167 18.816C8.6352 18.2864 8.45339 17.6998 8.40383 17.0998L7.40723 17.1821ZM8.07617 19.3169L7.21023 19.817C7.13781 19.6917 7.12387 19.5434 7.16872 19.4092L8.11719 19.7261L9.06565 20.043C9.20125 19.6371 9.15775 19.1901 8.94211 18.8167L8.07617 19.3169ZM8.11719 19.7261L7.16912 19.408L6.46013 21.5213L7.4082 21.8394L8.35627 22.1574L9.06526 20.0441L8.11719 19.7261ZM7.4082 21.8394L7.72404 22.7882L9.8422 22.0831L9.52637 21.1343L9.21053 20.1855L7.09237 20.8905L7.4082 21.8394ZM9.52637 21.1343L9.74719 22.1096L9.85071 22.0862L9.62988 21.1108L9.40906 20.1355L9.30554 20.159L9.52637 21.1343ZM9.62988 21.1108L9.73813 22.105C9.6319 22.1165 9.52583 22.094 9.43431 22.0412L9.93457 21.1753L10.4348 20.3094C10.1577 20.1493 9.83738 20.0823 9.52164 20.1167L9.62988 21.1108ZM9.93457 21.1753L9.43369 22.0408C10.7145 22.7821 12.2218 23.0326 13.6738 22.7451L13.4795 21.7642L13.2852 20.7832C12.3096 20.9764 11.2964 20.808 10.4355 20.3098L9.93457 21.1753ZM13.4795 21.7642L13.6739 22.7451C15.1255 22.4574 16.4236 21.6515 17.3252 20.4779L16.5322 19.8687L15.7392 19.2594C15.1333 20.0481 14.2607 20.5899 13.2851 20.7832L13.4795 21.7642ZM16.5322 19.8687L17.3253 20.4778C18.2266 19.3042 18.6715 17.8422 18.575 16.365L17.5771 16.4302L16.5793 16.4953C16.644 17.4876 16.3452 18.4704 15.7391 19.2595L16.5322 19.8687ZM17.5771 16.4302L18.575 16.365C18.5138 15.4282 18.2374 14.5263 17.7774 13.7252L16.9102 14.2231L16.0429 14.7211C16.3526 15.2603 16.5382 15.8666 16.5793 16.4954L17.5771 16.4302ZM15.2158 18.0894L15.2154 19.0894C14.9214 19.0892 14.6826 18.8512 14.6826 18.5562H15.6826H16.6826C16.6826 17.7459 16.0254 17.0897 15.2162 17.0894L15.2158 18.0894ZM15.6826 18.5562L14.6826 18.556C14.6827 18.2612 14.9213 18.0231 15.2154 18.0229L15.2158 19.0229L15.2162 20.0229C16.0255 20.0226 16.6825 19.3663 16.6826 18.5563L15.6826 18.5562ZM15.2158 19.0229V18.0229H11.4834V19.0229V20.0229H15.2158V19.0229ZM11.4834 19.0229V18.0229C11.7782 18.0229 12.0166 18.2616 12.0166 18.556L11.0166 18.5562L10.0166 18.5563C10.0167 19.366 10.6733 20.0229 11.4834 20.0229V19.0229ZM11.0166 18.5562H12.0166C12.0166 18.8508 11.778 19.0894 11.4834 19.0894V18.0894V17.0894C10.6734 17.0894 10.0166 17.7462 10.0166 18.5562H11.0166ZM11.4834 18.0894V19.0894H15.2158V18.0894V17.0894H11.4834V18.0894ZM15.2158 16.2231L15.2154 17.2231C14.9214 17.223 14.6826 16.985 14.6826 16.6899H15.6826H16.6826C16.6826 15.8796 16.0254 15.2235 15.2162 15.2231L15.2158 16.2231ZM15.6826 16.6899L14.6826 16.6896C14.6827 16.395 14.9211 16.1569 15.2154 16.1567L15.2158 17.1567L15.2162 18.1567C16.0256 18.1564 16.6824 17.4999 16.6826 16.6902L15.6826 16.6899ZM15.2158 17.1567V16.1567H11.4834V17.1567V18.1567H15.2158V17.1567ZM11.4834 17.1567V16.1567C11.7783 16.1567 12.0165 16.3955 12.0166 16.6896L11.0166 16.6899L10.0166 16.6902C10.0168 17.4996 10.6732 18.1567 11.4834 18.1567V17.1567ZM11.0166 16.6899H12.0166C12.0166 16.9845 11.778 17.2231 11.4834 17.2231V16.2231V15.2231C10.6734 15.2231 10.0166 15.88 10.0166 16.6899H11.0166ZM11.4834 16.2231V17.2231H15.2158V16.2231V15.2231H11.4834V16.2231Z" fill="black" mask="url(#path-1-inside-1_4502_6479)"/>
<circle cx="14.6399" cy="7.71853" r="6.3909" stroke="black"/>
<path d="M11.7326 7.05786H13.2304V10.3032H11.7326C11.6663 10.3032 11.6028 10.2769 11.556 10.2301C11.5092 10.1833 11.4829 10.1198 11.4829 10.0536V7.3075C11.4829 7.24129 11.5092 7.1778 11.556 7.13098C11.6028 7.08416 11.6663 7.05786 11.7326 7.05786Z" stroke="black" stroke-width="0.803938" stroke-linecap="round" stroke-linejoin="round"/>
<path d="M13.2305 7.05648L14.4787 4.56006C14.7435 4.56006 14.9975 4.66526 15.1848 4.85253C15.372 5.0398 15.4772 5.29379 15.4772 5.55863V6.30755H17.4744C17.5452 6.30757 17.6152 6.32266 17.6798 6.35181C17.7443 6.38097 17.8019 6.42352 17.8487 6.47664C17.8956 6.52977 17.9306 6.59225 17.9514 6.65994C17.9723 6.72763 17.9785 6.79898 17.9696 6.86925L17.5951 9.86495C17.5799 9.98558 17.5213 10.0965 17.4301 10.177C17.3389 10.2574 17.2215 10.3018 17.0999 10.3018H13.2305" stroke="black" stroke-width="0.803938" stroke-linecap="round" stroke-linejoin="round"/>
<path d="M7.35808 14.6093C7.35808 14.6093 4.3042 12.9649 4.3042 11.0268C4.3042 10.6063 4.47126 10.203 4.76863 9.90559C5.066 9.60822 5.46932 9.44116 5.88987 9.44116C6.55321 9.44116 7.12141 9.80264 7.35808 10.3808" stroke="black" stroke-width="0.803938" stroke-linecap="round" stroke-linejoin="round"/>
<path d="M7.35938 10.3809C7.56023 9.89023 7.99981 9.56839 8.53395 9.46826" stroke="black" stroke-width="0.803938" stroke-linecap="round" stroke-linejoin="round"/>
<path d="M8.53395 13.8311C8.16195 14.1189 7.76937 14.379 7.35938 14.6095" stroke="black" stroke-width="0.803938" stroke-linecap="round" stroke-linejoin="round"/>
</g>
<defs>
<clipPath id="clip0_4502_6479">
<rect width="24" height="24" fill="white"/>
</clipPath>
</defs>
</svg>
