<svg width="24" height="24" viewBox="0 0 24 24" fill="none" xmlns="http://www.w3.org/2000/svg">
<path d="M4.75852 6.65715C4.59758 6.87561 4.44662 7.1011 4.30609 7.33287C3.07821 9.35791 2.6466 11.8614 3.30794 14.3296C4.59442 19.1308 9.52945 21.9801 14.3306 20.6936C19.1318 19.4071 21.9811 14.4721 20.6946 9.67087C19.4081 4.86968 14.4731 2.02043 9.6719 3.30691C9.30708 3.40466 8.95352 3.52349 8.6122 3.66171" stroke="black" stroke-width="1.5" stroke-linecap="round" stroke-linejoin="round"/>
<path d="M8.61111 14.6794C7.8577 13.8049 7.5 13.0446 7.5 11.9444C7.5 9.48985 9.48985 7.5 11.9444 7.5C14.399 7.5 16.3889 9.48985 16.3889 11.9444C16.3889 14.3008 13.6654 16.3723 12.4824 17.1611C12.1544 17.3797 11.7341 17.3795 11.4062 17.1608C11.0785 16.9424 10.6327 16.6256 10.1594 16.2316" stroke="#2E2E2E" stroke-width="1.5" stroke-linecap="round" stroke-linejoin="round"/>
<circle cx="11.9451" cy="11.3885" r="1.11111" stroke="#2E2E2E"/>
<line x1="17.3536" y1="6.35355" x2="6.35355" y2="17.3536" stroke="black"/>
</svg>
