<svg width="18" height="19" viewBox="0 0 18 19" fill="none" xmlns="http://www.w3.org/2000/svg">
<path d="M4.89407 6.96875V6.96875C4.89407 6.76564 4.89407 6.66408 4.89776 6.57825C4.9869 4.50405 6.64812 2.84283 8.72231 2.75369C8.80815 2.75 8.90971 2.75 9.11282 2.75H9.57203H12.375C14.239 2.75 15.75 4.26104 15.75 6.125V6.125V6.74375M4.89407 6.96875V6.96875C3.43379 6.96875 2.25 8.15254 2.25 9.61282V11.6094C2.25 12.2044 2.25 12.5019 2.2816 12.7518C2.51064 14.563 3.93696 15.9894 5.74818 16.2184C5.99809 16.25 6.2956 16.25 6.89062 16.25H9C11.5713 16.25 12.8569 16.25 13.8064 15.6809C14.3706 15.3427 14.8427 14.8706 15.1809 14.3064C15.75 13.3569 15.75 12.0713 15.75 9.5V9.5M4.89407 6.96875V12.875" stroke="black" stroke-width="1.2" stroke-linecap="round" stroke-linejoin="round"/>
<path d="M11.5491 8.97204H9.07586C7.99843 8.97204 7.125 8.09861 7.125 7.02118C7.125 5.94374 7.99843 5.07031 9.07586 5.07031H11.5491C12.6266 5.07031 13.5 5.94374 13.5 7.02118C13.5 8.09861 12.6266 8.97204 11.5491 8.97204Z" fill="white" stroke="black" stroke-width="1.2" stroke-linejoin="round"/>
<path d="M10.8164 14.0342H13.5006" stroke="black" stroke-width="1.2" stroke-linecap="round"/>
<path d="M7.46094 14.1406H8.80304" stroke="black" stroke-width="1.2" stroke-linecap="round"/>
<path d="M7.46094 11.5029H13.5004" stroke="black" stroke-width="1.2" stroke-linecap="round"/>
</svg>
