<svg width="24" height="24" viewBox="0 0 24 24" fill="none" xmlns="http://www.w3.org/2000/svg">
<g clip-path="url(#clip0_4522_14358)">
<path d="M12.6167 19.3677C12.2723 19.7149 11.8477 19.9719 11.3804 20.1161C10.9131 20.2603 10.4175 20.2873 9.93735 20.1946C5.9436 19.4062 2.94173 15.7424 2.99985 11.5021C3.06454 6.85679 6.85579 3.06461 11.5011 3.00086C15.7414 2.94179 19.4014 5.94367 20.1936 9.93836C20.2863 10.4185 20.2593 10.9141 20.1151 11.3814C19.9709 11.8487 19.7139 12.2733 19.3667 12.6177L17.1561 14.8321L21.4395 17.8921C21.528 17.9555 21.6017 18.0373 21.6553 18.132C21.709 18.2267 21.7414 18.3319 21.7503 18.4404C21.7593 18.5489 21.7445 18.658 21.707 18.7602C21.6695 18.8623 21.6102 18.9551 21.5333 19.0321L19.0311 21.5305C18.9541 21.6075 18.8613 21.6668 18.7592 21.7042C18.657 21.7417 18.5479 21.7565 18.4394 21.7476C18.3309 21.7387 18.2257 21.7063 18.131 21.6526C18.0363 21.5989 17.9545 21.5253 17.8911 21.4368L14.832 17.1562L12.6167 19.3677Z" stroke="black" stroke-width="1.5" stroke-linecap="round" stroke-linejoin="round"/>
</g>
<defs>
<clipPath id="clip0_4522_14358">
<rect width="24" height="24" fill="white"/>
</clipPath>
</defs>
</svg>
