<svg width="24" height="24" viewBox="0 0 24 24" fill="none" xmlns="http://www.w3.org/2000/svg">
<path d="M8.81055 5.00551C9.52349 4.96403 10.2307 5.15773 10.8232 5.55629L11.6865 6.13637C11.6915 6.14078 11.699 6.14065 11.7039 6.13608C12.4373 5.44264 13.4018 5.04518 14.4111 5.02113C15.4245 4.99701 16.4108 5.3506 17.1777 6.01332L19.0166 7.60219C19.1648 7.72986 19.3541 7.80049 19.5498 7.80043H21.957C22.1734 7.80051 22.3811 7.88575 22.5342 8.03871C22.6873 8.19183 22.7734 8.40029 22.7734 8.61684V15.6286C22.7734 15.845 22.6872 16.0526 22.5342 16.2057C22.3811 16.3588 22.1735 16.4449 21.957 16.445H18.297C18.2283 16.445 18.165 16.4824 18.1318 16.5426C17.8946 16.9779 17.5311 17.3312 17.0889 17.5553C16.6464 17.7794 16.1458 17.8647 15.6543 17.7985C15.4358 17.769 15.2187 17.8613 15.0884 18.0391L14.7881 18.4489C14.4804 18.8698 14.046 19.1823 13.5488 19.3395C13.0518 19.4966 12.5171 19.4913 12.0234 19.3239L11.6063 19.1816C11.3662 19.0997 11.1016 19.1365 10.893 19.2808L10.4805 19.5661C9.98676 19.9071 9.38462 20.0553 8.78906 19.9821C8.19345 19.9088 7.64543 19.6191 7.24902 19.1686L7.19406 19.106C6.91574 18.7891 6.93122 18.3106 7.22944 18.0124L7.2523 17.9895C7.57898 17.6629 8.11368 17.68 8.41875 18.0269L8.47461 18.0905C8.60671 18.2408 8.78967 18.3375 8.98828 18.362C9.18696 18.3864 9.38806 18.3371 9.55273 18.2233L10.6348 17.4752C10.7397 17.4027 10.86 17.3551 10.9863 17.3375C11.1126 17.32 11.2416 17.3326 11.3623 17.3737L12.5488 17.776C12.7133 17.8316 12.8911 17.8342 13.0566 17.7819C13.2222 17.7294 13.3672 17.6253 13.4697 17.485L14.2686 16.3942C14.3553 16.2758 14.4725 16.1831 14.6074 16.1256C14.7425 16.0682 14.8907 16.0475 15.0361 16.067L15.873 16.1793C16.0367 16.2013 16.2033 16.1729 16.3506 16.0983C16.4979 16.0237 16.6191 15.9063 16.6982 15.7614L16.9766 15.2526L16.9912 15.2243L17.0186 15.1764C17.1042 15.0192 17.1357 14.8377 17.1084 14.6608C17.081 14.4839 16.9963 14.3209 16.8672 14.1969L14.4759 11.8977C14.1884 11.6212 13.7413 11.5988 13.4275 11.845L11.7109 13.192C10.754 13.9441 9.39152 13.8789 8.50977 13.0397L8.43555 12.9704C8.19934 12.7455 8.01043 12.4753 7.87988 12.1764C7.74935 11.8775 7.68024 11.5552 7.67578 11.2291C7.67137 10.9032 7.73125 10.5792 7.85352 10.277C7.97579 9.97482 8.15788 9.70055 8.3877 9.46938L10.0029 7.84461C10.2721 7.57374 10.2285 7.12474 9.91211 6.91078C9.61575 6.71157 9.26175 6.61455 8.90527 6.63539C8.54895 6.65626 8.20952 6.79377 7.93848 7.02602L5.81738 8.84242C5.37343 9.2226 4.80812 9.43237 4.22363 9.43227H3.43281C2.99098 9.43227 2.63281 9.79044 2.63281 10.2323V13.5639C2.63281 14.0057 2.99098 14.3639 3.43281 14.3639H4.08887C4.43676 14.3637 4.78057 14.4376 5.09766 14.5807C5.41491 14.7239 5.69867 14.9328 5.92871 15.194L6.69895 16.07C6.97754 16.3869 6.96217 16.8656 6.66383 17.1639L6.64017 17.1876C6.31353 17.5142 5.77891 17.4971 5.47381 17.1503L4.70215 16.2731C4.6255 16.1862 4.53139 16.1166 4.42578 16.069C4.32017 16.0213 4.20571 15.9967 4.08984 15.9967H1.81641C1.36584 15.9967 1.00017 15.6308 1 15.1803V8.61586C1 8.39931 1.08614 8.19086 1.23926 8.03773C1.39234 7.88476 1.59999 7.7985 1.81641 7.79848H4.22461C4.41935 7.79862 4.60784 7.7297 4.75586 7.60316L6.87598 5.78578C7.41828 5.32135 8.09775 5.04699 8.81055 5.00551ZM14.418 6.65492C13.7986 6.67836 13.2106 6.93615 12.7734 7.37563L9.5459 10.6198C9.46933 10.6969 9.40888 10.7886 9.36816 10.8893C9.32746 10.9901 9.30707 11.098 9.30859 11.2067C9.31013 11.3153 9.33345 11.4226 9.37695 11.5221C9.4205 11.6217 9.48374 11.7118 9.5625 11.7868L9.63672 11.8571C9.77882 11.9926 9.96499 12.0723 10.1611 12.0817C10.3571 12.091 10.5498 12.03 10.7041 11.9088L13.4932 9.71742L13.5586 9.66566L14.1094 9.23402C14.2664 9.11085 14.4639 9.04918 14.6631 9.06117C14.8621 9.07327 15.0504 9.15745 15.1914 9.29848C15.3324 9.43952 15.4166 9.62772 15.4287 9.8268C15.4489 10.1629 15.4406 10.5581 15.6833 10.7914L18.001 13.0192C18.2419 13.251 18.4324 13.5301 18.5615 13.8385C18.5861 13.8972 18.6083 13.9567 18.6282 14.0169C18.7681 14.4399 19.1159 14.8131 19.5614 14.8131H20.3406C20.7825 14.8131 21.1406 14.455 21.1406 14.0131V10.2323C21.1406 9.79044 20.7825 9.43227 20.3406 9.43227H19.5508C18.9625 9.43266 18.3935 9.22104 17.9482 8.83656L16.1113 7.24867C15.6423 6.84374 15.0372 6.63151 14.418 6.65492Z" fill="black"/>
</svg>
