<svg width="18" height="18" viewBox="0 0 18 18" fill="none" xmlns="http://www.w3.org/2000/svg">
<path d="M9.48675 4.52306L10.313 3.34309C11.0257 2.32518 12.4287 2.0778 13.4466 2.79055V2.79055C14.4645 3.5033 14.7119 4.90627 13.9992 5.92419L13.1729 7.10416M9.48675 4.52306L13.1729 7.10416M9.48675 4.52306L8.1723 6.40028M13.1729 7.10416L9.06084 12.9768C8.65958 13.5499 8.45895 13.8364 8.20867 14.063C7.93995 14.3063 7.62936 14.4989 7.29196 14.6314C6.97772 14.7549 6.63187 14.8072 5.94017 14.9118V14.9118C5.57383 14.9673 5.39066 14.995 5.23616 14.952C5.0709 14.9061 4.92638 14.8049 4.8267 14.6653C4.7335 14.5348 4.69689 14.3532 4.62368 13.99V13.99C4.48543 13.3042 4.41631 12.9614 4.42483 12.6238C4.43397 12.2615 4.50871 11.9037 4.64543 11.568C4.77277 11.2553 4.97339 10.9688 5.37465 10.3957L6.47176 8.8289" stroke="black" stroke-width="1.125" stroke-linecap="round" stroke-linejoin="round"/>
</svg>
