<svg width="24" height="24" viewBox="0 0 24 24" fill="none" xmlns="http://www.w3.org/2000/svg">
<circle cx="10.9426" cy="6.97186" r="3.84002" stroke="black" stroke-width="1.5"/>
<path d="M10.9438 12.9424C10.9757 12.9424 11.0075 12.9425 11.0393 12.9426C11.5843 12.9449 11.8701 13.5995 11.6003 14.0731C11.4736 14.2954 11.2398 14.4426 10.9839 14.4424C10.9705 14.4424 10.9572 14.4424 10.9438 14.4424C8.62712 14.4424 6.56372 14.8095 5.10693 15.376C4.37615 15.6602 3.83548 15.9799 3.49072 16.2969C3.14674 16.6132 3.0542 16.8696 3.0542 17.0527C3.05442 17.2358 3.14701 17.4926 3.49072 17.8086C3.8355 18.1254 4.37649 18.4454 5.10693 18.7295C6.56369 19.2959 8.62735 19.6621 10.9438 19.6621C11.1182 19.6621 11.2748 19.7642 11.3474 19.9227C11.387 20.009 11.4284 20.0942 11.4716 20.1784C11.6901 20.6042 11.4225 21.1621 10.9438 21.1621C8.48952 21.1621 6.23305 20.7763 4.56299 20.127C3.73051 19.8032 3.00471 19.3989 2.4751 18.9121C1.94514 18.4247 1.55443 17.797 1.5542 17.0527C1.5542 16.3081 1.94491 15.6799 2.4751 15.1924C3.00476 14.7054 3.7303 14.3014 4.56299 13.9775C6.23307 13.3281 8.48942 12.9424 10.9438 12.9424Z" fill="black"/>
<path d="M13.6621 18.1272V14.6027C13.6621 14.3942 13.8312 14.2251 14.0397 14.2251H22.3475C22.556 14.2251 22.7251 14.3942 22.7251 14.6027V20.6447C22.7251 20.8533 22.556 21.0223 22.3475 21.0223H14.0397C13.8312 21.0223 13.6621 20.8533 13.6621 20.6447V19.6377" stroke="black" stroke-width="1.1" stroke-linecap="round" stroke-linejoin="round"/>
<path d="M20.0809 14.2253V13.4701C20.0809 13.2698 20.0014 13.0777 19.8597 12.9361C19.7181 12.7944 19.526 12.7148 19.3257 12.7148H17.0599C16.8596 12.7148 16.6675 12.7944 16.5259 12.9361C16.3843 13.0777 16.3047 13.2698 16.3047 13.4701V14.2253" stroke="black" stroke-width="1.1" stroke-linecap="round" stroke-linejoin="round"/>
<path d="M22.7251 16.7891C21.348 17.5859 19.7846 18.0042 18.1936 18.0017C16.6027 18.0042 15.0393 17.5861 13.6621 16.7895" stroke="black" stroke-width="1.1" stroke-linecap="round" stroke-linejoin="round"/>
<path d="M17.437 16.4907H18.9475" stroke="black" stroke-width="1.1" stroke-linecap="round" stroke-linejoin="round"/>
</svg>
