<svg width="18" height="18" viewBox="0 0 18 18" fill="none" xmlns="http://www.w3.org/2000/svg">
<path d="M4.5 11.9747C3.31733 10.7894 2.25 9.7195 2.25 7.90149C2.25 6.74048 2.64577 5.58034 3.16009 4.56386C3.82245 3.25479 5.56515 3.16273 6.60255 4.20012L7.25385 4.85143C7.8501 5.44768 7.8501 6.41438 7.25385 7.01063V7.01063C6.6576 7.60687 6.6576 8.57358 7.25385 9.16983L9.25695 11.1729C9.8532 11.7692 10.8199 11.7692 11.4162 11.1729V11.1729C12.0124 10.5767 12.9791 10.5767 13.5754 11.1729L14.1378 11.7354C15.033 12.6305 15.0562 14.1165 13.9541 14.7393C12.8153 15.3828 11.4998 15.75 10.0985 15.75C8.70651 15.75 7.67606 15.1105 6.75 14.2673" stroke="black" stroke-width="1.2" stroke-linecap="round" stroke-linejoin="round"/>
</svg>
