<svg width="24" height="24" viewBox="0 0 24 24" fill="none" xmlns="http://www.w3.org/2000/svg">
<path d="M18 16.9229V16.9229C18 17.3872 18 17.6194 17.9807 17.8149C17.7937 19.714 16.2912 21.2165 14.3921 21.4036C14.1965 21.4229 13.9643 21.4229 13.5 21.4229H12C10.1362 21.4229 9.20435 21.4229 8.46927 21.1184C7.48915 20.7124 6.71046 19.9337 6.30448 18.9536C6 18.2185 6 17.2866 6 15.4229V9.42285C6 7.55909 6 6.6272 6.30448 5.89212C6.71046 4.91201 7.48915 4.13331 8.46927 3.72733C9.20435 3.42285 10.1362 3.42285 12 3.42285V3.42285C13.8638 3.42285 14.7956 3.42285 15.5307 3.72733C16.5108 4.13331 17.2895 4.91201 17.6955 5.89212C18 6.6272 18 7.55909 18 9.42285V12.4229" stroke="black" style="stroke:black;stroke-opacity:1;" stroke-width="1.5" stroke-linecap="round" stroke-linejoin="round"/>
<path d="M11 6H13" stroke="black" style="stroke:black;stroke-opacity:1;" stroke-width="1.5" stroke-linecap="round"/>
</svg>
