<svg width="18" height="19" viewBox="0 0 18 19" fill="none" xmlns="http://www.w3.org/2000/svg">
<path d="M12.75 2.75H8.55C6.55014 2.75 5.55021 2.75 4.84924 3.25929C4.62285 3.42377 4.42377 3.62285 4.25929 3.84924C3.75 4.55021 3.75 5.55014 3.75 7.55V12.0833C3.75 13.5561 4.94391 14.75 6.41667 14.75H10.95C12.9499 14.75 13.9498 14.75 14.6508 14.2407C14.8771 14.0762 15.0762 13.8771 15.2407 13.6508C15.75 12.9498 15.75 11.9499 15.75 9.95V5.75C15.75 4.09315 14.4069 2.75 12.75 2.75Z" fill="white" stroke="black" stroke-width="1.2" stroke-linecap="round" stroke-linejoin="round"/>
<path d="M11.25 4.25H7.05C5.05014 4.25 4.05021 4.25 3.34924 4.75929C3.12285 4.92377 2.92377 5.12285 2.75929 5.34924C2.25 6.05021 2.25 7.05014 2.25 9.05V13.5833C2.25 15.0561 3.44391 16.25 4.91667 16.25H9.45C11.4499 16.25 12.4498 16.25 13.1508 15.7407C13.3771 15.5762 13.5762 15.3771 13.7407 15.1508C14.25 14.4498 14.25 13.4499 14.25 11.45V7.25C14.25 6.94044 14.25 6.78566 14.2372 6.65529C14.1125 5.38922 13.1108 4.38754 11.8447 4.26284C11.7143 4.25 11.5596 4.25 11.25 4.25Z" fill="white"/>
<path d="M2.25 13.5833V13.5833C2.25 15.0561 3.44391 16.25 4.91667 16.25H9.45C11.4499 16.25 12.4498 16.25 13.1508 15.7407C13.3771 15.5762 13.5762 15.3771 13.7407 15.1508C14.25 14.4498 14.25 13.4499 14.25 11.45V7.25M2.25 13.5833V9.05C2.25 7.05014 2.25 6.05021 2.75929 5.34924C2.92377 5.12285 3.12285 4.92377 3.34924 4.75929C4.05021 4.25 5.05014 4.25 7.05 4.25H11.25C11.5596 4.25 11.7143 4.25 11.8447 4.26284C13.1108 4.38754 14.1125 5.38922 14.2372 6.65529C14.25 6.78566 14.25 6.94044 14.25 7.25V7.25M2.25 13.5833L4.92612 11.8803C5.20297 11.7042 5.3414 11.6161 5.48518 11.5654C5.76559 11.4665 6.07101 11.4642 6.35289 11.5588C6.49743 11.6073 6.63717 11.6933 6.91667 11.8652V11.8652L8.25 12.7243V12.7243C8.53751 12.9095 8.68127 13.0021 8.8205 13.0531C9.26471 13.2157 9.7618 13.1307 10.1268 12.8299C10.2412 12.7356 10.3461 12.6005 10.5558 12.3303L10.9167 11.8652M14.25 7.25L12.5833 9.5319" stroke="black" stroke-width="1.2" stroke-linecap="round" stroke-linejoin="round"/>
<circle cx="5.83333" cy="7.83333" r="1.33333" fill="white" stroke="black" stroke-width="1.2"/>
</svg>
