<svg width="18" height="19" viewBox="0 0 18 19" fill="none" xmlns="http://www.w3.org/2000/svg">
<path d="M12.375 2.75H9C6.4287 2.75 5.14305 2.75 4.19359 3.31909C3.62937 3.65726 3.15726 4.12937 2.81909 4.69359C2.25 5.64305 2.25 6.9287 2.25 9.5V13.25C2.25 14.9069 3.59315 16.25 5.25 16.25H9C11.5713 16.25 12.8569 16.25 13.8064 15.6809C14.3706 15.3427 14.8427 14.8706 15.1809 14.3064C15.75 13.3569 15.75 12.0713 15.75 9.5V6.125C15.75 4.26104 14.239 2.75 12.375 2.75Z" fill="white"/>
<path d="M2.25 13.25V13.25C2.25 14.9069 3.59315 16.25 5.25 16.25H9C11.5713 16.25 12.8569 16.25 13.8064 15.6809C14.3706 15.3427 14.8427 14.8706 15.1809 14.3064C15.75 13.3569 15.75 12.0713 15.75 9.5V6.125M2.25 13.25V9.5C2.25 6.9287 2.25 5.64305 2.81909 4.69359C3.15726 4.12937 3.62937 3.65726 4.19359 3.31909C5.14305 2.75 6.4287 2.75 9 2.75H12.375C14.239 2.75 15.75 4.26104 15.75 6.125V6.125M2.25 13.25L5.26064 11.3341C5.31708 11.2982 5.34531 11.2803 5.37196 11.2644C5.99197 10.8964 6.76211 10.8905 7.38763 11.2491C7.41452 11.2645 7.44301 11.2821 7.5 11.3171V11.3171L9 12.2836V12.2836C9.84885 12.8305 10.9749 12.6381 11.594 11.8403L12 11.3171M15.75 6.125L13.875 8.69214" stroke="black" stroke-width="1.2" stroke-linecap="round" stroke-linejoin="round"/>
<circle cx="6.28125" cy="6.78125" r="1.5" fill="white" stroke="black" stroke-width="1.2"/>
</svg>
