<svg width="24" height="24" viewBox="0 0 24 24" fill="none" xmlns="http://www.w3.org/2000/svg">
<path d="M7.43685 16.5632L9.09808 18.2244C10.482 19.6083 12.8521 18.8137 13.122 16.8751L13.3399 15.3105C13.4678 14.3917 14.1199 13.632 15.0086 13.3663L19.3073 12.0811C21.0267 11.5671 21.5735 9.40289 20.3045 8.13389L15.8661 3.69553C14.5971 2.42653 12.4329 2.97325 11.9189 4.69268L11.5976 5.76735M7.43685 16.5632L5.77562 14.9019C4.39166 13.518 5.18635 11.1479 7.12486 10.878L8.6895 10.6601C9.60826 10.5322 10.368 9.88011 10.6337 8.99135L10.7943 8.45402M7.43685 16.5632L3 21" stroke="black" stroke-width="1.5" stroke-linecap="round" stroke-linejoin="round"/>
</svg>
