<svg width="24" height="24" viewBox="0 0 24 24" fill="none" xmlns="http://www.w3.org/2000/svg">
<g clip-path="url(#clip0_4523_14580)">
<circle cx="12.0016" cy="7.19986" r="3.84" stroke="black" stroke-width="1.5"/>
<path d="M10.3618 13.1685C10.6275 13.1685 10.8906 13.175 11.1503 13.1877C11.6861 13.2141 11.9404 13.8553 11.6646 14.3154C11.5273 14.5442 11.2737 14.6941 11.0071 14.6825C10.7952 14.6732 10.5799 14.6685 10.3618 14.6685C8.4657 14.6685 6.78506 15.03 5.60693 15.5815C4.36875 16.1614 3.93701 16.814 3.93701 17.2788C3.93723 17.7436 4.36907 18.3954 5.60693 18.9751C6.78507 19.5267 8.46565 19.8882 10.3618 19.8882C10.6657 19.8882 10.9324 20.0899 11.0258 20.3791C11.0288 20.3886 11.0319 20.3981 11.035 20.4076C11.1861 20.8688 10.8868 21.3868 10.4015 21.3881C10.3883 21.3882 10.375 21.3882 10.3618 21.3882C8.29611 21.3882 6.38867 20.9977 4.97021 20.3335C3.61188 19.6973 2.43721 18.6695 2.43701 17.2788C2.43701 15.8879 3.61174 14.8594 4.97021 14.2231C6.38867 13.5589 8.29613 13.1685 10.3618 13.1685Z" fill="black"/>
<path d="M18.6996 13.916L18.9746 13.916C19.1874 13.916 19.2938 13.916 19.3835 13.9248C20.2539 14.0106 20.9426 14.6992 21.0283 15.5697C21.0371 15.6593 21.0371 15.7657 21.0371 15.9785L21.0371 18.866C21.0371 20.2409 21.0371 20.9284 20.687 21.4103C20.5739 21.5659 20.437 21.7028 20.2814 21.8159C19.7995 22.166 19.112 22.166 17.7371 22.166L16.0871 22.166C14.7122 22.166 14.0248 22.166 13.5428 21.8159C13.3872 21.7028 13.2503 21.5659 13.1372 21.4103C12.7871 20.9284 12.7871 20.2409 12.7871 18.866L12.7871 15.9785C12.7871 15.7657 12.7871 15.6593 12.7959 15.5697C12.8817 14.6992 13.5703 14.0106 14.4407 13.9248C14.5304 13.916 14.6368 13.916 14.8496 13.916L15.8809 13.916L16.3965 13.916" stroke="black" stroke-linecap="round"/>
<path d="M15.0786 17.1245H18.7453" stroke="black" stroke-linecap="round"/>
<path d="M16.9121 18.9575H15.0788" stroke="black" stroke-linecap="round"/>
</g>
<defs>
<clipPath id="clip0_4523_14580">
<rect width="24" height="24" fill="white"/>
</clipPath>
</defs>
</svg>
