<svg width="24" height="24" viewBox="0 0 24 24" fill="none" xmlns="http://www.w3.org/2000/svg">
<circle cx="11.0422" cy="7.26097" r="3.68968" stroke="black" stroke-width="1.5"/>
<path d="M11.042 12.9678C11.0626 12.9678 11.0833 12.9678 11.1039 12.9679C11.6472 12.9694 11.9317 13.6249 11.6644 14.0979C11.5387 14.3203 11.3057 14.4678 11.0502 14.4678C11.0475 14.4678 11.0447 14.4678 11.042 14.4678C8.81851 14.4678 6.83894 14.8196 5.44336 15.3623C4.74359 15.6345 4.22797 15.9401 3.90039 16.2412C3.57365 16.5417 3.49032 16.7813 3.49023 16.9463C3.49025 17.1112 3.57383 17.35 3.90039 17.6504C4.22793 17.9515 4.74345 18.258 5.44336 18.5303C6.83894 19.073 8.81851 19.4248 11.042 19.4248C11.2026 19.4248 11.3468 19.5198 11.4127 19.6663C11.4579 19.7668 11.5056 19.8658 11.5559 19.9633C11.7702 20.3791 11.5097 20.9248 11.042 20.9248C8.681 20.9248 6.50925 20.5533 4.90039 19.9277C4.09847 19.6158 3.39722 19.2261 2.88477 18.7549C2.37187 18.2831 1.99025 17.6725 1.99023 16.9463C1.99033 16.22 2.37181 15.6094 2.88477 15.1377C3.39726 14.6665 4.0984 14.2768 4.90039 13.9648C6.50925 13.3392 8.68098 12.9678 11.042 12.9678Z" fill="black"/>
<g clip-path="url(#clip0_4523_14550)">
<path d="M13.2437 16.343C13.2309 16.4577 13.2233 16.5728 13.2208 16.688C13.1992 17.6945 13.5724 18.7079 14.3405 19.476C15.8347 20.9702 18.2571 20.9702 19.7513 19.476C21.2454 17.9819 21.2454 15.5594 19.7513 14.0652C18.2571 12.5711 15.8347 12.5711 14.3405 14.0652C14.227 14.1788 14.1221 14.2977 14.0258 14.4211" stroke="black" stroke-width="1.20902" stroke-linecap="round" stroke-linejoin="round"/>
<path d="M17.0527 16.77V18.4705" stroke="black" stroke-width="0.850221" stroke-linecap="round"/>
<circle cx="17.0516" cy="15.4944" r="0.42511" fill="black"/>
</g>
<defs>
<clipPath id="clip0_4523_14550">
<rect width="10.2026" height="10.2026" fill="white" transform="translate(11.9458 11.6685)"/>
</clipPath>
</defs>
</svg>
