<svg width="18" height="19" viewBox="0 0 18 19" fill="none" xmlns="http://www.w3.org/2000/svg">
<path d="M2.32628 9.33451C2.27608 9.02209 2.25 8.70159 2.25 8.375C2.25 5.06113 4.93613 2.375 8.25 2.375C11.5639 2.375 14.25 5.06113 14.25 8.375L16.125 11.75L14.25 12.125V14.375H13.125L10.875 14L10.5 16.625H4.875L4.125 12.7321C3.77621 12.4019 3.46708 12.0303 3.20548 11.6251" stroke="black" stroke-width="1.125" stroke-linecap="round" stroke-linejoin="round"/>
<path d="M6.375 7.625C6.375 7.25416 6.48497 6.89165 6.69099 6.58331C6.89702 6.27496 7.18986 6.03464 7.53247 5.89273C7.87508 5.75081 8.25208 5.71368 8.61579 5.78603C8.97951 5.85838 9.3136 6.03695 9.57583 6.29918C9.83805 6.5614 10.0166 6.89549 10.089 7.25921C10.1613 7.62292 10.1242 7.99992 9.98227 8.34253C9.84036 8.68514 9.60004 8.97798 9.29169 9.18401C8.98335 9.39003 8.62084 9.5 8.25 9.5V10.625M8.25 12.875V13.25" stroke="black" stroke-width="1.125" stroke-linecap="round" stroke-linejoin="round"/>
</svg>
