<svg width="20" height="20" viewBox="0 0 20 20" fill="none" xmlns="http://www.w3.org/2000/svg">
<path d="M10 15C10.3315 15 10.6494 15.1318 10.8838 15.3662C11.1182 15.6006 11.25 15.9185 11.25 16.25C11.25 16.4972 11.1764 16.7388 11.0391 16.9443C10.9017 17.1499 10.7069 17.3107 10.4785 17.4053C10.2501 17.4999 9.99833 17.5238 9.75586 17.4756C9.51352 17.4273 9.29094 17.3085 9.11621 17.1338C8.94148 16.9591 8.82269 16.7365 8.77441 16.4941C8.72618 16.2517 8.75012 15.9999 8.84473 15.7715C8.93933 15.5431 9.10012 15.3483 9.30566 15.2109C9.51123 15.0736 9.75277 15 10 15ZM14.3655 7.5C14.7159 7.5 15.0054 7.78608 14.948 8.13179C14.6571 9.8847 13.1741 11.3042 11.244 11.7379C10.8955 11.8162 10.625 12.1113 10.625 12.4684V12.5C10.625 12.6658 10.5596 12.8252 10.4424 12.9424C10.3252 13.0596 10.1658 13.125 10 13.125C9.83424 13.125 9.67483 13.0596 9.55762 12.9424C9.44041 12.8252 9.375 12.6658 9.375 12.5V11.25C9.375 11.0842 9.44041 10.9248 9.55762 10.8076C9.67483 10.6904 9.83424 10.625 10 10.625C12.0035 10.625 13.6448 9.30943 13.7451 7.66016C13.7478 7.57093 13.821 7.5 13.9102 7.5H14.3655ZM10 3.125C12.1081 3.125 13.9151 4.27257 14.649 5.89128C14.8227 6.27434 14.5095 6.66699 14.0889 6.66699C13.8055 6.66699 13.5603 6.48151 13.4267 6.23161C12.842 5.13865 11.5263 4.375 10 4.375C7.93203 4.375 6.25 5.77656 6.25 7.5C6.25 7.66576 6.18459 7.82517 6.06738 7.94238C5.95017 8.05959 5.79076 8.125 5.625 8.125C5.45924 8.125 5.29983 8.05959 5.18262 7.94238C5.06541 7.82517 5 7.66576 5 7.5C5 5.0875 7.24297 3.125 10 3.125Z" fill="black"/>
</svg>
