<svg width="18" height="19" viewBox="0 0 18 19" fill="none" xmlns="http://www.w3.org/2000/svg">
<path d="M6.75017 14.375C6.75017 13.4075 6.14267 12.5667 5.40017 11.9472C4.51179 11.2074 3.87298 10.2117 3.57069 9.09578C3.26839 7.97986 3.31729 6.7979 3.71073 5.71077C4.10418 4.62363 4.82305 3.68414 5.76951 3.02016C6.71597 2.35618 7.84403 1.99997 9.00017 2C9.64258 2.00008 10.2763 2.11016 10.875 2.3219M6.75017 14.375H11.2502M6.75017 14.375V15.875C6.75017 16.1734 6.8687 16.4595 7.07968 16.6705C7.29065 16.8815 7.5768 17 7.87517 17H10.1252C10.4235 17 10.7097 16.8815 10.9207 16.6705C11.1316 16.4595 11.2502 16.1734 11.2502 15.875V14.375M11.2502 14.375C11.2502 13.4075 11.8577 12.5668 12.6002 11.9465C13.4883 11.2065 14.1268 10.2109 14.4289 9.09515C14.731 7.97936 14.6821 6.7976 14.2887 5.71064C14.059 5.07618 13.7186 4.49201 13.2867 3.98355" stroke="black" stroke-width="1.125" stroke-linecap="round" stroke-linejoin="round"/>
<path d="M7.5 6.5C7.5 5.74025 8.17125 5 9 5C9.82875 5 10.5 5.615 10.5 6.37475C10.5 6.6485 10.413 6.9035 10.2622 7.118C9.81375 7.757 9 8.366 9 9.125M8.994 11H9.00075" stroke="black" stroke-width="1.125" stroke-linecap="round" stroke-linejoin="round"/>
</svg>
