<svg width="24" height="24" viewBox="0 0 24 24" fill="none" xmlns="http://www.w3.org/2000/svg">
<path d="M3 16.2519V12H6.49624C7.42621 12 7.8912 12 8.2727 12.1022C9.30797 12.3796 10.1166 13.1883 10.394 14.2235C10.4962 14.605 10.4962 15.07 10.4962 16V16.2519C10.4962 16.9471 10.4962 17.2947 10.4389 17.5838C10.2025 18.7751 9.2713 19.7063 8.08006 19.9426C7.79097 20 7.44335 20 6.74812 20C6.05289 20 5.70527 20 5.41618 19.9426C4.22494 19.7063 3.2937 18.7751 3.05736 17.5838C3 17.2947 3 16.9471 3 16.2519Z" fill="white"/>
<path d="M10.4962 4C3.62469 5.33333 3 12 3 12M3 12V16.2519C3 16.9471 3 17.2947 3.05736 17.5838C3.2937 18.7751 4.22493 19.7063 5.41618 19.9426C5.70527 20 6.05289 20 6.74812 20V20C7.44335 20 7.79097 20 8.08006 19.9426C9.2713 19.7063 10.2025 18.7751 10.4389 17.5838C10.4962 17.2947 10.4962 16.9471 10.4962 16.2519V16C10.4962 15.07 10.4962 14.605 10.394 14.2235C10.1166 13.1883 9.30797 12.3796 8.2727 12.1022C7.8912 12 7.42621 12 6.49624 12H3Z" stroke="black" stroke-width="1.5" stroke-linecap="round"/>
<path d="M13.5039 16.2519V12H17.0001C17.9301 12 18.3951 12 18.7766 12.1022C19.8119 12.3796 20.6205 13.1883 20.8979 14.2235C21.0001 14.605 21.0001 15.07 21.0001 16V16.2519C21.0001 16.9471 21.0001 17.2947 20.9428 17.5838C20.7064 18.7751 19.7752 19.7063 18.584 19.9426C18.2949 20 17.9473 20 17.252 20C16.5568 20 16.2092 20 15.9201 19.9426C14.7288 19.7063 13.7976 18.7751 13.5613 17.5838C13.5039 17.2947 13.5039 16.9471 13.5039 16.2519Z" fill="white"/>
<path d="M21.0001 4C20.1903 4.15715 19.4672 4.38837 18.8216 4.67404M13.5039 12V16.2519C13.5039 16.9471 13.5039 17.2947 13.5613 17.5838C13.7976 18.7751 14.7288 19.7063 15.9201 19.9426C16.2092 20 16.5568 20 17.252 20V20C17.9473 20 18.2949 20 18.584 19.9426C19.7752 19.7063 20.7064 18.7751 20.9428 17.5838C21.0001 17.2947 21.0001 16.9471 21.0001 16.2519V16C21.0001 15.07 21.0001 14.605 20.8979 14.2235C20.6205 13.1883 19.8119 12.3796 18.7766 12.1022C18.3951 12 17.9301 12 17.0001 12H13.5039ZM13.5039 12C13.5039 12 13.7073 9.82916 15.1588 7.71724C15.4024 7.36282 15.6812 7.01006 16 6.66949" stroke="black" stroke-width="1.5" stroke-linecap="round"/>
</svg>
