<svg width="24" height="24" viewBox="0 0 24 24" fill="none" xmlns="http://www.w3.org/2000/svg">
<path d="M19.0356 6.38694C18.8662 6.17493 18.6875 5.97076 18.5 5.77503C16.8618 4.06486 14.5552 3 12 3C7.02944 3 3 7.02944 3 12C3 16.9706 7.02944 21 12 21C16.9706 21 21 16.9706 21 12C21 11.6223 20.9767 11.25 20.9316 10.8846" stroke="black" stroke-width="1.5" stroke-linecap="round" stroke-linejoin="round"/>
<path d="M8.5 12.5L10.1818 14.1818C10.3144 14.3144 10.3807 14.3807 10.4609 14.3934C10.4868 14.3975 10.5132 14.3975 10.5391 14.3934C10.6193 14.3807 10.6856 14.3144 10.8182 14.1818L15.5 9.5" stroke="black" stroke-width="1.5" stroke-linecap="round" stroke-linejoin="round"/>
</svg>
