<svg width="24" height="24" viewBox="0 0 24 24" fill="none" xmlns="http://www.w3.org/2000/svg">
<path d="M5.75 19.9165H3.25C3.08424 19.9165 2.92527 19.8507 2.80806 19.7334C2.69085 19.6162 2.625 19.4573 2.625 19.2915V16.1665C2.625 16.0007 2.69085 15.8418 2.80806 15.7246C2.92527 15.6074 3.08424 15.5415 3.25 15.5415H5.75" stroke="black" stroke-width="1.5" stroke-linecap="round" stroke-linejoin="round"/>
<path d="M10.75 16.1665H13.25L18.4844 14.9626C18.6768 14.9099 18.8788 14.9022 19.0747 14.9403C19.2706 14.9783 19.4551 15.061 19.6138 15.1819C19.7725 15.3028 19.9012 15.4588 19.9899 15.6375C20.0785 15.8163 20.1248 16.0131 20.125 16.2126C20.1251 16.4535 20.058 16.6897 19.9314 16.8947C19.8047 17.0996 19.6234 17.2651 19.4078 17.3728L16.375 18.6665L13.875 19.2915L11.375 19.9165H5.75V15.5415L7.70312 13.5884C7.8777 13.4144 8.08485 13.2766 8.31275 13.1827C8.54064 13.0889 8.78479 13.0409 9.03125 13.0415H12.9375C13.3519 13.0415 13.7493 13.2061 14.0424 13.4992C14.3354 13.7922 14.5 14.1896 14.5 14.604C14.5 15.0184 14.3354 15.4158 14.0424 15.7089C13.7493 16.0019 13.3519 16.1665 12.9375 16.1665H10.75Z" stroke="black" stroke-width="1.5" stroke-linecap="round" stroke-linejoin="round"/>
<path d="M17.7575 3.4012C17.6791 3.30305 17.5964 3.20852 17.5096 3.11791C16.7511 2.32616 15.6833 1.83317 14.5003 1.83317C12.1991 1.83317 10.3337 3.69865 10.3337 5.99984C10.3337 8.30102 12.1991 10.1665 14.5003 10.1665C16.8015 10.1665 18.667 8.30102 18.667 5.99984C18.667 5.82498 18.6562 5.65264 18.6353 5.48344" stroke="black" stroke-width="1.5" stroke-linecap="round" stroke-linejoin="round"/>
<path d="M12.8809 6.23264L13.5657 6.91751C13.6662 7.01794 13.7164 7.06816 13.7772 7.07778C13.7968 7.08089 13.8168 7.08089 13.8364 7.07778C13.8972 7.06816 13.9474 7.01794 14.0478 6.91751L16.1216 4.84375" stroke="black" stroke-width="1.5" stroke-linecap="round" stroke-linejoin="round"/>
</svg>
