<svg width="18" height="19" viewBox="0 0 18 19" fill="none" xmlns="http://www.w3.org/2000/svg">
<path d="M14.8456 7.625V7.54004V7.54004C14.8456 7.42763 14.8456 7.37143 14.8432 7.31888C14.8091 6.59054 14.4242 5.92387 13.8105 5.53019C13.7662 5.50179 13.7175 5.47368 13.6202 5.41748L11.025 3.91913C10.1488 3.41331 9.71079 3.16039 9.23516 3.1104C9.0788 3.09397 8.92114 3.09397 8.76478 3.1104C8.28915 3.16039 7.85109 3.41331 6.97497 3.91913L5.1793 4.95587C4.30318 5.46169 3.86512 5.71461 3.58401 6.10152C3.4916 6.22872 3.41277 6.36525 3.34882 6.50888C3.1543 6.94579 3.1543 7.45161 3.1543 8.46327V10.5367C3.1543 11.5484 3.1543 12.0542 3.34882 12.4911C3.41277 12.6348 3.4916 12.7713 3.58401 12.8985C3.86512 13.2854 4.30318 13.5383 5.1793 14.0441L6.97497 15.0809C7.85109 15.5867 8.28915 15.8396 8.76478 15.8896C8.92114 15.906 9.0788 15.906 9.23516 15.8896C9.71079 15.8396 10.1488 15.5867 11.025 15.0809L13.3842 13.7188C13.7104 13.5304 13.8735 13.4363 14.0107 13.3253C14.4436 12.9751 14.7313 12.4768 14.8181 11.9268C14.8456 11.7525 14.8456 11.5641 14.8456 11.1875V11.1875V10.3438" stroke="black" stroke-width="1.2" stroke-linecap="round" stroke-linejoin="round"/>
<circle cx="9" cy="9.5" r="2.25" stroke="black" stroke-width="1.2"/>
</svg>
