<svg width="18" height="19" viewBox="0 0 18 19" fill="none" xmlns="http://www.w3.org/2000/svg">
<path d="M6 16.25V16.25C5.73395 16.25 5.60093 16.25 5.49311 16.2422C3.84309 16.1232 2.60087 14.6909 2.71635 13.0406C2.72389 12.9327 2.74271 12.8011 2.78033 12.5377L3.10607 10.2575C3.36769 8.42615 3.49851 7.51046 4.0149 6.86891C4.23949 6.58989 4.51223 6.35335 4.8202 6.17048C5.52833 5.75 6.45332 5.75 8.3033 5.75H9.6967C11.5467 5.75 12.4717 5.75 13.1798 6.17048C13.4878 6.35335 13.7605 6.58989 13.9851 6.86891C14.5015 7.51046 14.6323 8.42615 14.8939 10.2575V10.2575C15.2326 12.6283 15.4019 13.8136 14.9232 14.6892C14.717 15.0664 14.4322 15.3948 14.088 15.6522C13.2889 16.25 12.0915 16.25 9.6967 16.25H9.375" stroke="black" stroke-width="1.2" stroke-linecap="round"/>
<path d="M6 7.25V5C6 3.34315 7.34315 2 9 2C10.6569 2 12 3.34315 12 5V7.25" stroke="black" stroke-width="1.2" stroke-linecap="round"/>
<circle cx="11.25" cy="9.5" r="0.75" fill="black"/>
<circle cx="6.75" cy="9.5" r="0.75" fill="black"/>
</svg>
