<svg width="24" height="24" viewBox="0 0 24 24" fill="none" xmlns="http://www.w3.org/2000/svg">
<path d="M2.75 14.4229C3.16421 14.4229 3.5 14.7586 3.5 15.1729V16.75C3.5 18.5449 4.95507 20 6.75 20H13.5832C13.8538 20 14.0921 20.1779 14.1992 20.4264C14.4032 20.9003 14.0862 21.5 13.5702 21.5H6.75C4.12665 21.5 2 19.3734 2 16.75V15.1729C2 14.7586 2.33579 14.4229 2.75 14.4229ZM16.75 4C19.3734 4 21.5 6.12665 21.5 8.75V12.2309C21.5 12.7006 21.0176 13.0203 20.5614 12.9085C20.247 12.8314 20 12.5604 20 12.2366V11.729C20 11.0502 19.4498 10.5 18.771 10.5H4.67285C4.0251 10.5 3.5 11.0251 3.5 11.6729C3.5 12.0871 3.16421 12.4229 2.75 12.4229C2.33579 12.4229 2 12.0871 2 11.6729V8.75C2 6.12665 4.12665 4 6.75 4H16.75ZM6.75 5.5C4.95507 5.5 3.5 6.95507 3.5 8.75C3.5 8.88807 3.61193 9 3.75 9H19.75C19.8881 9 20 8.88807 20 8.75C20 6.95507 18.5449 5.5 16.75 5.5H6.75Z" fill="black"/>
<path d="M19 22C21.2091 22 23 20.2091 23 18C23 15.7909 21.2091 14 19 14C16.7909 14 15 15.7909 15 18C15 20.2091 16.7909 22 19 22Z" stroke="black" stroke-linecap="round" stroke-linejoin="round"/>
<path d="M19 15.667V18.0003H21.3333" stroke="black" stroke-linecap="round" stroke-linejoin="round"/>
<path d="M8 7V3" stroke="black" stroke-width="1.5" stroke-linecap="round"/>
<path d="M16 7V3" stroke="black" stroke-width="1.5" stroke-linecap="round"/>
<path d="M8 13C8 13.5523 7.55228 14 7 14C6.44772 14 6 13.5523 6 13C6 12.4477 6.44772 12 7 12C7.55228 12 8 12.4477 8 13Z" fill="black"/>
<path d="M13 13C13 13.5523 12.5523 14 12 14C11.4477 14 11 13.5523 11 13C11 12.4477 11.4477 12 12 12C12.5523 12 13 12.4477 13 13Z" fill="black"/>
<path d="M8 17C8 17.5523 7.55228 18 7 18C6.44772 18 6 17.5523 6 17C6 16.4477 6.44772 16 7 16C7.55228 16 8 16.4477 8 17Z" fill="black"/>
<path d="M13 17C13 17.5523 12.5523 18 12 18C11.4477 18 11 17.5523 11 17C11 16.4477 11.4477 16 12 16C12.5523 16 13 16.4477 13 17Z" fill="black"/>
</svg>
