<svg width="24" height="24" viewBox="0 0 24 24" fill="none" xmlns="http://www.w3.org/2000/svg">
<path d="M18 16.9229C18 17.3872 18 17.6194 17.9807 17.8149C17.7937 19.714 16.2912 21.2165 14.3921 21.4036C14.1965 21.4229 13.9643 21.4229 13.5 21.4229H12C10.1362 21.4229 9.20435 21.4229 8.46927 21.1184C7.48915 20.7124 6.71046 19.9337 6.30448 18.9536C6 18.2185 6 17.2866 6 15.4229V9.42285C6 7.55909 6 6.6272 6.30448 5.89212C6.71046 4.91201 7.48915 4.13331 8.46927 3.72733C9.20435 3.42285 10.1362 3.42285 12 3.42285C13.8638 3.42285 14.7956 3.42285 15.5307 3.72733C16.5108 4.13331 17.2895 4.91201 17.6955 5.89212C18 6.6272 18 7.55909 18 9.42285V12.4229" stroke="black" stroke-width="1.5" stroke-linecap="round" stroke-linejoin="round"/>
<path d="M11 6H13" stroke="black" stroke-width="1.5" stroke-linecap="round"/>
<path d="M8.50977 10.1759V10.4953C8.50977 10.7928 8.50977 10.9415 8.53689 11.0647C8.63407 11.5061 8.97882 11.8509 9.42023 11.9481C9.54344 11.9752 9.69472 11.9752 9.99727 11.9752C10.2856 11.9752 10.4298 11.9752 10.5473 11.9506C10.9982 11.8562 11.3505 11.5039 11.4449 11.053C11.4695 10.9355 11.4695 10.7938 11.4695 10.5105C11.4695 10.2273 11.4695 10.0856 11.4449 9.96804C11.3505 9.51718 10.9982 9.16492 10.5473 9.07052C10.4298 9.0459 10.2881 9.0459 10.0048 9.0459H9.14875" stroke="black" stroke-linecap="round"/>
<path d="M8.55127 14.6119V14.9314C8.55127 15.2288 8.55127 15.3775 8.5784 15.5008C8.67558 15.9422 9.02033 16.2869 9.46173 16.3841C9.58495 16.4112 9.73622 16.4112 10.0388 16.4112C10.3271 16.4112 10.4713 16.4112 10.5888 16.3866C11.0397 16.2922 11.392 15.9399 11.4864 15.4891C11.511 15.3715 11.511 15.2299 11.511 14.9466C11.511 14.6633 11.511 14.5217 11.4864 14.4041C11.392 13.9532 11.0397 13.601 10.5888 13.5066C10.4713 13.4819 10.3296 13.4819 10.0463 13.4819H9.19026" stroke="black" stroke-linecap="round"/>
<rect x="12.8027" y="9.0459" width="2.95971" height="2.92929" rx="1.15984" stroke="black"/>
<rect x="12.8438" y="13.4819" width="2.95971" height="2.92929" rx="1.15984" stroke="black"/>
</svg>
