<svg width="24" height="24" viewBox="0 0 24 24" fill="none" xmlns="http://www.w3.org/2000/svg">
<path d="M16.2533 14.0782L16.2038 13.8291C16.1612 13.615 16.1399 13.5079 16.1617 13.4068C16.1689 13.3735 16.1795 13.341 16.1932 13.3099C16.2351 13.2152 16.3152 13.1411 16.4754 12.9929L19.124 10.5436C19.6683 10.0402 19.9405 9.78856 19.9193 9.54457C19.9127 9.46862 19.8889 9.39518 19.8496 9.32986C19.7233 9.12005 19.3551 9.0764 18.6189 8.98911L15.0365 8.56436C14.8198 8.53866 14.7114 8.52581 14.6219 8.47382C14.5924 8.45672 14.5648 8.43666 14.5395 8.41394C14.4624 8.34489 14.4167 8.24579 14.3252 8.04758L12.8143 4.7718C12.5037 4.09857 12.3485 3.76195 12.1099 3.70666C12.0356 3.68945 11.9584 3.68945 11.8841 3.70666C11.6456 3.76195 11.4903 4.09857 11.1798 4.7718L9.66878 8.04758C9.57736 8.24579 9.53165 8.34489 9.45455 8.41394C9.42919 8.43666 9.40157 8.45672 9.37212 8.47382C9.28263 8.52581 9.17425 8.53866 8.9575 8.56436L5.37513 8.98911C4.63889 9.0764 4.27077 9.12005 4.14446 9.32986C4.10514 9.39518 4.08128 9.46862 4.0747 9.54457C4.05355 9.78856 4.32572 10.0402 4.87004 10.5436L7.51858 12.9929C7.67883 13.1411 7.75895 13.2152 7.8008 13.3099C7.81456 13.341 7.82511 13.3735 7.83228 13.4068C7.85407 13.5079 7.8328 13.615 7.79026 13.8291L7.08721 17.3674C6.94272 18.0946 6.87047 18.4581 7.03099 18.6431C7.08095 18.7007 7.14343 18.7461 7.21363 18.7758C7.43914 18.8713 7.76261 18.6902 8.40955 18.3281L11.5574 16.5661C11.7479 16.4595 11.8431 16.4061 11.9461 16.3956C11.9799 16.3921 12.0141 16.3921 12.048 16.3956C12.1509 16.4061 12.2461 16.4595 12.4366 16.5661L15.9646 18.5409C16.2827 18.719 16.4418 18.808 16.5569 18.8146C16.7944 18.8281 17.0085 18.6726 17.069 18.4426C17.0983 18.3311 17.0628 18.1522 16.9917 17.7946V17.7946L16.844 17.0513" stroke="#2E2E2E" stroke-width="1.5" stroke-linecap="round" stroke-linejoin="round"/>
</svg>
