<svg width="20" height="20" viewBox="0 0 20 20" fill="none" xmlns="http://www.w3.org/2000/svg">
<path d="M14.295 11.6668C14.4867 12.0968 14.5833 12.5752 14.5833 13.1002C14.5833 14.2185 14.1467 15.0935 13.2742 15.7227C12.4 16.3518 11.1942 16.6668 9.655 16.6668C8.44432 16.6668 7.24475 16.4177 6.05572 15.9188C5.77253 15.7999 5.59667 15.5178 5.59667 15.2107C5.59667 14.5985 6.26562 14.2092 6.83703 14.4289C7.70615 14.763 8.58872 14.9302 9.485 14.9302C11.6108 14.9302 12.6767 14.3202 12.6842 13.0993C12.6886 12.8518 12.643 12.6059 12.5502 12.3764C12.4574 12.1469 12.3193 11.9384 12.1442 11.7635L12.0442 11.666H3.33333C2.8731 11.666 2.5 11.2929 2.5 10.8327C2.5 10.3724 2.8731 9.99933 3.33333 9.99933H16.6667C17.1269 9.99933 17.5 10.3724 17.5 10.8327C17.5 11.2929 17.1269 11.666 16.6667 11.666H14.295V11.6668ZM10.8496 9.15062C10.8585 9.15368 10.8563 9.16683 10.8469 9.16683H6.36073C6.35865 9.16683 6.35665 9.16605 6.35512 9.16465C6.21006 9.03215 6.07675 8.88733 5.95667 8.73183C5.59667 8.26683 5.41667 7.70516 5.41667 7.0435C5.41667 6.0135 5.805 5.13766 6.58083 4.416C7.35833 3.69433 8.55917 3.3335 10.185 3.3335C11.2534 3.3335 12.2819 3.54112 13.2694 3.95636C13.5383 4.06942 13.7033 4.3385 13.7033 4.63019C13.7033 5.21659 13.06 5.59436 12.5027 5.41204C11.8431 5.19628 11.1473 5.0885 10.415 5.0885C8.34833 5.0885 7.31583 5.74016 7.31583 7.0435C7.31583 7.3935 7.4975 7.6985 7.86083 7.95933C8.22417 8.22016 9.205 8.58433 9.205 8.58433L10.8496 9.15062Z" fill="black"/>
</svg>
