<svg width="20" height="20" viewBox="0 0 20 20" fill="none" xmlns="http://www.w3.org/2000/svg">
<path d="M2.5 9.16667V9.16667C2.5 8.39224 2.5 8.00503 2.56405 7.68303C2.82707 6.36073 3.86073 5.32707 5.18303 5.06405C5.50503 5 5.89224 5 6.66667 5H11.3103C12.1374 5 12.5509 5 12.9338 5.0917C13.4442 5.21396 13.9185 5.45502 14.3182 5.79527C14.6179 6.05045 14.8617 6.38452 15.3492 7.05265V7.05265C16.0354 7.99289 16.3784 8.46301 16.5426 8.96664C16.7616 9.63815 16.7616 10.3619 16.5426 11.0334C16.3784 11.537 16.0354 12.0071 15.3492 12.9473V12.9473C14.8617 13.6155 14.6179 13.9495 14.3182 14.2047C13.9185 14.545 13.4442 14.786 12.9338 14.9083C12.5509 15 12.1374 15 11.3103 15H8.98649H5C3.61929 15 2.5 13.8807 2.5 12.5V12.5" stroke="white" stroke-width="1.25" stroke-linecap="round" stroke-linejoin="round"/>
<circle cx="13.3333" cy="10" r="0.833333" fill="white"/>
</svg>
