<svg width="20" height="20" viewBox="0 0 20 20" fill="none" xmlns="http://www.w3.org/2000/svg">
<path d="M12.6852 6.75958C12.6852 8.19143 11.5244 9.35218 10.0926 9.35218C8.66074 9.35218 7.5 8.19143 7.5 6.75958C7.5 5.32774 8.66074 4.16699 10.0926 4.16699C11.5244 4.16699 12.6852 5.32774 12.6852 6.75958Z" stroke="black" stroke-width="1.09375" stroke-linecap="round"/>
<path d="M4.16797 13.6465C4.16797 14.8546 6.94287 15.834 10.3659 15.834C10.9373 15.834 11.4906 15.8067 12.016 15.7556C12.6046 15.6854 14.1315 15.4071 15.5308 14.8561C16.1835 14.5096 16.5638 14.0937 16.5638 13.6465C16.5638 12.4384 13.7889 11.459 10.3659 11.459C6.94287 11.459 4.16797 12.4384 4.16797 13.6465Z" stroke="black" stroke-width="1.09375" stroke-linecap="round"/>
<path d="M5.56836 11.9184C5.21159 11.8711 4.83297 11.8461 4.44297 11.8461C3.49132 11.8461 2.6074 11.9952 1.94335 12.2534C1.61289 12.382 1.31187 12.5471 1.08506 12.7557C0.857829 12.9646 0.667969 13.2544 0.667969 13.615C0.667969 13.9756 0.857829 14.2655 1.08506 14.4744C1.31187 14.6829 1.61289 14.8481 1.94335 14.9766C2.6074 15.2348 3.49132 15.384 4.44297 15.384C5.01712 15.384 5.56662 15.3297 6.05805 15.2299C5.23651 15.0266 4.57011 14.7368 4.14337 14.3936C3.40662 14.3661 2.76261 14.2386 2.30028 14.0588C2.03671 13.9563 1.857 13.8464 1.75159 13.7495C1.70038 13.7024 1.67475 13.6657 1.6628 13.643C1.65705 13.6321 1.65469 13.6248 1.65372 13.6211C1.6528 13.6176 1.65275 13.615 1.65275 13.615C1.65275 13.615 1.6528 13.6124 1.65372 13.6089C1.65469 13.6052 1.65705 13.598 1.6628 13.587C1.67475 13.5643 1.70038 13.5277 1.75159 13.4806C1.857 13.3837 2.03671 13.2738 2.30028 13.1713C2.7108 13.0116 3.26454 12.8932 3.89927 12.8494C4.22097 12.4804 4.80644 12.1588 5.56836 11.9184Z" fill="black"/>
<path fill-rule="evenodd" clip-rule="evenodd" d="M4.44297 7.83398C3.36528 7.83398 2.49164 8.70762 2.49164 9.78531C2.49164 10.863 3.36528 11.7366 4.44297 11.7366C5.52066 11.7366 6.3943 10.863 6.3943 9.78531C6.3943 8.70762 5.52066 7.83398 4.44297 7.83398ZM3.47642 9.78531C3.47642 9.2515 3.90916 8.81877 4.44297 8.81877C4.97678 8.81877 5.40951 9.2515 5.40951 9.78531C5.40951 10.3191 4.97678 10.7519 4.44297 10.7519C3.90916 10.7519 3.47642 10.3191 3.47642 9.78531Z" fill="black"/>
<path d="M15.0996 11.9184C15.4564 11.8711 15.835 11.8461 16.225 11.8461C17.1766 11.8461 18.0606 11.9952 18.7246 12.2534C19.0551 12.382 19.3561 12.5471 19.5829 12.7557C19.8101 12.9646 20 13.2544 20 13.615C20 13.9756 19.8101 14.2655 19.5829 14.4744C19.3561 14.6829 19.0551 14.8481 18.7246 14.9766C18.0606 15.2348 17.1766 15.384 16.225 15.384C15.6508 15.384 15.9896 14.8976 15.4981 14.7978C16.3197 14.5944 16.0979 14.7368 16.5246 14.3936C17.2613 14.3661 17.9054 14.2386 18.3677 14.0588C18.6313 13.9563 18.811 13.8464 18.9164 13.7495C18.9676 13.7024 18.9932 13.6657 19.0052 13.643C19.0109 13.6321 19.0133 13.6248 19.0142 13.6211C19.0152 13.6176 19.0152 13.615 19.0152 13.615C19.0152 13.615 19.0152 13.6124 19.0142 13.6089C19.0133 13.6052 19.0109 13.598 19.0052 13.587C18.9932 13.5643 18.9676 13.5277 18.9164 13.4806C18.811 13.3837 18.6313 13.2738 18.3677 13.1713C17.9572 13.0116 17.4034 12.8932 16.7687 12.8494C16.447 12.4804 15.8615 12.1588 15.0996 11.9184Z" fill="black"/>
<path fill-rule="evenodd" clip-rule="evenodd" d="M16.225 7.83398C17.3027 7.83398 18.1763 8.70762 18.1763 9.78531C18.1763 10.863 17.3027 11.7366 16.225 11.7366C15.1473 11.7366 14.2737 10.863 14.2737 9.78531C14.2737 8.70762 15.1473 7.83398 16.225 7.83398ZM17.1915 9.78531C17.1915 9.2515 16.7588 8.81877 16.225 8.81877C15.6912 8.81877 15.2585 9.2515 15.2585 9.78531C15.2585 10.3191 15.6912 10.7519 16.225 10.7519C16.7588 10.7519 17.1915 10.3191 17.1915 9.78531Z" fill="black"/>
</svg>
