<svg width="24" height="24" viewBox="0 0 24 24" fill="none" xmlns="http://www.w3.org/2000/svg">
<g clip-path="url(#clip0_4501_6427)">
<mask id="path-1-inside-1_4501_6427" fill="white">
<path d="M14.6367 4C18.4425 4 21.5283 7.08586 21.5283 10.8916C21.5281 14.6971 18.4423 17.7822 14.6367 17.7822C14.0181 17.7822 13.419 17.6988 12.8486 17.5459C11.7811 19.2396 9.89602 20.3662 7.74609 20.3662C4.41627 20.3661 1.71693 17.6667 1.7168 14.3369C1.7168 11.007 4.41618 8.30775 7.74609 8.30762C7.91242 8.30762 8.07732 8.31491 8.24023 8.32812C9.25733 5.792 11.7371 4.00011 14.6367 4Z"/>
</mask>
<path d="M14.6367 4V3H14.6367L14.6367 4ZM21.5283 10.8916L22.5283 10.8917V10.8916H21.5283ZM14.6367 17.7822L14.6367 18.7822H14.6367V17.7822ZM12.8486 17.5459L13.1076 16.58L12.3957 16.3892L12.0027 17.0127L12.8486 17.5459ZM7.74609 20.3662L7.74606 21.3662H7.74609V20.3662ZM1.7168 14.3369H0.716797V14.337L1.7168 14.3369ZM7.74609 8.30762V7.30762L7.74606 7.30762L7.74609 8.30762ZM8.24023 8.32812L8.15941 9.32485L8.89404 9.38442L9.16838 8.70035L8.24023 8.32812ZM14.6367 4V5C17.8902 5 20.5283 7.63815 20.5283 10.8916H21.5283H22.5283C22.5283 6.53358 18.9947 3 14.6367 3V4ZM21.5283 10.8916L20.5283 10.8915C20.5281 14.1447 17.8901 16.7822 14.6367 16.7822V17.7822V18.7822C18.9945 18.7822 22.528 15.2495 22.5283 10.8917L21.5283 10.8916ZM14.6367 17.7822L14.6368 16.7822C14.1085 16.7822 13.5963 16.711 13.1076 16.58L12.8486 17.5459L12.5897 18.5118C13.2417 18.6866 13.9278 18.7822 14.6367 18.7822L14.6367 17.7822ZM12.8486 17.5459L12.0027 17.0127C11.1101 18.4288 9.53753 19.3662 7.74609 19.3662V20.3662V21.3662C10.2545 21.3662 12.4521 20.0503 13.6946 18.0791L12.8486 17.5459ZM7.74609 20.3662L7.74613 19.3662C4.96856 19.3661 2.71691 17.1144 2.7168 14.3369L1.7168 14.3369L0.716797 14.337C0.716954 18.219 3.86397 21.3661 7.74606 21.3662L7.74609 20.3662ZM1.7168 14.3369H2.7168C2.7168 11.5593 4.96844 9.30772 7.74613 9.30762L7.74609 8.30762L7.74606 7.30762C3.86393 7.30777 0.716797 10.4547 0.716797 14.3369H1.7168ZM7.74609 8.30762V9.30762C7.88321 9.30762 8.02106 9.31363 8.15941 9.32485L8.24023 8.32812L8.32106 7.3314C8.13357 7.31619 7.94162 7.30762 7.74609 7.30762V8.30762ZM8.24023 8.32812L9.16838 8.70035C10.0388 6.53002 12.16 5.0001 14.6368 5L14.6367 4L14.6367 3C11.3143 3.00013 8.47588 5.05398 7.31209 7.9559L8.24023 8.32812Z" fill="black" mask="url(#path-1-inside-1_4501_6427)"/>
<circle cx="14.638" cy="10.8911" r="6.3909" stroke="black"/>
<g clip-path="url(#clip1_4501_6427)">
<path d="M14.6357 8.4165V14.1262" stroke="black" stroke-width="0.8" stroke-linecap="round" stroke-linejoin="round"/>
<path d="M11.7812 9.68532V8.4165H17.4909V9.68532" stroke="black" stroke-width="0.8" stroke-linecap="round" stroke-linejoin="round"/>
<path d="M13.3672 14.1262H15.9048" stroke="black" stroke-width="0.8" stroke-linecap="round" stroke-linejoin="round"/>
</g>
<path d="M7.35564 17.7816C7.35564 17.7816 4.30176 16.1372 4.30176 14.1992C4.30176 13.7786 4.46882 13.3753 4.76619 13.078C5.06356 12.7806 5.46688 12.6135 5.88743 12.6135C6.55077 12.6135 7.11896 12.975 7.35564 13.5532" stroke="black" stroke-width="0.803938" stroke-linecap="round" stroke-linejoin="round"/>
<path d="M7.35693 13.5533C7.55779 13.0626 7.99737 12.7408 8.5315 12.6406" stroke="black" stroke-width="0.803938" stroke-linecap="round" stroke-linejoin="round"/>
<path d="M8.5315 17.0034C8.15951 17.2912 7.76693 17.5514 7.35693 17.7819" stroke="black" stroke-width="0.803938" stroke-linecap="round" stroke-linejoin="round"/>
</g>
<defs>
<clipPath id="clip0_4501_6427">
<rect width="24" height="24" fill="white"/>
</clipPath>
<clipPath id="clip1_4501_6427">
<rect width="10.1506" height="10.1506" fill="white" transform="translate(9.5625 6.19604)"/>
</clipPath>
</defs>
</svg>
