<svg width="18" height="19" viewBox="0 0 18 19" fill="none" xmlns="http://www.w3.org/2000/svg">
<path d="M7.875 5H3.85714C3.75766 5 3.70791 5 3.66589 5.00236C2.90366 5.04517 2.29517 5.65366 2.25236 6.41589C2.25 6.45791 2.25 6.50766 2.25 6.60714V7.46429C2.25 7.8785 2.58579 8.21429 3 8.21429H3.10714C3.8764 8.21429 4.5 8.83789 4.5 9.60714V9.60714C4.5 10.3764 3.8764 11 3.10714 11H3C2.58579 11 2.25 11.3358 2.25 11.75V12.5C2.25 13.3284 2.92157 14 3.75 14H7.875M7.875 5H14.25C15.0784 5 15.75 5.67157 15.75 6.5V7.25C15.75 7.66421 15.4142 8 15 8V8C14.1716 8 13.5 8.67157 13.5 9.5V9.5C13.5 10.3284 14.1716 11 15 11V11C15.4142 11 15.75 11.3358 15.75 11.75V12.5C15.75 13.3284 15.0784 14 14.25 14H12.9375M7.875 5V6.125M7.875 14V12.875M7.875 14H9.75M7.875 9.875V9.5V9.125" stroke="black" stroke-width="1.2" stroke-linecap="round"/>
</svg>
