<svg width="24" height="24" viewBox="0 0 24 24" fill="none" xmlns="http://www.w3.org/2000/svg">
<path d="M5.03816 2.81893C3.5654 2.81893 2.37149 4.01284 2.37149 5.48559C2.37149 6.95835 3.5654 8.15226 5.03816 8.15226C6.51092 8.15226 7.70482 6.95835 7.70482 5.4856C7.70482 4.01284 6.51092 2.81893 5.03816 2.81893ZM19.5024 5.4856L19.5024 4.9856L19.5024 5.4856ZM22.3149 8.2981L22.8149 8.2981L22.3149 8.2981ZM16.4221 10.6106C16.1459 10.6106 15.9221 10.8345 15.9221 11.1106C15.9221 11.3867 16.1459 11.6106 16.4221 11.6106L16.4221 11.1106L16.4221 10.6106ZM5.03816 5.48559L5.03816 5.98559C5.04919 5.98559 5.06024 5.98559 5.07129 5.98559C5.08235 5.98559 5.09342 5.98559 5.1045 5.98559C5.11558 5.98559 5.12667 5.98559 5.13778 5.98559C5.14888 5.98559 5.15999 5.98559 5.17112 5.98559C5.18225 5.98559 5.19339 5.98559 5.20454 5.98559C5.21569 5.98559 5.22685 5.98559 5.23803 5.98559C5.2492 5.98559 5.26039 5.98559 5.27159 5.98559C5.28278 5.98559 5.29399 5.98559 5.30521 5.98559C5.31643 5.98559 5.32766 5.98559 5.33891 5.98559C5.35015 5.98559 5.3614 5.98559 5.37267 5.98559C5.38393 5.98559 5.39521 5.98559 5.4065 5.98559C5.41779 5.98559 5.42908 5.98559 5.44039 5.98559C5.4517 5.98559 5.46302 5.98559 5.47436 5.98559C5.48569 5.98559 5.49703 5.98559 5.50838 5.98559C5.51974 5.98559 5.5311 5.98559 5.54247 5.98559C5.55385 5.98559 5.56524 5.98559 5.57663 5.98559C5.58803 5.98559 5.59944 5.98559 5.61085 5.98559C5.62227 5.98559 5.6337 5.98559 5.64514 5.98559C5.65657 5.98559 5.66802 5.98559 5.67948 5.98559C5.69094 5.98559 5.70241 5.98559 5.71389 5.98559C5.72537 5.98559 5.73686 5.98559 5.74836 5.98559C5.75986 5.98559 5.77138 5.98559 5.7829 5.98559C5.79442 5.98559 5.80595 5.98559 5.81749 5.98559C5.82903 5.98559 5.84058 5.98559 5.85214 5.98559C5.8637 5.98559 5.87527 5.98559 5.88685 5.98559C5.89844 5.98559 5.91003 5.98559 5.92163 5.98559C5.93323 5.98559 5.94484 5.98559 5.95646 5.98559C5.96808 5.98559 5.97971 5.98559 5.99134 5.98559C6.00298 5.98559 6.01463 5.98559 6.02629 5.98559C6.03795 5.98559 6.04962 5.98559 6.06129 5.98559C6.07297 5.98559 6.08466 5.98559 6.09635 5.98559C6.10805 5.98559 6.11975 5.98559 6.13147 5.98559C6.14318 5.98559 6.15491 5.98559 6.16664 5.98559C6.17837 5.98559 6.19011 5.98559 6.20186 5.98559C6.21362 5.98559 6.22537 5.98559 6.23714 5.9856C6.24891 5.9856 6.26069 5.9856 6.27248 5.9856C6.28426 5.9856 6.29606 5.9856 6.30786 5.9856C6.31967 5.9856 6.33148 5.9856 6.3433 5.9856C6.35512 5.9856 6.36695 5.9856 6.37879 5.9856C6.39063 5.9856 6.40248 5.9856 6.41434 5.9856C6.42619 5.9856 6.43806 5.9856 6.44993 5.9856C6.4618 5.9856 6.47369 5.9856 6.48557 5.9856C6.49747 5.9856 6.50936 5.9856 6.52127 5.9856C6.53318 5.9856 6.54509 5.9856 6.55701 5.9856C6.56894 5.9856 6.58087 5.9856 6.59281 5.9856C6.60474 5.9856 6.61669 5.9856 6.62865 5.9856C6.6406 5.9856 6.65257 5.9856 6.66454 5.9856C6.67651 5.9856 6.68849 5.9856 6.70047 5.9856C6.71246 5.9856 6.72445 5.9856 6.73646 5.9856C6.74846 5.9856 6.76047 5.9856 6.77249 5.9856C6.7845 5.9856 6.79653 5.9856 6.80856 5.9856C6.82059 5.9856 6.83263 5.9856 6.84468 5.9856C6.85673 5.9856 6.86878 5.9856 6.88085 5.9856C6.89291 5.9856 6.90498 5.9856 6.91705 5.9856C6.92913 5.9856 6.94122 5.9856 6.95331 5.9856C6.9654 5.9856 6.9775 5.9856 6.9896 5.9856C7.00171 5.9856 7.01382 5.9856 7.02594 5.9856C7.03806 5.9856 7.05019 5.9856 7.06232 5.9856C7.07445 5.9856 7.08659 5.9856 7.09874 5.9856C7.11089 5.9856 7.12304 5.9856 7.1352 5.9856C7.14737 5.9856 7.15953 5.9856 7.17171 5.9856C7.18388 5.9856 7.19606 5.9856 7.20825 5.9856C7.22044 5.9856 7.23263 5.9856 7.24483 5.9856C7.25703 5.9856 7.26924 5.9856 7.28145 5.9856C7.29366 5.9856 7.30588 5.9856 7.31811 5.9856C7.33034 5.9856 7.34257 5.9856 7.35481 5.9856C7.36705 5.9856 7.37929 5.9856 7.39154 5.9856C7.40379 5.9856 7.41605 5.9856 7.42831 5.9856C7.44057 5.9856 7.45284 5.9856 7.46512 5.9856C7.47739 5.9856 7.48967 5.9856 7.50196 5.9856C7.51425 5.9856 7.52654 5.9856 7.53883 5.9856C7.55113 5.9856 7.56344 5.9856 7.57575 5.9856C7.58806 5.9856 7.60037 5.9856 7.61269 5.9856C7.62501 5.9856 7.63734 5.9856 7.64967 5.9856C7.662 5.9856 7.67434 5.9856 7.68668 5.9856C7.69902 5.9856 7.71137 5.9856 7.72372 5.9856C7.73608 5.9856 7.74844 5.9856 7.7608 5.9856C7.77316 5.9856 7.78553 5.9856 7.79791 5.9856C7.81028 5.9856 7.82266 5.9856 7.83504 5.9856C7.84743 5.9856 7.85982 5.9856 7.87221 5.9856C7.88461 5.9856 7.897 5.9856 7.90941 5.9856C7.92181 5.9856 7.93422 5.9856 7.94663 5.9856C7.95905 5.9856 7.97147 5.9856 7.98389 5.9856C7.99631 5.9856 8.00874 5.9856 8.02117 5.9856C8.0336 5.9856 8.04604 5.9856 8.05848 5.9856C8.07092 5.9856 8.08337 5.9856 8.09582 5.9856C8.10827 5.9856 8.12072 5.9856 8.13318 5.9856C8.14564 5.9856 8.1581 5.9856 8.17057 5.9856C8.18304 5.9856 8.19551 5.9856 8.20799 5.9856C8.22046 5.9856 8.23294 5.9856 8.24543 5.9856C8.25791 5.9856 8.2704 5.9856 8.28289 5.9856C8.29538 5.9856 8.30788 5.9856 8.32038 5.9856C8.33288 5.9856 8.34538 5.9856 8.35789 5.9856C8.3704 5.9856 8.38291 5.9856 8.39542 5.9856C8.40794 5.9856 8.42046 5.9856 8.43298 5.9856C8.4455 5.9856 8.45803 5.9856 8.47056 5.9856C8.48309 5.9856 8.49562 5.9856 8.50815 5.9856C8.52069 5.9856 8.53323 5.9856 8.54577 5.9856C8.55832 5.9856 8.57086 5.9856 8.58341 5.9856C8.59596 5.9856 8.60851 5.9856 8.62107 5.9856C8.63363 5.9856 8.64619 5.9856 8.65875 5.9856C8.67131 5.9856 8.68388 5.9856 8.69644 5.9856C8.70901 5.9856 8.72158 5.9856 8.73416 5.9856C8.74673 5.9856 8.75931 5.9856 8.77189 5.9856C8.78447 5.9856 8.79705 5.9856 8.80964 5.9856C8.82222 5.9856 8.83481 5.9856 8.8474 5.9856C8.85999 5.9856 8.87258 5.9856 8.88518 5.9856C8.89777 5.9856 8.91037 5.9856 8.92297 5.9856C8.93557 5.9856 8.94818 5.9856 8.96078 5.9856C8.97339 5.9856 8.986 5.9856 8.99861 5.9856C9.01122 5.9856 9.02383 5.9856 9.03644 5.9856C9.04906 5.9856 9.06167 5.9856 9.07429 5.9856C9.08691 5.9856 9.09953 5.9856 9.11216 5.9856C9.12478 5.9856 9.1374 5.9856 9.15003 5.9856C9.16266 5.9856 9.17529 5.9856 9.18792 5.9856C9.20055 5.9856 9.21318 5.9856 9.22581 5.9856C9.23845 5.9856 9.25108 5.9856 9.26372 5.9856C9.27636 5.9856 9.289 5.9856 9.30164 5.9856C9.31428 5.9856 9.32692 5.9856 9.33956 5.9856C9.35221 5.9856 9.36485 5.9856 9.3775 5.9856C9.39014 5.9856 9.40279 5.9856 9.41544 5.9856C9.42809 5.9856 9.44074 5.9856 9.45339 5.9856C9.46604 5.9856 9.4787 5.9856 9.49135 5.9856C9.504 5.9856 9.51666 5.9856 9.52931 5.9856C9.54197 5.9856 9.55463 5.9856 9.56729 5.9856C9.57994 5.9856 9.5926 5.9856 9.60526 5.9856C9.61792 5.9856 9.63058 5.9856 9.64324 5.9856C9.6559 5.9856 9.66857 5.9856 9.68123 5.9856C9.69389 5.9856 9.70655 5.9856 9.71922 5.9856C9.73188 5.9856 9.74455 5.9856 9.75721 5.9856C9.76988 5.9856 9.78254 5.9856 9.79521 5.9856C9.80787 5.9856 9.82054 5.9856 9.83321 5.9856C9.84587 5.9856 9.85854 5.9856 9.8712 5.9856C9.88387 5.9856 9.89654 5.9856 9.90921 5.9856C9.92187 5.9856 9.93454 5.9856 9.94721 5.9856C9.95988 5.9856 9.97254 5.9856 9.98521 5.9856C9.99788 5.9856 10.0105 5.9856 10.0232 5.9856C10.0359 5.9856 10.0485 5.9856 10.0612 5.9856C10.0739 5.9856 10.0865 5.9856 10.0992 5.9856C10.1119 5.9856 10.1245 5.9856 10.1372 5.9856C10.1499 5.9856 10.1625 5.9856 10.1752 5.9856C10.1879 5.9856 10.2005 5.9856 10.2132 5.9856C10.2259 5.9856 10.2385 5.9856 10.2512 5.9856C10.2638 5.9856 10.2765 5.9856 10.2892 5.9856C10.3018 5.9856 10.3145 5.9856 10.3271 5.9856C10.3398 5.9856 10.3525 5.9856 10.3651 5.9856C10.3778 5.9856 10.3904 5.9856 10.4031 5.9856C10.4157 5.9856 10.4284 5.9856 10.4411 5.9856C10.4537 5.9856 10.4664 5.9856 10.479 5.9856C10.4917 5.9856 10.5043 5.9856 10.517 5.9856C10.5296 5.9856 10.5423 5.9856 10.5549 5.9856C10.5675 5.9856 10.5802 5.9856 10.5928 5.9856C10.6055 5.9856 10.6181 5.9856 10.6308 5.9856C10.6434 5.9856 10.656 5.9856 10.6687 5.9856C10.6813 5.9856 10.6939 5.9856 10.7066 5.9856C10.7192 5.9856 10.7318 5.9856 10.7445 5.9856C10.7571 5.9856 10.7697 5.9856 10.7823 5.9856C10.795 5.9856 10.8076 5.9856 10.8202 5.9856C10.8328 5.9856 10.8455 5.9856 10.8581 5.9856C10.8707 5.9856 10.8833 5.9856 10.8959 5.9856C10.9085 5.9856 10.9211 5.9856 10.9337 5.9856C10.9464 5.9856 10.959 5.9856 10.9716 5.9856C10.9842 5.9856 10.9968 5.9856 11.0094 5.9856C11.022 5.9856 11.0346 5.9856 11.0472 5.9856C11.0598 5.9856 11.0723 5.9856 11.0849 5.9856C11.0975 5.9856 11.1101 5.9856 11.1227 5.9856C11.1353 5.9856 11.1479 5.9856 11.1604 5.9856C11.173 5.9856 11.1856 5.9856 11.1982 5.9856C11.2107 5.9856 11.2233 5.9856 11.2359 5.9856C11.2484 5.9856 11.261 5.9856 11.2736 5.9856C11.2861 5.9856 11.2987 5.9856 11.3112 5.9856C11.3238 5.9856 11.3363 5.9856 11.3489 5.9856C11.3614 5.9856 11.374 5.9856 11.3865 5.9856C11.399 5.9856 11.4116 5.9856 11.4241 5.9856C11.4367 5.9856 11.4492 5.9856 11.4617 5.9856C11.4742 5.9856 11.4868 5.9856 11.4993 5.9856C11.5118 5.9856 11.5243 5.9856 11.5368 5.9856C11.5493 5.9856 11.5618 5.9856 11.5744 5.9856C11.5869 5.9856 11.5994 5.9856 11.6119 5.9856C11.6244 5.9856 11.6368 5.9856 11.6493 5.9856C11.6618 5.9856 11.6743 5.9856 11.6868 5.9856C11.6993 5.9856 11.7117 5.9856 11.7242 5.9856C11.7367 5.9856 11.7492 5.9856 11.7616 5.9856C11.7741 5.9856 11.7866 5.9856 11.799 5.9856C11.8115 5.9856 11.8239 5.9856 11.8364 5.9856C11.8488 5.9856 11.8613 5.9856 11.8737 5.9856C11.8861 5.9856 11.8986 5.9856 11.911 5.9856C11.9234 5.9856 11.9358 5.9856 11.9483 5.9856C11.9607 5.9856 11.9731 5.9856 11.9855 5.9856C11.9979 5.9856 12.0103 5.9856 12.0227 5.9856C12.0351 5.9856 12.0475 5.9856 12.0599 5.9856C12.0723 5.9856 12.0847 5.9856 12.0971 5.9856C12.1094 5.9856 12.1218 5.9856 12.1342 5.9856C12.1466 5.9856 12.1589 5.9856 12.1713 5.9856C12.1836 5.9856 12.196 5.9856 12.2084 5.9856C12.2207 5.9856 12.233 5.9856 12.2454 5.9856C12.2577 5.9856 12.2701 5.9856 12.2824 5.9856C12.2947 5.9856 12.307 5.9856 12.3194 5.9856C12.3317 5.9856 12.344 5.9856 12.3563 5.9856C12.3686 5.9856 12.3809 5.9856 12.3932 5.9856C12.4055 5.9856 12.4178 5.9856 12.43 5.9856C12.4423 5.9856 12.4546 5.9856 12.4669 5.9856C12.4791 5.9856 12.4914 5.9856 12.5037 5.9856C12.5159 5.9856 12.5282 5.9856 12.5404 5.9856C12.5527 5.9856 12.5649 5.9856 12.5771 5.9856C12.5894 5.9856 12.6016 5.9856 12.6138 5.9856C12.626 5.9856 12.6383 5.9856 12.6505 5.9856C12.6627 5.9856 12.6749 5.9856 12.6871 5.9856C12.6993 5.9856 12.7115 5.9856 12.7236 5.9856C12.7358 5.9856 12.748 5.9856 12.7602 5.9856C12.7723 5.9856 12.7845 5.9856 12.7967 5.9856C12.8088 5.9856 12.821 5.9856 12.8331 5.9856C12.8453 5.9856 12.8574 5.9856 12.8695 5.9856C12.8816 5.9856 12.8938 5.9856 12.9059 5.9856C12.918 5.9856 12.9301 5.9856 12.9422 5.9856C12.9543 5.9856 12.9664 5.9856 12.9785 5.9856C12.9906 5.9856 13.0027 5.9856 13.0147 5.9856C13.0268 5.9856 13.0389 5.9856 13.0509 5.9856C13.063 5.9856 13.075 5.9856 13.0871 5.9856C13.0991 5.9856 13.1111 5.9856 13.1232 5.9856C13.1352 5.9856 13.1472 5.9856 13.1592 5.9856C13.1712 5.9856 13.1832 5.9856 13.1952 5.9856C13.2072 5.9856 13.2192 5.9856 13.2312 5.9856C13.2432 5.9856 13.2552 5.9856 13.2671 5.9856C13.2791 5.9856 13.291 5.9856 13.303 5.9856C13.3149 5.9856 13.3269 5.9856 13.3388 5.9856C13.3508 5.9856 13.3627 5.9856 13.3746 5.9856C13.3865 5.9856 13.3984 5.9856 13.4103 5.9856C13.4222 5.9856 13.4341 5.9856 13.446 5.9856C13.4579 5.9856 13.4698 5.9856 13.4816 5.9856C13.4935 5.9856 13.5054 5.9856 13.5172 5.9856C13.5291 5.9856 13.5409 5.9856 13.5527 5.9856C13.5646 5.9856 13.5764 5.9856 13.5882 5.9856C13.6 5.9856 13.6118 5.9856 13.6236 5.9856C13.6354 5.9856 13.6472 5.9856 13.659 5.9856C13.6708 5.9856 13.6825 5.9856 13.6943 5.9856C13.7061 5.9856 13.7178 5.9856 13.7296 5.9856C13.7413 5.9856 13.753 5.9856 13.7648 5.9856C13.7765 5.9856 13.7882 5.9856 13.7999 5.9856C13.8116 5.9856 13.8233 5.9856 13.835 5.9856C13.8467 5.9856 13.8584 5.9856 13.8701 5.9856C13.8817 5.9856 13.8934 5.9856 13.905 5.9856C13.9167 5.9856 13.9283 5.9856 13.94 5.9856C13.9516 5.9856 13.9632 5.9856 13.9748 5.9856C13.9864 5.9856 13.998 5.9856 14.0096 5.9856C14.0212 5.9856 14.0328 5.9856 14.0444 5.9856C14.056 5.9856 14.0675 5.9856 14.0791 5.9856C14.0906 5.9856 14.1022 5.9856 14.1137 5.9856C14.1252 5.9856 14.1368 5.9856 14.1483 5.9856C14.1598 5.9856 14.1713 5.9856 14.1828 5.9856C14.1943 5.9856 14.2058 5.9856 14.2172 5.9856C14.2287 5.9856 14.2402 5.9856 14.2516 5.9856C14.2631 5.9856 14.2745 5.9856 14.286 5.9856C14.2974 5.9856 14.3088 5.9856 14.3202 5.9856C14.3316 5.9856 14.343 5.9856 14.3544 5.9856C14.3658 5.9856 14.3772 5.9856 14.3885 5.9856C14.3999 5.9856 14.4113 5.9856 14.4226 5.9856C14.434 5.9856 14.4453 5.9856 14.4566 5.9856C14.4679 5.9856 14.4793 5.9856 14.4906 5.9856C14.5019 5.9856 14.5131 5.9856 14.5244 5.9856C14.5357 5.9856 14.547 5.9856 14.5582 5.9856C14.5695 5.9856 14.5807 5.9856 14.592 5.9856C14.6032 5.9856 14.6144 5.9856 14.6256 5.9856C14.6369 5.9856 14.6481 5.9856 14.6592 5.9856C14.6704 5.9856 14.6816 5.9856 14.6928 5.9856C14.7039 5.9856 14.7151 5.9856 14.7262 5.9856C14.7374 5.9856 14.7485 5.9856 14.7596 5.9856C14.7708 5.9856 14.7819 5.9856 14.793 5.9856C14.804 5.9856 14.8151 5.9856 14.8262 5.9856C14.8373 5.9856 14.8483 5.9856 14.8594 5.9856C14.8704 5.9856 14.8815 5.9856 14.8925 5.9856C14.9035 5.9856 14.9145 5.9856 14.9255 5.9856C14.9365 5.9856 14.9475 5.9856 14.9585 5.9856C14.9695 5.9856 14.9804 5.9856 14.9914 5.9856C15.0023 5.9856 15.0133 5.9856 15.0242 5.9856C15.0351 5.9856 15.046 5.9856 15.0569 5.9856C15.0678 5.9856 15.0787 5.9856 15.0896 5.9856C15.1005 5.9856 15.1113 5.9856 15.1222 5.9856C15.133 5.9856 15.1439 5.9856 15.1547 5.9856C15.1655 5.9856 15.1763 5.9856 15.1871 5.9856C15.1979 5.9856 15.2087 5.9856 15.2195 5.9856C15.2303 5.9856 15.241 5.9856 15.2518 5.9856C15.2625 5.9856 15.2732 5.9856 15.284 5.9856C15.2947 5.9856 15.3054 5.9856 15.3161 5.9856C15.3268 5.9856 15.3375 5.9856 15.3481 5.9856C15.3588 5.9856 15.3694 5.9856 15.3801 5.9856C15.3907 5.9856 15.4014 5.9856 15.412 5.9856C15.4226 5.9856 15.4332 5.9856 15.4438 5.9856C15.4544 5.9856 15.4649 5.9856 15.4755 5.9856C15.486 5.9856 15.4966 5.9856 15.5071 5.9856C15.5177 5.9856 15.5282 5.9856 15.5387 5.9856C15.5492 5.9856 15.5597 5.9856 15.5701 5.9856C15.5806 5.9856 15.5911 5.9856 15.6015 5.9856C15.612 5.9856 15.6224 5.9856 15.6328 5.9856C15.6432 5.9856 15.6537 5.9856 15.664 5.9856C15.6744 5.9856 15.6848 5.9856 15.6952 5.9856C15.7055 5.9856 15.7159 5.9856 15.7262 5.9856C15.7366 5.9856 15.7469 5.9856 15.7572 5.9856C15.7675 5.9856 15.7778 5.9856 15.788 5.9856C15.7983 5.9856 15.8086 5.9856 15.8188 5.9856C15.8291 5.9856 15.8393 5.9856 15.8495 5.9856C15.8597 5.9856 15.8699 5.9856 15.8801 5.9856C15.8903 5.9856 15.9005 5.9856 15.9106 5.9856C15.9208 5.9856 15.9309 5.9856 15.9411 5.9856C15.9512 5.9856 15.9613 5.9856 15.9714 5.9856C15.9815 5.9856 15.9916 5.9856 16.0017 5.9856C16.0117 5.9856 16.0218 5.9856 16.0318 5.9856C16.0418 5.9856 16.0519 5.9856 16.0619 5.9856C16.0719 5.9856 16.0819 5.9856 16.0918 5.9856C16.1018 5.9856 16.1118 5.9856 16.1217 5.9856C16.1317 5.9856 16.1416 5.9856 16.1515 5.9856C16.1614 5.9856 16.1713 5.9856 16.1812 5.9856C16.1911 5.9856 16.2009 5.9856 16.2108 5.9856C16.2206 5.9856 16.2305 5.9856 16.2403 5.9856C16.2501 5.9856 16.2599 5.9856 16.2697 5.9856C16.2795 5.9856 16.2892 5.9856 16.299 5.9856C16.3087 5.9856 16.3185 5.9856 16.3282 5.9856C16.3379 5.9856 16.3476 5.9856 16.3573 5.9856C16.367 5.9856 16.3767 5.9856 16.3863 5.9856C16.396 5.9856 16.4056 5.9856 16.4152 5.9856C16.4249 5.9856 16.4345 5.9856 16.4441 5.9856C16.4537 5.9856 16.4632 5.9856 16.4728 5.9856C16.4823 5.9856 16.4919 5.9856 16.5014 5.9856C16.5109 5.9856 16.5204 5.9856 16.5299 5.9856C16.5394 5.9856 16.5489 5.9856 16.5583 5.9856C16.5678 5.9856 16.5772 5.9856 16.5866 5.9856C16.5961 5.9856 16.6055 5.9856 16.6149 5.9856C16.6242 5.9856 16.6336 5.9856 16.643 5.9856C16.6523 5.9856 16.6617 5.9856 16.671 5.9856C16.6803 5.9856 16.6896 5.9856 16.6989 5.9856C16.7082 5.9856 16.7174 5.9856 16.7267 5.9856C16.7359 5.9856 16.7452 5.9856 16.7544 5.9856C16.7636 5.9856 16.7728 5.9856 16.782 5.9856C16.7911 5.9856 16.8003 5.9856 16.8094 5.9856C16.8186 5.9856 16.8277 5.9856 16.8368 5.9856C16.8459 5.9856 16.855 5.9856 16.8641 5.9856C16.8732 5.9856 16.8822 5.9856 16.8913 5.9856C16.9003 5.9856 16.9093 5.9856 16.9183 5.9856C16.9273 5.9856 16.9363 5.9856 16.9453 5.9856C16.9542 5.9856 16.9632 5.9856 16.9721 5.9856C16.981 5.9856 16.9899 5.9856 16.9988 5.9856C17.0077 5.9856 17.0166 5.9856 17.0254 5.9856C17.0343 5.9856 17.0431 5.9856 17.0519 5.9856C17.0608 5.9856 17.0696 5.9856 17.0783 5.9856C17.0871 5.9856 17.0959 5.9856 17.1046 5.9856C17.1134 5.9856 17.1221 5.9856 17.1308 5.9856C17.1395 5.9856 17.1482 5.9856 17.1568 5.9856C17.1655 5.9856 17.1742 5.9856 17.1828 5.9856C17.1914 5.9856 17.2 5.9856 17.2086 5.9856C17.2172 5.9856 17.2258 5.9856 17.2343 5.9856C17.2429 5.9856 17.2514 5.9856 17.2599 5.9856C17.2684 5.9856 17.2769 5.9856 17.2854 5.9856C17.2939 5.9856 17.3024 5.9856 17.3108 5.9856C17.3192 5.9856 17.3276 5.9856 17.336 5.9856C17.3444 5.9856 17.3528 5.9856 17.3612 5.9856C17.3695 5.9856 17.3779 5.9856 17.3862 5.9856C17.3945 5.9856 17.4028 5.9856 17.4111 5.9856C17.4194 5.9856 17.4276 5.9856 17.4359 5.9856C17.4441 5.9856 17.4523 5.9856 17.4605 5.9856C17.4687 5.9856 17.4769 5.9856 17.4851 5.9856C17.4932 5.9856 17.5014 5.9856 17.5095 5.9856C17.5176 5.9856 17.5257 5.9856 17.5338 5.9856C17.5419 5.9856 17.5499 5.9856 17.558 5.9856C17.566 5.9856 17.574 5.9856 17.582 5.9856C17.59 5.9856 17.598 5.9856 17.606 5.9856C17.6139 5.9856 17.6219 5.9856 17.6298 5.9856C17.6377 5.9856 17.6456 5.9856 17.6535 5.9856C17.6613 5.9856 17.6692 5.9856 17.677 5.9856C17.6849 5.9856 17.6927 5.9856 17.7005 5.9856C17.7083 5.9856 17.716 5.9856 17.7238 5.9856C17.7315 5.9856 17.7393 5.9856 17.747 5.9856C17.7547 5.9856 17.7624 5.9856 17.77 5.9856C17.7777 5.9856 17.7853 5.9856 17.793 5.9856C17.8006 5.9856 17.8082 5.9856 17.8158 5.9856C17.8234 5.9856 17.8309 5.9856 17.8385 5.9856C17.846 5.9856 17.8535 5.9856 17.861 5.9856C17.8685 5.9856 17.876 5.9856 17.8834 5.9856C17.8909 5.9856 17.8983 5.9856 17.9057 5.9856C17.9131 5.9856 17.9205 5.9856 17.9279 5.9856C17.9353 5.9856 17.9426 5.9856 17.9499 5.9856C17.9572 5.9856 17.9645 5.9856 17.9718 5.9856C17.9791 5.9856 17.9864 5.9856 17.9936 5.9856C18.0008 5.9856 18.008 5.9856 18.0152 5.9856C18.0224 5.9856 18.0296 5.9856 18.0367 5.9856C18.0439 5.9856 18.051 5.9856 18.0581 5.9856C18.0652 5.9856 18.0723 5.9856 18.0793 5.9856C18.0864 5.9856 18.0934 5.9856 18.1005 5.9856C18.1075 5.9856 18.1145 5.9856 18.1214 5.9856C18.1284 5.9856 18.1353 5.9856 18.1423 5.9856C18.1492 5.9856 18.1561 5.9856 18.163 5.9856C18.1698 5.9856 18.1767 5.9856 18.1835 5.9856C18.1903 5.9856 18.1972 5.9856 18.2039 5.9856C18.2107 5.9856 18.2175 5.9856 18.2242 5.9856C18.231 5.9856 18.2377 5.9856 18.2444 5.9856C18.2511 5.9856 18.2577 5.9856 18.2644 5.9856C18.271 5.9856 18.2777 5.9856 18.2843 5.9856C18.2909 5.9856 18.2974 5.9856 18.304 5.9856C18.3105 5.9856 18.3171 5.9856 18.3236 5.9856C18.3301 5.9856 18.3366 5.9856 18.343 5.9856C18.3495 5.9856 18.3559 5.9856 18.3623 5.9856C18.3688 5.9856 18.3751 5.9856 18.3815 5.9856C18.3879 5.9856 18.3942 5.9856 18.4005 5.9856C18.4069 5.9856 18.4132 5.9856 18.4194 5.9856C18.4257 5.9856 18.4319 5.9856 18.4382 5.9856C18.4444 5.9856 18.4506 5.9856 18.4568 5.9856C18.4629 5.9856 18.4691 5.9856 18.4752 5.9856C18.4813 5.9856 18.4874 5.9856 18.4935 5.9856C18.4996 5.9856 18.5056 5.9856 18.5117 5.9856C18.5177 5.9856 18.5237 5.9856 18.5297 5.9856C18.5357 5.9856 18.5416 5.9856 18.5476 5.9856C18.5535 5.9856 18.5594 5.9856 18.5653 5.9856C18.5712 5.9856 18.577 5.9856 18.5829 5.9856C18.5887 5.9856 18.5945 5.9856 18.6003 5.9856C18.6061 5.9856 18.6118 5.9856 18.6176 5.9856C18.6233 5.9856 18.629 5.9856 18.6347 5.9856C18.6404 5.9856 18.646 5.9856 18.6517 5.9856C18.6573 5.9856 18.6629 5.9856 18.6685 5.9856C18.6741 5.9856 18.6796 5.9856 18.6852 5.9856C18.6907 5.9856 18.6962 5.9856 18.7017 5.9856C18.7072 5.9856 18.7126 5.9856 18.7181 5.9856C18.7235 5.9856 18.7289 5.9856 18.7343 5.9856C18.7397 5.9856 18.745 5.9856 18.7503 5.9856C18.7557 5.9856 18.761 5.9856 18.7663 5.9856C18.7715 5.9856 18.7768 5.9856 18.782 5.9856C18.7872 5.9856 18.7924 5.9856 18.7976 5.9856C18.8028 5.9856 18.8079 5.9856 18.8131 5.9856C18.8182 5.9856 18.8233 5.9856 18.8284 5.9856C18.8334 5.9856 18.8385 5.9856 18.8435 5.9856C18.8485 5.9856 18.8535 5.9856 18.8585 5.9856C18.8634 5.9856 18.8684 5.9856 18.8733 5.9856C18.8782 5.9856 18.8831 5.9856 18.888 5.9856C18.8928 5.9856 18.8977 5.9856 18.9025 5.9856C18.9073 5.9856 18.9121 5.9856 18.9168 5.9856C18.9216 5.9856 18.9263 5.9856 18.931 5.9856C18.9357 5.9856 18.9404 5.9856 18.945 5.9856C18.9497 5.9856 18.9543 5.9856 18.9589 5.9856C18.9635 5.9856 18.9681 5.9856 18.9726 5.9856C18.9772 5.9856 18.9817 5.9856 18.9862 5.9856C18.9907 5.9856 18.9951 5.9856 18.9995 5.9856C19.004 5.9856 19.0084 5.9856 19.0128 5.9856C19.0171 5.9856 19.0215 5.9856 19.0258 5.9856C19.0301 5.9856 19.0344 5.9856 19.0387 5.9856C19.043 5.9856 19.0472 5.9856 19.0514 5.9856C19.0557 5.9856 19.0599 5.9856 19.064 5.9856C19.0682 5.9856 19.0723 5.9856 19.0764 5.9856C19.0805 5.9856 19.0846 5.9856 19.0886 5.9856C19.0927 5.9856 19.0967 5.9856 19.1007 5.9856C19.1047 5.9856 19.1087 5.9856 19.1126 5.9856C19.1166 5.9856 19.1205 5.9856 19.1243 5.9856C19.1282 5.9856 19.1321 5.9856 19.1359 5.9856C19.1397 5.9856 19.1435 5.9856 19.1473 5.9856C19.1511 5.9856 19.1548 5.9856 19.1585 5.9856C19.1622 5.9856 19.1659 5.9856 19.1696 5.9856C19.1732 5.9856 19.1769 5.9856 19.1805 5.9856C19.1841 5.9856 19.1877 5.9856 19.1912 5.9856C19.1947 5.9856 19.1983 5.9856 19.2017 5.9856C19.2052 5.9856 19.2087 5.9856 19.2121 5.9856C19.2155 5.9856 19.2189 5.9856 19.2223 5.9856C19.2257 5.9856 19.229 5.9856 19.2323 5.9856C19.2357 5.9856 19.2389 5.9856 19.2422 5.9856C19.2455 5.9856 19.2487 5.9856 19.2519 5.9856C19.2551 5.9856 19.2582 5.9856 19.2614 5.9856C19.2645 5.9856 19.2676 5.9856 19.2707 5.9856C19.2738 5.9856 19.2768 5.9856 19.2799 5.9856C19.2829 5.9856 19.2859 5.9856 19.2889 5.9856C19.2918 5.9856 19.2947 5.9856 19.2977 5.9856C19.3006 5.9856 19.3034 5.9856 19.3063 5.9856C19.3091 5.9856 19.3119 5.9856 19.3147 5.9856C19.3175 5.9856 19.3203 5.9856 19.323 5.9856C19.3257 5.9856 19.3284 5.9856 19.3311 5.9856C19.3338 5.9856 19.3364 5.9856 19.339 5.9856C19.3416 5.9856 19.3442 5.9856 19.3467 5.9856C19.3493 5.9856 19.3518 5.9856 19.3543 5.9856C19.3568 5.9856 19.3592 5.9856 19.3617 5.9856C19.3641 5.9856 19.3665 5.9856 19.3688 5.9856C19.3712 5.9856 19.3736 5.9856 19.3759 5.9856C19.3782 5.9856 19.3804 5.9856 19.3827 5.9856C19.3849 5.9856 19.3871 5.9856 19.3893 5.9856C19.3915 5.9856 19.3937 5.9856 19.3958 5.9856C19.3979 5.9856 19.4 5.9856 19.4021 5.9856C19.4041 5.9856 19.4061 5.9856 19.4081 5.9856C19.4101 5.9856 19.4121 5.9856 19.4141 5.9856C19.416 5.9856 19.4179 5.9856 19.4198 5.9856C19.4216 5.9856 19.4235 5.9856 19.4253 5.9856C19.4271 5.9856 19.4289 5.9856 19.4307 5.9856C19.4324 5.9856 19.4341 5.9856 19.4358 5.9856C19.4375 5.9856 19.4392 5.9856 19.4408 5.9856C19.4424 5.9856 19.444 5.9856 19.4456 5.9856C19.4471 5.9856 19.4487 5.9856 19.4502 5.9856C19.4517 5.9856 19.4531 5.9856 19.4546 5.9856C19.456 5.9856 19.4574 5.9856 19.4588 5.9856C19.4602 5.9856 19.4615 5.9856 19.4628 5.9856C19.4641 5.9856 19.4654 5.9856 19.4666 5.9856C19.4679 5.9856 19.4691 5.9856 19.4703 5.9856C19.4715 5.9856 19.4726 5.9856 19.4737 5.9856C19.4748 5.9856 19.4759 5.9856 19.477 5.9856C19.478 5.9856 19.4791 5.9856 19.48 5.9856C19.481 5.9856 19.482 5.9856 19.4829 5.9856C19.4838 5.9856 19.4847 5.9856 19.4856 5.9856C19.4864 5.9856 19.4873 5.9856 19.4881 5.9856C19.4889 5.9856 19.4896 5.9856 19.4904 5.9856C19.4911 5.9856 19.4918 5.9856 19.4924 5.9856C19.4931 5.9856 19.4937 5.9856 19.4943 5.9856C19.4949 5.9856 19.4955 5.9856 19.496 5.9856C19.4966 5.9856 19.4971 5.9856 19.4975 5.9856C19.498 5.9856 19.4984 5.9856 19.4988 5.9856C19.4992 5.9856 19.4996 5.9856 19.4999 5.9856C19.5003 5.9856 19.5006 5.9856 19.5008 5.9856C19.5011 5.9856 19.5013 5.9856 19.5015 5.9856C19.5017 5.9856 19.5019 5.9856 19.502 5.9856C19.5022 5.9856 19.5023 5.9856 19.5023 5.9856C19.5024 5.9856 19.5024 5.9856 19.5024 5.4856C19.5024 4.9856 19.5024 4.9856 19.5023 4.9856C19.5023 4.9856 19.5022 4.9856 19.502 4.9856C19.5019 4.9856 19.5017 4.9856 19.5015 4.9856C19.5013 4.9856 19.5011 4.9856 19.5008 4.9856C19.5006 4.9856 19.5003 4.9856 19.4999 4.9856C19.4996 4.9856 19.4992 4.9856 19.4988 4.9856C19.4984 4.9856 19.498 4.9856 19.4975 4.9856C19.4971 4.9856 19.4966 4.9856 19.496 4.9856C19.4955 4.9856 19.4949 4.9856 19.4943 4.9856C19.4937 4.9856 19.4931 4.9856 19.4924 4.9856C19.4918 4.9856 19.4911 4.9856 19.4904 4.9856C19.4896 4.9856 19.4889 4.9856 19.4881 4.9856C19.4873 4.9856 19.4864 4.9856 19.4856 4.9856C19.4847 4.9856 19.4838 4.9856 19.4829 4.9856C19.482 4.9856 19.481 4.9856 19.48 4.9856C19.4791 4.9856 19.478 4.9856 19.477 4.9856C19.4759 4.9856 19.4748 4.9856 19.4737 4.9856C19.4726 4.9856 19.4715 4.9856 19.4703 4.9856C19.4691 4.9856 19.4679 4.9856 19.4666 4.9856C19.4654 4.9856 19.4641 4.9856 19.4628 4.9856C19.4615 4.9856 19.4602 4.9856 19.4588 4.9856C19.4574 4.9856 19.456 4.9856 19.4546 4.9856C19.4531 4.9856 19.4517 4.9856 19.4502 4.9856C19.4487 4.9856 19.4471 4.9856 19.4456 4.9856C19.444 4.9856 19.4424 4.9856 19.4408 4.9856C19.4392 4.9856 19.4375 4.9856 19.4358 4.9856C19.4341 4.9856 19.4324 4.9856 19.4307 4.9856C19.4289 4.9856 19.4271 4.9856 19.4253 4.9856C19.4235 4.9856 19.4216 4.9856 19.4198 4.9856C19.4179 4.9856 19.416 4.9856 19.4141 4.9856C19.4121 4.9856 19.4101 4.9856 19.4081 4.9856C19.4061 4.9856 19.4041 4.9856 19.4021 4.9856C19.4 4.9856 19.3979 4.9856 19.3958 4.9856C19.3937 4.9856 19.3915 4.9856 19.3893 4.9856C19.3871 4.9856 19.3849 4.9856 19.3827 4.9856C19.3804 4.9856 19.3782 4.9856 19.3759 4.9856C19.3736 4.9856 19.3712 4.9856 19.3688 4.9856C19.3665 4.9856 19.3641 4.9856 19.3617 4.9856C19.3592 4.9856 19.3568 4.9856 19.3543 4.9856C19.3518 4.9856 19.3493 4.9856 19.3467 4.9856C19.3442 4.9856 19.3416 4.9856 19.339 4.9856C19.3364 4.9856 19.3338 4.9856 19.3311 4.9856C19.3284 4.9856 19.3257 4.9856 19.323 4.9856C19.3203 4.9856 19.3175 4.9856 19.3147 4.9856C19.3119 4.9856 19.3091 4.9856 19.3063 4.9856C19.3034 4.9856 19.3006 4.9856 19.2977 4.9856C19.2947 4.9856 19.2918 4.9856 19.2889 4.9856C19.2859 4.9856 19.2829 4.9856 19.2799 4.9856C19.2768 4.9856 19.2738 4.9856 19.2707 4.9856C19.2676 4.9856 19.2645 4.9856 19.2614 4.9856C19.2582 4.9856 19.2551 4.9856 19.2519 4.9856C19.2487 4.9856 19.2455 4.9856 19.2422 4.9856C19.2389 4.9856 19.2357 4.9856 19.2323 4.9856C19.229 4.9856 19.2257 4.9856 19.2223 4.9856C19.2189 4.9856 19.2155 4.9856 19.2121 4.9856C19.2087 4.9856 19.2052 4.9856 19.2017 4.9856C19.1983 4.9856 19.1947 4.9856 19.1912 4.9856C19.1877 4.9856 19.1841 4.9856 19.1805 4.9856C19.1769 4.9856 19.1732 4.9856 19.1696 4.9856C19.1659 4.9856 19.1622 4.9856 19.1585 4.9856C19.1548 4.9856 19.1511 4.9856 19.1473 4.9856C19.1435 4.9856 19.1397 4.9856 19.1359 4.9856C19.1321 4.9856 19.1282 4.9856 19.1243 4.9856C19.1205 4.9856 19.1166 4.9856 19.1126 4.9856C19.1087 4.9856 19.1047 4.9856 19.1007 4.9856C19.0967 4.9856 19.0927 4.9856 19.0886 4.9856C19.0846 4.9856 19.0805 4.9856 19.0764 4.9856C19.0723 4.9856 19.0682 4.9856 19.064 4.9856C19.0599 4.9856 19.0557 4.9856 19.0514 4.9856C19.0472 4.9856 19.043 4.9856 19.0387 4.9856C19.0344 4.9856 19.0301 4.9856 19.0258 4.9856C19.0215 4.9856 19.0171 4.9856 19.0128 4.9856C19.0084 4.9856 19.004 4.9856 18.9995 4.9856C18.9951 4.9856 18.9907 4.9856 18.9862 4.9856C18.9817 4.9856 18.9772 4.9856 18.9726 4.9856C18.9681 4.9856 18.9635 4.9856 18.9589 4.9856C18.9543 4.9856 18.9497 4.9856 18.945 4.9856C18.9404 4.9856 18.9357 4.9856 18.931 4.9856C18.9263 4.9856 18.9216 4.9856 18.9168 4.9856C18.9121 4.9856 18.9073 4.9856 18.9025 4.9856C18.8977 4.9856 18.8928 4.9856 18.888 4.9856C18.8831 4.9856 18.8782 4.9856 18.8733 4.9856C18.8684 4.9856 18.8634 4.9856 18.8585 4.9856C18.8535 4.9856 18.8485 4.9856 18.8435 4.9856C18.8385 4.9856 18.8334 4.9856 18.8284 4.9856C18.8233 4.9856 18.8182 4.9856 18.8131 4.9856C18.8079 4.9856 18.8028 4.9856 18.7976 4.9856C18.7924 4.9856 18.7872 4.9856 18.782 4.9856C18.7768 4.9856 18.7715 4.9856 18.7663 4.9856C18.761 4.9856 18.7557 4.9856 18.7503 4.9856C18.745 4.9856 18.7397 4.9856 18.7343 4.9856C18.7289 4.9856 18.7235 4.9856 18.7181 4.9856C18.7126 4.9856 18.7072 4.9856 18.7017 4.9856C18.6962 4.9856 18.6907 4.9856 18.6852 4.9856C18.6796 4.9856 18.6741 4.9856 18.6685 4.9856C18.6629 4.9856 18.6573 4.9856 18.6517 4.9856C18.646 4.9856 18.6404 4.9856 18.6347 4.9856C18.629 4.9856 18.6233 4.9856 18.6176 4.9856C18.6118 4.9856 18.6061 4.9856 18.6003 4.9856C18.5945 4.9856 18.5887 4.9856 18.5829 4.9856C18.577 4.9856 18.5712 4.9856 18.5653 4.9856C18.5594 4.9856 18.5535 4.9856 18.5476 4.9856C18.5416 4.9856 18.5357 4.9856 18.5297 4.9856C18.5237 4.9856 18.5177 4.9856 18.5117 4.9856C18.5056 4.9856 18.4996 4.9856 18.4935 4.9856C18.4874 4.9856 18.4813 4.9856 18.4752 4.9856C18.4691 4.9856 18.4629 4.9856 18.4568 4.9856C18.4506 4.9856 18.4444 4.9856 18.4382 4.9856C18.4319 4.9856 18.4257 4.9856 18.4194 4.9856C18.4132 4.9856 18.4069 4.9856 18.4005 4.9856C18.3942 4.9856 18.3879 4.9856 18.3815 4.9856C18.3751 4.9856 18.3688 4.9856 18.3623 4.9856C18.3559 4.9856 18.3495 4.9856 18.343 4.9856C18.3366 4.9856 18.3301 4.9856 18.3236 4.9856C18.3171 4.9856 18.3105 4.9856 18.304 4.9856C18.2974 4.9856 18.2909 4.9856 18.2843 4.9856C18.2777 4.9856 18.271 4.9856 18.2644 4.9856C18.2577 4.9856 18.2511 4.9856 18.2444 4.9856C18.2377 4.9856 18.231 4.9856 18.2242 4.9856C18.2175 4.9856 18.2107 4.9856 18.2039 4.9856C18.1972 4.9856 18.1903 4.9856 18.1835 4.9856C18.1767 4.9856 18.1698 4.9856 18.163 4.9856C18.1561 4.9856 18.1492 4.9856 18.1423 4.9856C18.1353 4.9856 18.1284 4.9856 18.1214 4.9856C18.1145 4.9856 18.1075 4.9856 18.1005 4.9856C18.0934 4.9856 18.0864 4.9856 18.0794 4.9856C18.0723 4.9856 18.0652 4.9856 18.0581 4.9856C18.051 4.9856 18.0439 4.9856 18.0367 4.9856C18.0296 4.9856 18.0224 4.9856 18.0152 4.9856C18.008 4.9856 18.0008 4.9856 17.9936 4.9856C17.9864 4.9856 17.9791 4.9856 17.9718 4.9856C17.9645 4.9856 17.9572 4.9856 17.9499 4.9856C17.9426 4.9856 17.9353 4.9856 17.9279 4.9856C17.9205 4.9856 17.9131 4.9856 17.9057 4.9856C17.8983 4.9856 17.8909 4.9856 17.8834 4.9856C17.876 4.9856 17.8685 4.9856 17.861 4.9856C17.8535 4.9856 17.846 4.9856 17.8385 4.9856C17.8309 4.9856 17.8234 4.9856 17.8158 4.9856C17.8082 4.9856 17.8006 4.9856 17.793 4.9856C17.7853 4.9856 17.7777 4.9856 17.77 4.9856C17.7624 4.9856 17.7547 4.9856 17.747 4.9856C17.7393 4.9856 17.7315 4.9856 17.7238 4.9856C17.716 4.9856 17.7083 4.9856 17.7005 4.9856C17.6927 4.9856 17.6849 4.9856 17.677 4.9856C17.6692 4.9856 17.6613 4.9856 17.6535 4.9856C17.6456 4.9856 17.6377 4.9856 17.6298 4.9856C17.6219 4.9856 17.6139 4.9856 17.606 4.9856C17.598 4.9856 17.59 4.9856 17.582 4.9856C17.574 4.9856 17.566 4.9856 17.558 4.9856C17.5499 4.9856 17.5419 4.9856 17.5338 4.9856C17.5257 4.9856 17.5176 4.9856 17.5095 4.9856C17.5014 4.9856 17.4932 4.9856 17.4851 4.9856C17.4769 4.9856 17.4687 4.9856 17.4605 4.9856C17.4523 4.9856 17.4441 4.9856 17.4359 4.9856C17.4276 4.9856 17.4194 4.9856 17.4111 4.9856C17.4028 4.9856 17.3945 4.9856 17.3862 4.9856C17.3779 4.9856 17.3695 4.9856 17.3612 4.9856C17.3528 4.9856 17.3444 4.9856 17.336 4.9856C17.3276 4.9856 17.3192 4.9856 17.3108 4.9856C17.3024 4.9856 17.2939 4.9856 17.2854 4.9856C17.2769 4.9856 17.2684 4.9856 17.2599 4.9856C17.2514 4.9856 17.2429 4.9856 17.2343 4.9856C17.2258 4.9856 17.2172 4.9856 17.2086 4.9856C17.2 4.9856 17.1914 4.9856 17.1828 4.9856C17.1742 4.9856 17.1655 4.9856 17.1568 4.9856C17.1482 4.9856 17.1395 4.9856 17.1308 4.9856C17.1221 4.9856 17.1134 4.9856 17.1046 4.9856C17.0959 4.9856 17.0871 4.9856 17.0783 4.9856C17.0696 4.9856 17.0608 4.9856 17.0519 4.9856C17.0431 4.9856 17.0343 4.9856 17.0254 4.9856C17.0166 4.9856 17.0077 4.9856 16.9988 4.9856C16.9899 4.9856 16.981 4.9856 16.9721 4.9856C16.9632 4.9856 16.9542 4.9856 16.9453 4.9856C16.9363 4.9856 16.9273 4.9856 16.9183 4.9856C16.9093 4.9856 16.9003 4.9856 16.8913 4.9856C16.8822 4.9856 16.8732 4.9856 16.8641 4.9856C16.855 4.9856 16.8459 4.9856 16.8368 4.9856C16.8277 4.9856 16.8186 4.9856 16.8094 4.9856C16.8003 4.9856 16.7911 4.9856 16.782 4.9856C16.7728 4.9856 16.7636 4.9856 16.7544 4.9856C16.7452 4.9856 16.7359 4.9856 16.7267 4.9856C16.7174 4.9856 16.7082 4.9856 16.6989 4.9856C16.6896 4.9856 16.6803 4.9856 16.671 4.9856C16.6617 4.9856 16.6523 4.9856 16.643 4.9856C16.6336 4.9856 16.6242 4.9856 16.6149 4.9856C16.6055 4.9856 16.5961 4.9856 16.5866 4.9856C16.5772 4.9856 16.5678 4.9856 16.5583 4.9856C16.5489 4.9856 16.5394 4.9856 16.5299 4.9856C16.5204 4.9856 16.5109 4.9856 16.5014 4.9856C16.4919 4.9856 16.4823 4.9856 16.4728 4.9856C16.4632 4.9856 16.4537 4.9856 16.4441 4.9856C16.4345 4.9856 16.4249 4.9856 16.4152 4.9856C16.4056 4.9856 16.396 4.9856 16.3863 4.9856C16.3767 4.9856 16.367 4.9856 16.3573 4.9856C16.3476 4.9856 16.3379 4.9856 16.3282 4.9856C16.3185 4.9856 16.3087 4.9856 16.299 4.9856C16.2892 4.9856 16.2795 4.9856 16.2697 4.9856C16.2599 4.9856 16.2501 4.9856 16.2403 4.9856C16.2305 4.9856 16.2206 4.9856 16.2108 4.9856C16.2009 4.9856 16.1911 4.9856 16.1812 4.9856C16.1713 4.9856 16.1614 4.9856 16.1515 4.9856C16.1416 4.9856 16.1317 4.9856 16.1217 4.9856C16.1118 4.9856 16.1018 4.9856 16.0918 4.9856C16.0819 4.9856 16.0719 4.9856 16.0619 4.9856C16.0519 4.9856 16.0418 4.9856 16.0318 4.9856C16.0218 4.9856 16.0117 4.9856 16.0017 4.9856C15.9916 4.9856 15.9815 4.9856 15.9714 4.9856C15.9613 4.9856 15.9512 4.9856 15.9411 4.9856C15.9309 4.9856 15.9208 4.9856 15.9106 4.9856C15.9005 4.9856 15.8903 4.9856 15.8801 4.9856C15.8699 4.9856 15.8597 4.9856 15.8495 4.9856C15.8393 4.9856 15.8291 4.9856 15.8188 4.9856C15.8086 4.9856 15.7983 4.9856 15.788 4.9856C15.7778 4.9856 15.7675 4.9856 15.7572 4.9856C15.7469 4.9856 15.7366 4.9856 15.7262 4.9856C15.7159 4.9856 15.7055 4.9856 15.6952 4.9856C15.6848 4.9856 15.6744 4.9856 15.664 4.9856C15.6537 4.9856 15.6432 4.9856 15.6328 4.9856C15.6224 4.9856 15.612 4.9856 15.6015 4.9856C15.5911 4.9856 15.5806 4.9856 15.5701 4.9856C15.5597 4.9856 15.5492 4.9856 15.5387 4.9856C15.5282 4.9856 15.5177 4.9856 15.5071 4.9856C15.4966 4.9856 15.486 4.9856 15.4755 4.9856C15.4649 4.9856 15.4544 4.9856 15.4438 4.9856C15.4332 4.9856 15.4226 4.9856 15.412 4.9856C15.4014 4.9856 15.3907 4.9856 15.3801 4.9856C15.3694 4.9856 15.3588 4.9856 15.3481 4.9856C15.3375 4.9856 15.3268 4.9856 15.3161 4.9856C15.3054 4.9856 15.2947 4.9856 15.284 4.9856C15.2732 4.9856 15.2625 4.9856 15.2518 4.9856C15.241 4.9856 15.2303 4.9856 15.2195 4.9856C15.2087 4.9856 15.1979 4.9856 15.1871 4.9856C15.1763 4.9856 15.1655 4.9856 15.1547 4.9856C15.1439 4.9856 15.133 4.9856 15.1222 4.9856C15.1113 4.9856 15.1005 4.9856 15.0896 4.9856C15.0787 4.9856 15.0678 4.9856 15.0569 4.9856C15.046 4.9856 15.0351 4.9856 15.0242 4.9856C15.0133 4.9856 15.0023 4.9856 14.9914 4.9856C14.9804 4.9856 14.9695 4.9856 14.9585 4.9856C14.9475 4.9856 14.9365 4.9856 14.9255 4.9856C14.9145 4.9856 14.9035 4.9856 14.8925 4.9856C14.8815 4.9856 14.8704 4.9856 14.8594 4.9856C14.8483 4.9856 14.8373 4.9856 14.8262 4.9856C14.8151 4.9856 14.804 4.9856 14.793 4.9856C14.7819 4.9856 14.7708 4.9856 14.7596 4.9856C14.7485 4.9856 14.7374 4.9856 14.7262 4.9856C14.7151 4.9856 14.7039 4.9856 14.6928 4.9856C14.6816 4.9856 14.6704 4.9856 14.6592 4.9856C14.6481 4.9856 14.6369 4.9856 14.6256 4.9856C14.6144 4.9856 14.6032 4.9856 14.592 4.9856C14.5807 4.9856 14.5695 4.9856 14.5582 4.9856C14.547 4.9856 14.5357 4.9856 14.5244 4.9856C14.5131 4.9856 14.5019 4.9856 14.4906 4.9856C14.4793 4.9856 14.4679 4.9856 14.4566 4.9856C14.4453 4.9856 14.434 4.9856 14.4226 4.9856C14.4113 4.9856 14.3999 4.9856 14.3885 4.9856C14.3772 4.9856 14.3658 4.9856 14.3544 4.9856C14.343 4.9856 14.3316 4.9856 14.3202 4.9856C14.3088 4.9856 14.2974 4.9856 14.286 4.9856C14.2745 4.9856 14.2631 4.9856 14.2516 4.9856C14.2402 4.9856 14.2287 4.9856 14.2172 4.9856C14.2058 4.9856 14.1943 4.9856 14.1828 4.9856C14.1713 4.9856 14.1598 4.9856 14.1483 4.9856C14.1368 4.9856 14.1252 4.9856 14.1137 4.9856C14.1022 4.9856 14.0906 4.9856 14.0791 4.9856C14.0675 4.9856 14.056 4.9856 14.0444 4.9856C14.0328 4.9856 14.0212 4.9856 14.0096 4.9856C13.998 4.9856 13.9864 4.9856 13.9748 4.9856C13.9632 4.9856 13.9516 4.9856 13.94 4.9856C13.9283 4.9856 13.9167 4.9856 13.905 4.9856C13.8934 4.9856 13.8817 4.9856 13.8701 4.9856C13.8584 4.9856 13.8467 4.9856 13.835 4.9856C13.8233 4.9856 13.8116 4.9856 13.7999 4.9856C13.7882 4.9856 13.7765 4.9856 13.7648 4.9856C13.753 4.9856 13.7413 4.9856 13.7296 4.9856C13.7178 4.9856 13.7061 4.9856 13.6943 4.9856C13.6825 4.9856 13.6708 4.9856 13.659 4.9856C13.6472 4.9856 13.6354 4.9856 13.6236 4.9856C13.6118 4.9856 13.6 4.9856 13.5882 4.9856C13.5764 4.9856 13.5646 4.9856 13.5527 4.9856C13.5409 4.9856 13.5291 4.9856 13.5172 4.9856C13.5054 4.9856 13.4935 4.9856 13.4816 4.9856C13.4698 4.9856 13.4579 4.9856 13.446 4.9856C13.4341 4.9856 13.4222 4.9856 13.4103 4.9856C13.3984 4.9856 13.3865 4.9856 13.3746 4.9856C13.3627 4.9856 13.3508 4.9856 13.3388 4.9856C13.3269 4.9856 13.3149 4.9856 13.303 4.9856C13.291 4.9856 13.2791 4.9856 13.2671 4.9856C13.2552 4.9856 13.2432 4.9856 13.2312 4.9856C13.2192 4.9856 13.2072 4.9856 13.1952 4.9856C13.1832 4.9856 13.1712 4.9856 13.1592 4.9856C13.1472 4.9856 13.1352 4.9856 13.1232 4.9856C13.1111 4.9856 13.0991 4.9856 13.0871 4.9856C13.075 4.9856 13.063 4.9856 13.0509 4.9856C13.0389 4.9856 13.0268 4.9856 13.0147 4.9856C13.0027 4.9856 12.9906 4.9856 12.9785 4.9856C12.9664 4.9856 12.9543 4.9856 12.9422 4.9856C12.9301 4.9856 12.918 4.9856 12.9059 4.9856C12.8938 4.9856 12.8816 4.9856 12.8695 4.9856C12.8574 4.9856 12.8453 4.9856 12.8331 4.9856C12.821 4.9856 12.8088 4.9856 12.7967 4.9856C12.7845 4.9856 12.7723 4.9856 12.7602 4.9856C12.748 4.9856 12.7358 4.9856 12.7236 4.9856C12.7115 4.9856 12.6993 4.9856 12.6871 4.9856C12.6749 4.9856 12.6627 4.9856 12.6505 4.9856C12.6383 4.9856 12.6261 4.9856 12.6138 4.9856C12.6016 4.9856 12.5894 4.9856 12.5771 4.9856C12.5649 4.9856 12.5527 4.9856 12.5404 4.9856C12.5282 4.9856 12.5159 4.9856 12.5037 4.9856C12.4914 4.9856 12.4791 4.9856 12.4669 4.9856C12.4546 4.9856 12.4423 4.9856 12.43 4.9856C12.4178 4.9856 12.4055 4.9856 12.3932 4.9856C12.3809 4.9856 12.3686 4.9856 12.3563 4.9856C12.344 4.9856 12.3317 4.9856 12.3194 4.9856C12.307 4.9856 12.2947 4.9856 12.2824 4.9856C12.2701 4.9856 12.2577 4.9856 12.2454 4.9856C12.233 4.9856 12.2207 4.9856 12.2084 4.9856C12.196 4.9856 12.1836 4.9856 12.1713 4.9856C12.1589 4.9856 12.1466 4.9856 12.1342 4.9856C12.1218 4.9856 12.1094 4.9856 12.0971 4.9856C12.0847 4.9856 12.0723 4.9856 12.0599 4.9856C12.0475 4.9856 12.0351 4.9856 12.0227 4.9856C12.0103 4.9856 11.9979 4.9856 11.9855 4.9856C11.9731 4.9856 11.9607 4.9856 11.9483 4.9856C11.9358 4.9856 11.9234 4.9856 11.911 4.9856C11.8986 4.9856 11.8861 4.9856 11.8737 4.9856C11.8613 4.9856 11.8488 4.9856 11.8364 4.9856C11.8239 4.9856 11.8115 4.9856 11.799 4.9856C11.7866 4.9856 11.7741 4.9856 11.7616 4.9856C11.7492 4.9856 11.7367 4.9856 11.7242 4.9856C11.7117 4.9856 11.6993 4.9856 11.6868 4.9856C11.6743 4.9856 11.6618 4.9856 11.6493 4.9856C11.6368 4.9856 11.6244 4.9856 11.6119 4.9856C11.5994 4.9856 11.5869 4.9856 11.5744 4.9856C11.5618 4.9856 11.5493 4.9856 11.5368 4.9856C11.5243 4.9856 11.5118 4.9856 11.4993 4.9856C11.4868 4.9856 11.4742 4.9856 11.4617 4.9856C11.4492 4.9856 11.4367 4.9856 11.4241 4.9856C11.4116 4.9856 11.399 4.9856 11.3865 4.9856C11.374 4.9856 11.3614 4.9856 11.3489 4.9856C11.3363 4.9856 11.3238 4.9856 11.3112 4.9856C11.2987 4.9856 11.2861 4.9856 11.2736 4.9856C11.261 4.9856 11.2484 4.9856 11.2359 4.9856C11.2233 4.9856 11.2107 4.9856 11.1982 4.9856C11.1856 4.9856 11.173 4.9856 11.1604 4.9856C11.1479 4.9856 11.1353 4.9856 11.1227 4.9856C11.1101 4.9856 11.0975 4.9856 11.0849 4.9856C11.0723 4.9856 11.0598 4.9856 11.0472 4.9856C11.0346 4.9856 11.022 4.9856 11.0094 4.9856C10.9968 4.9856 10.9842 4.9856 10.9716 4.9856C10.959 4.9856 10.9464 4.9856 10.9337 4.9856C10.9211 4.9856 10.9085 4.9856 10.8959 4.9856C10.8833 4.9856 10.8707 4.9856 10.8581 4.9856C10.8455 4.9856 10.8328 4.9856 10.8202 4.9856C10.8076 4.9856 10.795 4.9856 10.7823 4.9856C10.7697 4.9856 10.7571 4.9856 10.7445 4.9856C10.7318 4.9856 10.7192 4.9856 10.7066 4.9856C10.6939 4.9856 10.6813 4.9856 10.6687 4.9856C10.656 4.9856 10.6434 4.9856 10.6308 4.9856C10.6181 4.9856 10.6055 4.9856 10.5928 4.9856C10.5802 4.9856 10.5675 4.9856 10.5549 4.9856C10.5423 4.9856 10.5296 4.9856 10.517 4.9856C10.5043 4.9856 10.4917 4.9856 10.479 4.9856C10.4664 4.9856 10.4537 4.9856 10.4411 4.9856C10.4284 4.9856 10.4157 4.9856 10.4031 4.9856C10.3904 4.9856 10.3778 4.9856 10.3651 4.9856C10.3525 4.9856 10.3398 4.9856 10.3271 4.9856C10.3145 4.9856 10.3018 4.9856 10.2892 4.9856C10.2765 4.9856 10.2638 4.9856 10.2512 4.9856C10.2385 4.9856 10.2259 4.9856 10.2132 4.9856C10.2005 4.9856 10.1879 4.9856 10.1752 4.9856C10.1625 4.9856 10.1499 4.9856 10.1372 4.9856C10.1245 4.9856 10.1119 4.9856 10.0992 4.9856C10.0865 4.9856 10.0739 4.9856 10.0612 4.9856C10.0485 4.9856 10.0359 4.9856 10.0232 4.9856C10.0105 4.9856 9.99788 4.9856 9.98521 4.9856C9.97254 4.9856 9.95988 4.9856 9.94721 4.9856C9.93454 4.9856 9.92187 4.9856 9.90921 4.9856C9.89654 4.9856 9.88387 4.9856 9.8712 4.9856C9.85854 4.9856 9.84587 4.9856 9.83321 4.9856C9.82054 4.9856 9.80787 4.9856 9.79521 4.9856C9.78254 4.9856 9.76988 4.9856 9.75721 4.9856C9.74455 4.9856 9.73188 4.9856 9.71922 4.9856C9.70655 4.9856 9.69389 4.9856 9.68123 4.9856C9.66857 4.9856 9.6559 4.9856 9.64324 4.9856C9.63058 4.9856 9.61792 4.9856 9.60526 4.9856C9.5926 4.9856 9.57994 4.9856 9.56729 4.9856C9.55463 4.9856 9.54197 4.9856 9.52932 4.9856C9.51666 4.9856 9.504 4.9856 9.49135 4.9856C9.4787 4.9856 9.46604 4.9856 9.45339 4.9856C9.44074 4.9856 9.42809 4.9856 9.41544 4.9856C9.40279 4.9856 9.39014 4.9856 9.3775 4.9856C9.36485 4.9856 9.35221 4.9856 9.33956 4.9856C9.32692 4.9856 9.31428 4.9856 9.30164 4.9856C9.289 4.9856 9.27636 4.9856 9.26372 4.9856C9.25108 4.9856 9.23845 4.9856 9.22581 4.9856C9.21318 4.9856 9.20055 4.9856 9.18792 4.9856C9.17529 4.9856 9.16266 4.9856 9.15003 4.9856C9.1374 4.9856 9.12478 4.9856 9.11216 4.9856C9.09953 4.9856 9.08691 4.9856 9.07429 4.9856C9.06167 4.9856 9.04906 4.9856 9.03644 4.9856C9.02383 4.9856 9.01122 4.9856 8.99861 4.9856C8.986 4.9856 8.97339 4.9856 8.96078 4.9856C8.94818 4.9856 8.93557 4.9856 8.92297 4.9856C8.91037 4.9856 8.89777 4.9856 8.88518 4.9856C8.87258 4.9856 8.85999 4.9856 8.8474 4.9856C8.83481 4.9856 8.82222 4.9856 8.80964 4.9856C8.79705 4.9856 8.78447 4.9856 8.77189 4.9856C8.75931 4.9856 8.74673 4.9856 8.73416 4.9856C8.72158 4.9856 8.70901 4.9856 8.69644 4.9856C8.68388 4.9856 8.67131 4.9856 8.65875 4.9856C8.64619 4.9856 8.63363 4.9856 8.62107 4.9856C8.60851 4.9856 8.59596 4.9856 8.58341 4.9856C8.57086 4.9856 8.55832 4.9856 8.54577 4.9856C8.53323 4.9856 8.52069 4.9856 8.50815 4.9856C8.49562 4.9856 8.48309 4.9856 8.47056 4.9856C8.45803 4.9856 8.4455 4.9856 8.43298 4.9856C8.42046 4.9856 8.40794 4.9856 8.39542 4.9856C8.38291 4.9856 8.3704 4.9856 8.35789 4.9856C8.34538 4.9856 8.33288 4.9856 8.32038 4.9856C8.30788 4.9856 8.29538 4.9856 8.28289 4.9856C8.2704 4.9856 8.25791 4.9856 8.24543 4.9856C8.23294 4.9856 8.22046 4.9856 8.20799 4.9856C8.19551 4.9856 8.18304 4.9856 8.17057 4.9856C8.1581 4.9856 8.14564 4.9856 8.13318 4.9856C8.12072 4.9856 8.10827 4.9856 8.09582 4.9856C8.08337 4.9856 8.07092 4.9856 8.05848 4.9856C8.04604 4.9856 8.0336 4.9856 8.02117 4.9856C8.00874 4.9856 7.99631 4.9856 7.98389 4.9856C7.97147 4.9856 7.95905 4.9856 7.94663 4.9856C7.93422 4.9856 7.92181 4.9856 7.90941 4.9856C7.897 4.9856 7.88461 4.9856 7.87221 4.9856C7.85982 4.9856 7.84743 4.9856 7.83504 4.9856C7.82266 4.9856 7.81028 4.9856 7.79791 4.9856C7.78553 4.9856 7.77316 4.9856 7.7608 4.9856C7.74844 4.9856 7.73608 4.9856 7.72372 4.9856C7.71137 4.9856 7.69902 4.9856 7.68668 4.9856C7.67434 4.9856 7.662 4.9856 7.64967 4.9856C7.63734 4.9856 7.62501 4.9856 7.61269 4.9856C7.60037 4.9856 7.58806 4.9856 7.57575 4.9856C7.56344 4.9856 7.55113 4.9856 7.53883 4.9856C7.52654 4.9856 7.51425 4.9856 7.50196 4.9856C7.48967 4.9856 7.47739 4.9856 7.46512 4.9856C7.45284 4.9856 7.44057 4.9856 7.42831 4.9856C7.41605 4.9856 7.40379 4.9856 7.39154 4.9856C7.37929 4.9856 7.36705 4.9856 7.35481 4.9856C7.34257 4.9856 7.33034 4.9856 7.31811 4.9856C7.30588 4.9856 7.29366 4.9856 7.28145 4.9856C7.26924 4.9856 7.25703 4.9856 7.24483 4.9856C7.23263 4.9856 7.22044 4.9856 7.20825 4.9856C7.19606 4.9856 7.18388 4.9856 7.17171 4.9856C7.15953 4.9856 7.14737 4.9856 7.1352 4.9856C7.12304 4.9856 7.11089 4.9856 7.09874 4.9856C7.08659 4.9856 7.07445 4.9856 7.06232 4.9856C7.05019 4.9856 7.03806 4.9856 7.02594 4.9856C7.01382 4.9856 7.00171 4.9856 6.9896 4.9856C6.9775 4.9856 6.9654 4.9856 6.95331 4.9856C6.94122 4.9856 6.92913 4.9856 6.91705 4.9856C6.90498 4.9856 6.89291 4.9856 6.88085 4.9856C6.86878 4.9856 6.85673 4.9856 6.84468 4.9856C6.83263 4.9856 6.82059 4.9856 6.80856 4.9856C6.79653 4.9856 6.7845 4.9856 6.77249 4.9856C6.76047 4.9856 6.74846 4.9856 6.73646 4.9856C6.72445 4.9856 6.71246 4.9856 6.70047 4.9856C6.68849 4.9856 6.67651 4.9856 6.66454 4.9856C6.65257 4.9856 6.6406 4.9856 6.62865 4.9856C6.61669 4.9856 6.60474 4.9856 6.59281 4.9856C6.58087 4.9856 6.56894 4.9856 6.55701 4.9856C6.54509 4.9856 6.53318 4.9856 6.52127 4.9856C6.50936 4.9856 6.49747 4.9856 6.48557 4.9856C6.47369 4.9856 6.4618 4.9856 6.44993 4.9856C6.43806 4.9856 6.42619 4.9856 6.41434 4.9856C6.40248 4.9856 6.39063 4.9856 6.37879 4.9856C6.36695 4.9856 6.35512 4.9856 6.3433 4.9856C6.33148 4.9856 6.31967 4.9856 6.30786 4.9856C6.29606 4.9856 6.28426 4.9856 6.27248 4.9856C6.26069 4.9856 6.24891 4.9856 6.23714 4.9856C6.22537 4.98559 6.21362 4.98559 6.20186 4.98559C6.19011 4.98559 6.17837 4.98559 6.16664 4.98559C6.15491 4.98559 6.14318 4.98559 6.13147 4.98559C6.11975 4.98559 6.10805 4.98559 6.09635 4.98559C6.08466 4.98559 6.07297 4.98559 6.06129 4.98559C6.04962 4.98559 6.03795 4.98559 6.02629 4.98559C6.01463 4.98559 6.00299 4.98559 5.99134 4.98559C5.97971 4.98559 5.96808 4.98559 5.95646 4.98559C5.94484 4.98559 5.93323 4.98559 5.92163 4.98559C5.91003 4.98559 5.89844 4.98559 5.88685 4.98559C5.87527 4.98559 5.8637 4.98559 5.85214 4.98559C5.84058 4.98559 5.82903 4.98559 5.81749 4.98559C5.80595 4.98559 5.79442 4.98559 5.7829 4.98559C5.77138 4.98559 5.75986 4.98559 5.74836 4.98559C5.73686 4.98559 5.72537 4.98559 5.71389 4.98559C5.70241 4.98559 5.69094 4.98559 5.67948 4.98559C5.66802 4.98559 5.65657 4.98559 5.64514 4.98559C5.6337 4.98559 5.62227 4.98559 5.61085 4.98559C5.59944 4.98559 5.58803 4.98559 5.57663 4.98559C5.56524 4.98559 5.55385 4.98559 5.54247 4.98559C5.5311 4.98559 5.51974 4.98559 5.50838 4.98559C5.49703 4.98559 5.48569 4.98559 5.47436 4.98559C5.46302 4.98559 5.4517 4.98559 5.44039 4.98559C5.42908 4.98559 5.41779 4.98559 5.4065 4.98559C5.39521 4.98559 5.38393 4.98559 5.37267 4.98559C5.3614 4.98559 5.35015 4.98559 5.33891 4.98559C5.32766 4.98559 5.31643 4.98559 5.30521 4.98559C5.29399 4.98559 5.28278 4.98559 5.27159 4.98559C5.26039 4.98559 5.2492 4.98559 5.23803 4.98559C5.22685 4.98559 5.21569 4.98559 5.20454 4.98559C5.19339 4.98559 5.18225 4.98559 5.17112 4.98559C5.15999 4.98559 5.14888 4.98559 5.13778 4.98559C5.12667 4.98559 5.11558 4.98559 5.1045 4.98559C5.09342 4.98559 5.08235 4.98559 5.07129 4.98559C5.06024 4.98559 5.04919 4.98559 5.03816 4.98559L5.03816 5.48559ZM19.5024 5.4856L19.5024 5.9856C20.1158 5.9856 20.7039 6.22923 21.1376 6.66291L21.4912 6.30936L21.8447 5.9558C21.2235 5.33459 20.381 4.9856 19.5024 4.9856L19.5024 5.4856ZM21.4912 6.30936L21.1376 6.66291C21.5713 7.09659 21.8149 7.68478 21.8149 8.2981L22.3149 8.2981L22.8149 8.2981C22.8149 7.41957 22.4659 6.57702 21.8447 5.9558L21.4912 6.30936ZM22.3149 8.2981L21.8149 8.29809C21.8149 8.91141 21.5713 9.4996 21.1376 9.93328L21.4912 10.2868L21.8447 10.6404C22.4659 10.0192 22.8149 9.17662 22.8149 8.2981L22.3149 8.2981ZM21.4912 10.2868L21.1376 9.93328C20.7039 10.367 20.1158 10.6106 19.5024 10.6106L19.5024 11.1106L19.5024 11.6106C20.381 11.6106 21.2235 11.2616 21.8447 10.6404L21.4912 10.2868ZM19.5024 11.1106L19.5024 10.6106L16.4221 10.6106L16.4221 11.1106L16.4221 11.6106L19.5024 11.6106L19.5024 11.1106Z" fill="black"/>
<path d="M19.6645 20.4025C21.1372 20.4025 22.3311 19.2086 22.3311 17.7358C22.3311 16.2631 21.1372 15.0692 19.6645 15.0692C18.1917 15.0692 16.9978 16.2631 16.9978 17.7358C16.9978 19.2086 18.1917 20.4025 19.6645 20.4025ZM5.2002 17.7358L5.2002 18.2358L5.2002 17.7358ZM2.3877 14.9233L1.8877 14.9233L2.3877 14.9233ZM8.28055 12.6108C8.55669 12.6108 8.78055 12.387 8.78055 12.1108C8.78055 11.8347 8.55669 11.6108 8.28055 11.6108L8.28055 12.1108L8.28055 12.6108ZM10.8763 17.2358C10.6001 17.2358 10.3763 17.4597 10.3763 17.7358C10.3763 18.012 10.6001 18.2358 10.8763 18.2358L10.8763 17.7358L10.8763 17.2358ZM8.00098 18.2358C8.27712 18.2358 8.50098 18.012 8.50098 17.7358C8.50098 17.4597 8.27712 17.2358 8.00098 17.2358L8.00098 17.7358L8.00098 18.2358ZM5.2002 17.7358L5.2002 17.2358C4.58688 17.2358 3.99869 16.9922 3.56501 16.5585L3.21146 16.9121L2.8579 17.2656C3.47912 17.8868 4.32167 18.2358 5.2002 18.2358L5.2002 17.7358ZM3.21146 16.9121L3.56501 16.5585C3.13133 16.1248 2.8877 15.5367 2.8877 14.9233L2.3877 14.9233L1.8877 14.9233C1.8877 15.8019 2.23669 16.6444 2.8579 17.2656L3.21146 16.9121ZM2.3877 14.9233L2.8877 14.9233C2.8877 14.31 3.13133 13.7218 3.56501 13.2882L3.21146 12.9346L2.8579 12.581C2.23669 13.2023 1.8877 14.0448 1.8877 14.9233L2.3877 14.9233ZM3.21146 12.9346L3.56501 13.2882C3.99869 12.8545 4.58688 12.6108 5.2002 12.6108L5.2002 12.1108L5.2002 11.6108C4.32167 11.6108 3.47912 11.9598 2.8579 12.581L3.21146 12.9346ZM5.2002 12.1108L5.2002 12.6108L8.28055 12.6108L8.28055 12.1108L8.28055 11.6108L5.2002 11.6108L5.2002 12.1108ZM19.6645 17.7358L19.6645 17.2358C18.4971 17.2358 17.1937 17.2358 15.8615 17.2358C14.5288 17.2358 13.1674 17.2358 11.8816 17.2358L11.8816 17.7358L11.8816 18.2358C13.1664 18.2358 14.5298 18.2358 15.8615 18.2358C17.1942 18.2358 18.4966 18.2358 19.6645 18.2358L19.6645 17.7358ZM11.8816 17.7358L11.8816 17.2358C11.5389 17.2358 11.2063 17.2358 10.8763 17.2358L10.8763 17.7358L10.8763 18.2358C11.2063 18.2358 11.5389 18.2358 11.8816 18.2358L11.8816 17.7358ZM11.8816 17.7358L11.8816 17.2358L10.8763 17.2358L10.8763 17.7358L10.8763 18.2358L11.8816 18.2358L11.8816 17.7358ZM8.00098 17.7358L8.00098 17.2358C7.15706 17.2358 6.45662 17.2358 5.96756 17.2358C5.72308 17.2358 5.53101 17.2358 5.40043 17.2358C5.33516 17.2358 5.28495 17.2358 5.2513 17.2358C5.23531 17.2358 5.2208 17.2358 5.2131 17.2358C5.20475 17.2358 5.20967 17.2358 5.20344 17.2358C5.1998 17.2358 5.20411 17.2358 5.20101 17.2358C5.18864 17.2358 5.21263 17.2358 5.2004 17.2358C5.20036 17.2358 5.20034 17.2358 5.20031 17.2358C5.20028 17.2358 5.20026 17.2358 5.20025 17.2358C5.20023 17.2358 5.20022 17.2358 5.20021 17.2358C5.2002 17.2358 5.2002 17.2358 5.2002 17.7358C5.2002 18.2358 5.2002 18.2358 5.20021 18.2358C5.20022 18.2358 5.20023 18.2358 5.20025 18.2358C5.20026 18.2358 5.20028 18.2358 5.20031 18.2358C5.20034 18.2358 5.20036 18.2358 5.2004 18.2358C5.20043 18.2358 5.20047 18.2358 5.20051 18.2358C5.20056 18.2358 5.2006 18.2358 5.20065 18.2358C5.2007 18.2358 5.20076 18.2358 5.20082 18.2358C5.20088 18.2358 5.20094 18.2358 5.20101 18.2358C5.20615 18.2358 5.19674 18.2358 5.20202 18.2358C5.20692 18.2358 5.19841 18.2358 5.20344 18.2358C5.20463 18.2358 5.20979 18.2358 5.2131 18.2358C5.22244 18.2358 5.23366 18.2358 5.2513 18.2358C5.28495 18.2358 5.33516 18.2358 5.40043 18.2358C5.53101 18.2358 5.72308 18.2358 5.96756 18.2358C6.45677 18.2358 7.15691 18.2358 8.00098 18.2358L8.00098 17.7358Z" fill="black"/>
<path d="M12.2148 15.4375C14.2859 15.4375 15.9648 13.7586 15.9648 11.6875C15.9648 9.61643 14.2859 7.9375 12.2148 7.9375C10.1438 7.9375 8.46484 9.61643 8.46484 11.6875C8.46484 13.7586 10.1438 15.4375 12.2148 15.4375Z" stroke="black" stroke-linecap="round" stroke-linejoin="round"/>
<path d="M12.2148 9.5V11.6875H14.4023" stroke="black" stroke-linecap="round" stroke-linejoin="round"/>
</svg>
