<svg width="24" height="24" viewBox="0 0 24 24" fill="none" xmlns="http://www.w3.org/2000/svg">
<path d="M12 16.8462H12.907C14.7285 16.8462 16.32 15.6156 16.7783 13.8527L17 13M12 16.8462H11.093C9.27151 16.8462 7.68005 15.6156 7.2217 13.8527L7 13M12 16.8462V21M12 21H8M12 21H16M18.5 7L19.0918 3.91766C19.191 3.4011 18.8621 2.93484 18.3371 2.96698C17.9016 2.99365 17.299 3.07052 16.5 3.25267M18.5 7L20.4219 9.24716C20.7936 9.68175 20.9879 10.2404 20.9662 10.8118C20.9198 12.0335 19.916 13 18.6934 13H17M18.5 7L17 13M5.48377 7L4.86583 3.71212C4.78599 3.28727 5.02042 2.94218 5.4519 2.96838C5.86668 2.99356 6.51019 3.06906 7.5 3.25267M5.48377 7L3.53541 9.29297C3.18977 9.69974 3 10.2161 3 10.7499C3 11.9926 4.00739 13 5.25007 13H7M5.48377 7L7 13" stroke="black" stroke-width="1.2" stroke-linecap="round"/>
<g clip-path="url(#clip0_4522_14334)">
<path d="M8.64651 4.62282C8.6352 4.72394 8.62845 4.82548 8.62627 4.92709C8.6072 5.81497 8.93644 6.70895 9.614 7.38651C10.932 8.70453 13.069 8.70453 14.387 7.38651C15.705 6.06849 15.705 3.93156 14.387 2.61354C13.069 1.29552 10.932 1.29552 9.614 2.61354C9.51385 2.71369 9.42131 2.81857 9.33638 2.92746" stroke="black" stroke-linecap="round" stroke-linejoin="round"/>
<path d="M12 5V6.5" stroke="black" stroke-linecap="round"/>
<circle cx="12" cy="3.87476" r="0.375" fill="black"/>
</g>
<defs>
<clipPath id="clip0_4522_14334">
<rect width="9" height="9" fill="white" transform="translate(7.5 0.5)"/>
</clipPath>
</defs>
</svg>
