<svg width="83" height="83" viewBox="0 0 83 83" fill="none" xmlns="http://www.w3.org/2000/svg">
<rect x="0.25" y="0.25" width="82.5" height="82.5" rx="11.75" fill="black"/>
<rect x="0.25" y="0.25" width="82.5" height="82.5" rx="11.75" stroke="#ACACAC" stroke-width="0.5"/>
<path d="M42.5799 40.712L37.7939 34.002C37.7384 33.924 37.6651 33.8605 37.58 33.8167C37.4949 33.7728 37.4006 33.75 37.3049 33.75H34.7789C34.6688 33.7501 34.5609 33.7806 34.4669 33.838C34.373 33.8954 34.2966 33.9775 34.2462 34.0754C34.1958 34.1733 34.1733 34.2831 34.1812 34.393C34.1891 34.5028 34.2271 34.6083 34.2909 34.698L40.4179 43.288M42.5799 40.712L48.7069 49.302C48.7708 49.3917 48.8087 49.4972 48.8166 49.607C48.8245 49.7169 48.802 49.8267 48.7516 49.9246C48.7012 50.0225 48.6249 50.1046 48.5309 50.162C48.437 50.2194 48.329 50.2499 48.2189 50.25H45.6929C45.5972 50.25 45.5029 50.2272 45.4178 50.1833C45.3328 50.1395 45.2594 50.076 45.2039 49.998L40.4179 43.288M42.5799 40.712L44.498 38.4261M40.4179 43.288L34.5759 50.25M48.4219 33.75L46.46 36.0881" stroke="white" stroke-width="1.5" stroke-linecap="round" stroke-linejoin="round"/>
</svg>
