<svg width="24" height="24" viewBox="0 0 24 24" fill="none" xmlns="http://www.w3.org/2000/svg">
<path d="M3 4C3 3.44772 3.44772 3 4 3C4.55228 3 5 3.44772 5 4C5 4.55228 4.55228 5 4 5C3.44772 5 3 4.55228 3 4Z" fill="#ACACAC"/>
<path d="M19 4C19 3.44772 19.4477 3 20 3C20.5523 3 21 3.44772 21 4C21 4.55228 20.5523 5 20 5C19.4477 5 19 4.55228 19 4Z" fill="#ACACAC"/>
<path d="M19 20C19 19.4477 19.4477 19 20 19C20.5523 19 21 19.4477 21 20C21 20.5523 20.5523 21 20 21C19.4477 21 19 20.5523 19 20Z" fill="#ACACAC"/>
<path d="M3 20C3 19.4477 3.44772 19 4 19C4.55228 19 5 19.4477 5 20C5 20.5523 4.55228 21 4 21C3.44772 21 3 20.5523 3 20Z" fill="#ACACAC"/>
<path d="M19 4H5M5 4V4C5 3.44772 4.55228 3 4 3V3C3.44772 3 3 3.44772 3 4V4C3 4.55228 3.44772 5 4 5V5C4.55228 5 5 4.55228 5 4V4ZM20 19V15.5M20 5V5C20.5523 5 21 4.55228 21 4V4C21 3.44772 20.5523 3 20 3V3C19.4477 3 19 3.44772 19 4V4C19 4.55228 19.4477 5 20 5V5ZM20 5V12M5 20H19M19 20V20C19 20.5523 19.4477 21 20 21V21C20.5523 21 21 20.5523 21 20V20C21 19.4477 20.5523 19 20 19V19C19.4477 19 19 19.4477 19 20V20ZM4 5V19M4 21V21C4.55228 21 5 20.5523 5 20V20C5 19.4477 4.55228 19 4 19V19C3.44772 19 3 19.4477 3 20V20C3 20.5523 3.44772 21 4 21Z" stroke="black" stroke-width="1.5" stroke-linecap="round" stroke-linejoin="round"/>
<path d="M8 8H12M16 8H12M12 8V10.25V12.5V17" stroke="black" stroke-width="1.5" stroke-linecap="round" stroke-linejoin="round"/>
</svg>
