<svg width="20" height="20" viewBox="0 0 20 20" fill="none" xmlns="http://www.w3.org/2000/svg">
<path d="M6.66406 3.33333C6.66406 2.8731 6.29097 2.5 5.83073 2.5C5.37049 2.5 4.9974 2.8731 4.9974 3.33333V9.16667C4.9974 12.3883 5.83073 15 9.9974 15C14.1641 15 14.9974 12.3883 14.9974 9.16667V3.33333C14.9974 2.8731 14.6243 2.5 14.1641 2.5C13.7038 2.5 13.3307 2.8731 13.3307 3.33333V9.16667C13.3307 11.4679 13.3307 13.3333 9.9974 13.3333C6.66406 13.3333 6.66406 11.4679 6.66406 9.16667V3.33333Z" fill="black"/>
<path d="M4.9974 15.8333C4.53716 15.8333 4.16406 16.2064 4.16406 16.6667C4.16406 17.1269 4.53716 17.5 4.9974 17.5H14.9974C15.4576 17.5 15.8307 17.1269 15.8307 16.6667C15.8307 16.2064 15.4576 15.8333 14.9974 15.8333H4.9974Z" fill="black"/>
</svg>
