<svg width="20" height="14" viewBox="0 0 20 14" fill="none" xmlns="http://www.w3.org/2000/svg">
<path d="M5.5 13V13C4.10218 13 3.40326 13 2.85195 12.7716C2.11687 12.4672 1.53284 11.8831 1.22836 11.1481C1 10.5967 1 9.89782 1 8.5V6.4C1 4.15016 1 3.02524 1.57295 2.23664C1.75799 1.98196 1.98196 1.75799 2.23664 1.57295C3.02524 1 4.15016 1 6.4 1H6.6C8.84984 1 9.97476 1 10.7634 1.57295C11.018 1.75799 11.242 1.98196 11.4271 2.23664C12 3.02524 12 4.15016 12 6.4V11C12 12.1046 11.1046 13 10 13V13" stroke="black" stroke-width="1.5" stroke-linecap="round" stroke-linejoin="round"/>
<path d="M15 5.44075C15 5.13087 15 4.97593 15.056 4.83924C15.0745 4.79421 15.0973 4.75109 15.1241 4.71048C15.2054 4.5872 15.3335 4.49991 15.5895 4.32534L16.8895 3.43898C17.7062 2.88212 18.1146 2.6037 18.4495 2.69613C18.5545 2.7251 18.6519 2.77657 18.7349 2.84698C19 3.07164 19 3.56589 19 4.55439V9.44561C19 10.4341 19 10.9284 18.7349 11.153C18.6519 11.2234 18.5545 11.2749 18.4495 11.3039C18.1146 11.3963 17.7062 11.1179 16.8895 10.561L15.5895 9.67465C15.3335 9.50009 15.2054 9.4128 15.1241 9.28951C15.0973 9.24891 15.0745 9.20579 15.056 9.16076C15 9.02407 15 8.86913 15 8.55925V5.44075Z" fill="white" stroke="black" stroke-width="1.5" stroke-linejoin="round"/>
<circle cx="9" cy="4" r="1" fill="white"/>
</svg>
