<svg width="18" height="19" viewBox="0 0 18 19" fill="none" xmlns="http://www.w3.org/2000/svg">
<path d="M5.25 14.5V14.5C4.08515 14.5 3.50272 14.5 3.04329 14.3097C2.43072 14.056 1.94404 13.5693 1.6903 12.9567C1.5 12.4973 1.5 11.9149 1.5 10.75V9C1.5 7.12513 1.5 6.1877 1.97746 5.53054C2.13166 5.3183 2.3183 5.13166 2.53054 4.97746C3.1877 4.5 4.12513 4.5 6 4.5H6.16667C8.04153 4.5 8.97897 4.5 9.63613 4.97746C9.84837 5.13166 10.035 5.3183 10.1892 5.53054C10.6667 6.1877 10.6667 7.12513 10.6667 9V12.8333C10.6667 13.7538 9.92048 14.5 9 14.5V14.5" stroke="black" stroke-width="1.2" stroke-linecap="round" stroke-linejoin="round"/>
<path d="M13.166 8.2003C13.166 7.94206 13.166 7.81295 13.2127 7.69904C13.2281 7.66152 13.2471 7.62559 13.2694 7.59174C13.3372 7.48901 13.4439 7.41627 13.6573 7.27079L14.7406 6.53216C15.4212 6.06811 15.7615 5.83609 16.0406 5.91312C16.1281 5.93725 16.2093 5.98015 16.2785 6.03882C16.4993 6.22604 16.4993 6.63792 16.4993 7.46166V11.5377C16.4993 12.3614 16.4993 12.7733 16.2785 12.9605C16.2093 13.0192 16.1281 13.0621 16.0406 13.0862C15.7615 13.1633 15.4212 12.9312 14.7406 12.4672L13.6573 11.7286C13.4439 11.5831 13.3372 11.5103 13.2694 11.4076C13.2471 11.3738 13.2281 11.3378 13.2127 11.3003C13.166 11.1864 13.166 11.0573 13.166 10.799V8.2003Z" stroke="black" stroke-width="1.2" stroke-linejoin="round"/>
<circle cx="8.16732" cy="7.00033" r="0.6" fill="#2E2E2E" stroke="black" stroke-width="0.466667"/>
</svg>
