<svg width="24" height="24" viewBox="0 0 24 24" fill="none" xmlns="http://www.w3.org/2000/svg">
<g clip-path="url(#clip0_4501_6299)">
<path d="M3 11.25V6C3 5.17157 3.67157 4.5 4.5 4.5L19.5 4.5C20.3284 4.5 21 5.17157 21 6V16.5C21 17.3284 20.3284 18 19.5 18L4.5 18C3.67157 18 3 17.3284 3 16.5V15.1875" stroke="black" stroke-width="1.5" stroke-linecap="round" stroke-linejoin="round"/>
<path d="M15 21H9" stroke="black" stroke-width="1.5" stroke-linecap="round" stroke-linejoin="round"/>
<path d="M12.75 12.9825L12.15 13.3289C11.2104 13.8714 10.7406 14.1427 10.3642 14.0204C10.2457 13.9819 10.1367 13.9189 10.0441 13.8356C9.75 13.5707 9.75 13.0283 9.75 11.9433V10.5577C9.75 9.4727 9.75 8.93022 10.0441 8.6654C10.1367 8.58205 10.2457 8.51909 10.3642 8.48059C10.7406 8.3583 11.2104 8.62954 12.15 9.17202L15 10.8175C15.3333 11.0099 15.3333 11.491 15 11.6835L14.25 12.1165" stroke="black" stroke-width="1.2" stroke-linecap="round" stroke-linejoin="round"/>
</g>
<defs>
<clipPath id="clip0_4501_6299">
<rect width="24" height="24" fill="white"/>
</clipPath>
</defs>
</svg>
