<svg width="302" height="101" viewBox="0 0 302 101" fill="none" xmlns="http://www.w3.org/2000/svg">
<path d="M50.0001 100.139C77.6143 100.139 100 77.7222 100 50.0696C100 22.4169 77.6143 0 50.0001 0C22.3859 0 0.00012207 22.4169 0.00012207 50.0696C0.00012207 77.7222 22.3859 100.139 50.0001 100.139Z" fill="#FCD100"/>
<path d="M61.0874 24.5202C61.2096 24.8975 61.2808 25.2033 61.3928 25.4888C61.9038 26.9945 62.1451 28.5787 62.1055 30.1685C62.0923 32.6799 61.5728 35.1628 60.5783 37.4684C60.3136 38.1005 60.0896 38.7326 59.8351 39.3647C59.6467 39.8253 59.6467 40.3417 59.8351 40.8023C60.026 41.3937 60.2966 41.9562 60.6394 42.4743C60.8271 42.7071 60.9215 43.0015 60.9041 43.3002C60.7982 43.2819 60.698 43.2393 60.6114 43.1756C60.5249 43.1119 60.4543 43.0289 60.4053 42.9331C60.0591 42.352 59.7231 41.7708 59.3871 41.1693C59.2989 40.9578 59.2535 40.7308 59.2535 40.5015C59.2535 40.2723 59.2989 40.0453 59.3871 39.8337C59.8758 38.284 60.4053 36.7751 60.8125 35.1642C61.4117 32.9711 61.5777 30.6819 61.3012 28.4251C61.2406 27.9347 61.1384 27.4504 60.9958 26.9773C60.4188 25.0878 59.8215 23.2084 59.2039 21.3393C58.7577 20.121 58.22 18.9383 57.5952 17.8015C56.3837 18.1583 55.1925 18.4846 54.0216 18.8822C53.3065 19.1498 52.6063 19.4562 51.9243 19.7998C51.4482 20.039 51.065 20.43 50.8349 20.9111C50.448 21.6553 50.0204 22.3894 49.603 23.1133C48.8206 24.5274 48.1565 26.004 47.6176 27.5279C47.5394 27.7722 47.4441 28.0106 47.3326 28.2416C47.2833 28.3768 47.1988 28.4964 47.0878 28.5878C46.9768 28.6793 46.8433 28.7393 46.7013 28.7615C46.7042 28.651 46.7213 28.5414 46.7522 28.4353C47.0068 27.8236 47.2715 27.222 47.526 26.6205C47.5906 26.4436 47.645 26.2632 47.6889 26.0801C47.4743 26.0578 47.258 26.1005 47.0678 26.2025C44.9094 27.0079 42.8223 27.9561 40.7351 28.945C37.8746 30.3193 35.1123 31.8897 32.468 33.6451C32.2493 33.7798 32.0505 33.9446 31.8775 34.1345C29.7231 36.6367 27.8551 39.3725 26.3083 42.2908C25.6669 43.5143 25.1578 44.8091 24.6081 46.0835C24.3849 46.6715 24.3634 47.3171 24.547 47.9187C24.7815 48.8656 24.7211 49.8618 24.3739 50.7734C24.3261 50.9296 24.2613 51.0801 24.1804 51.222C23.4268 52.5775 22.747 53.9729 22.1442 55.4021C21.8388 56.024 21.5028 56.6255 21.1261 57.2373C20.5559 58.2568 19.9654 59.2763 19.3851 60.2959C19.2935 60.4488 19.1611 60.6017 19.2629 60.8464C19.3978 60.8233 19.5306 60.7892 19.66 60.7445C21.2626 60.1336 22.9015 59.6228 24.5673 59.2152C24.8331 59.1468 25.1078 59.1193 25.3818 59.1336C25.728 59.1336 25.8298 59.2967 25.8807 59.6536C26.0546 61.1016 25.7199 62.5651 24.9339 63.7929C24.4359 64.7011 23.7399 65.4852 22.8976 66.0869C22.8492 66.134 22.8049 66.1851 22.7653 66.2398C22.8365 66.3519 22.8976 66.4743 22.9791 66.5966C23.7893 67.7932 24.7548 68.8766 25.8502 69.8184C26.1056 70.0217 26.3781 70.2025 26.6647 70.3587C27.0345 70.5664 27.3274 70.8883 27.4995 71.2763C27.8259 71.9531 28.2591 72.5728 28.7824 73.1115C29.0377 73.3436 29.3137 73.5518 29.607 73.7334C29.7929 73.8416 29.9699 73.9643 30.1365 74.1004C30.228 74.1921 30.3424 74.2575 30.4677 74.2898C30.5931 74.3221 30.7248 74.3201 30.8491 74.284C33.0072 73.8886 35.0916 73.1631 37.0292 72.1327C38.0645 71.6371 39.0557 71.0538 39.9919 70.3893L40.2566 70.1854C41.2734 69.5496 42.1304 68.6879 42.7612 67.6671C42.9612 67.3599 43.1823 67.0669 43.423 66.7903C44.274 65.685 44.8026 64.3652 44.9501 62.9773C44.9327 62.6614 45.0371 62.3509 45.2417 62.11C45.4464 61.869 45.7356 61.716 46.0497 61.6824C46.315 61.6201 46.5835 61.5724 46.854 61.5397C46.9487 61.5282 47.0444 61.5282 47.1391 61.5397C47.2307 61.764 47.1391 61.8864 47.0271 62.0291C46.8235 62.335 46.6504 62.651 46.4264 62.9365C46.2311 63.1998 46.0131 63.4455 45.7748 63.6706C45.3545 64.0712 45.0096 64.5443 44.7567 65.0673C44.7237 65.1529 44.6998 65.2418 44.6854 65.3324C45.3482 65.1518 46.0387 65.0965 46.7217 65.1693C47.3224 65.2304 47.9231 65.312 48.5136 65.3936C50.1935 65.6281 51.8734 65.8524 53.6042 66.1174C55.0092 66.3417 56.4244 66.5558 57.809 66.8617C60.2982 67.4259 62.5969 68.6313 64.4777 70.3587C66.6692 72.3268 68.6083 74.5597 70.2505 77.0061C71.5883 79.0108 72.7858 81.1058 73.8343 83.2763C73.8575 83.3562 73.8575 83.4411 73.8343 83.521L73.5492 83.1845L73.2336 82.7971L68.9371 77.1183C67.4197 75.0993 65.7374 73.2101 63.9076 71.47C61.4963 69.1461 58.4478 67.595 55.1517 67.0146C53.4718 66.7088 51.7716 66.4947 50.0611 66.25C49.043 66.1073 47.9638 65.9645 46.9049 65.883C46.3252 65.8474 45.7437 65.8474 45.164 65.883C44.9094 65.883 44.6549 65.883 44.3495 65.883C44.2171 66.1378 44.0644 66.4029 43.932 66.6884C43.3204 67.9826 42.4466 69.1353 41.3664 70.0733C40.4763 70.8018 39.526 71.4532 38.5258 72.0206C37.2096 72.7704 35.8035 73.3493 34.3413 73.7436C33.2417 74.0902 32.132 74.4063 31.0222 74.6714C30.5532 74.7428 30.0761 74.7428 29.607 74.6714C29.2149 74.6095 28.8557 74.4152 28.5889 74.1208C28.1559 73.6569 27.8109 73.118 27.5708 72.5303C27.3875 72.1327 27.2348 71.7249 27.0617 71.3171C26.9441 71.01 26.715 70.7588 26.4203 70.6136C24.8601 69.8389 23.4876 68.7324 22.3987 67.3715C22.1804 67.0967 22.0366 66.7701 21.9813 66.4233C21.9745 66.3229 21.9431 66.2256 21.8898 66.1403C21.8366 66.0549 21.7631 65.984 21.6759 65.9339C21.0242 65.5546 20.4808 65.014 20.0978 64.3638C19.66 63.7419 19.2935 63.069 18.8455 62.4369C18.6082 62.0768 18.4734 61.6587 18.4554 61.2276C18.4375 60.7965 18.5371 60.3687 18.7437 59.99C18.8862 59.6332 19.0389 59.2865 19.2018 58.9705C19.4767 58.3893 19.7313 57.8082 20.0469 57.2475C21.3467 54.9586 22.5127 52.5961 23.539 50.1719C23.7686 49.6537 23.8428 49.0799 23.7528 48.5202C23.6204 47.4458 23.7461 46.3552 24.1194 45.3392C24.885 43.1075 25.9393 40.9858 27.2552 39.0283C27.8864 38.0903 28.5482 37.1727 29.1998 36.2348C29.4238 35.9085 29.6478 35.5721 29.8412 35.2152C30.2754 34.4405 30.8605 33.761 31.5618 33.2169C32.0098 32.8805 32.4069 32.4726 32.8345 32.0954C32.7123 31.657 32.5698 31.239 32.4781 30.821C32.0918 29.2953 31.786 27.7502 31.5618 26.1923C31.5618 26.019 31.46 25.8456 31.4295 25.6723C31.4171 25.6322 31.4157 25.5895 31.4254 25.5486C31.4351 25.5078 31.4556 25.4703 31.4847 25.4401C31.5138 25.4099 31.5505 25.388 31.591 25.3769C31.6314 25.3657 31.6741 25.3656 31.7146 25.3767C31.8769 25.411 32.0343 25.4658 32.1829 25.5398C32.897 25.9092 33.6741 26.1409 34.4737 26.2229C35.9638 26.4102 37.3733 27.0065 38.5462 27.9459C38.7192 28.0784 38.8821 28.2314 39.0756 28.3843C39.19 28.3546 39.3022 28.3171 39.4116 28.2721C41.3698 27.3705 43.3789 26.5841 45.4287 25.917C46.1515 25.6825 46.8846 25.4378 47.6176 25.2237C47.7494 25.1947 47.8693 25.1267 47.9619 25.0285C48.0545 24.9303 48.1155 24.8065 48.1369 24.6732C48.5955 23.0535 49.227 21.488 50.0204 20.0037C50.2082 19.6214 50.5108 19.3077 50.8858 19.1065C51.4865 18.7598 52.0974 18.4336 52.7082 18.087C53.8178 17.4899 54.9932 17.0245 56.2106 16.7004C56.602 16.6104 57.0006 16.5558 57.4018 16.5373C57.5382 16.5345 57.6725 16.5716 57.7882 16.644C57.9039 16.7165 57.9961 16.8211 58.0534 16.9451C59.1261 18.8393 59.9865 20.8463 60.6191 22.9298C60.6454 22.9958 60.6659 23.064 60.6801 23.1337C60.6973 23.2426 60.753 23.3417 60.8371 23.4129C60.9213 23.484 61.0282 23.5224 61.1383 23.5211C61.8306 23.5925 62.5128 23.6944 63.1745 23.7556C64.8277 23.925 66.4674 24.2077 68.0819 24.6018C69.8069 25.0041 71.5067 25.508 73.1725 26.1107C73.6612 26.2739 74.1194 26.4982 74.5877 26.7021C74.6959 26.7599 74.7982 26.8282 74.8931 26.906C74.5713 26.9278 74.248 26.8968 73.9361 26.8142L71.8999 26.3248C70.2607 25.917 68.6113 25.6315 66.9518 25.3767L62.1971 24.6324C61.9121 24.6018 61.5455 24.5712 61.0874 24.5202ZM25.1069 60.2653C24.9477 60.2516 24.7876 60.2516 24.6284 60.2653C22.9032 60.3715 21.1955 60.6725 19.5378 61.1625C19.3909 61.2175 19.2508 61.2894 19.1204 61.3766C19.2833 61.6723 19.3851 61.9475 19.548 62.182C19.9858 62.8039 20.4338 63.4259 20.8919 64.0376C21.3493 64.5345 21.749 65.0817 22.0831 65.6688C22.1077 65.7169 22.1385 65.7615 22.1747 65.8014C22.2043 65.848 22.2439 65.8873 22.2907 65.9164C22.3375 65.9455 22.3903 65.9637 22.4451 65.9696C22.4999 65.9754 22.5553 65.9689 22.6072 65.9503C22.6591 65.9318 22.7062 65.9018 22.7449 65.8626C22.8224 65.813 22.8942 65.7549 22.9587 65.6892C23.6711 65.0592 24.2078 64.2547 24.5164 63.3545C24.7731 62.5161 24.9537 61.6562 25.056 60.7853C25.0846 60.6133 25.1016 60.4396 25.1069 60.2653ZM38.4953 28.6596C38.3527 28.5678 38.2407 28.4761 38.1185 28.4149C36.9523 27.7683 35.6739 27.3497 34.3515 27.1812C33.6541 27.0945 32.9819 26.8655 32.3763 26.5083C32.2707 26.4656 32.1617 26.4315 32.0505 26.4064C32.2236 26.8652 32.3763 27.2526 32.5087 27.6502C32.8566 28.7483 33.1288 29.869 33.3232 31.0045C33.3232 31.188 33.3232 31.4021 33.5064 31.5347L38.4953 28.6596Z" fill="black"/>
<path d="M35.9809 47.5727L36.3474 47.0119C35.8926 46.8084 35.5033 46.4823 35.2228 46.07C34.9424 45.6577 34.7818 45.1755 34.7591 44.6772C34.7591 44.5243 34.7591 44.3611 34.6879 44.1674L34.1075 44.0349C34.2094 43.9227 34.2501 43.8208 34.3315 43.78C34.5291 43.6869 34.7333 43.6085 34.9424 43.5455C35.7671 43.3008 36.5816 43.0561 37.4063 42.8318C37.7238 42.74 38.0469 42.6685 38.3735 42.6177C38.5357 42.5975 38.6999 42.5975 38.8622 42.6177C38.908 42.6212 38.9526 42.6344 38.993 42.6563C39.0334 42.6783 39.0687 42.7085 39.0966 42.7451C39.1245 42.7817 39.1443 42.8238 39.1548 42.8686C39.1653 42.9134 39.1662 42.96 39.1574 43.0052C39.1625 43.0424 39.1625 43.0801 39.1574 43.1173C39.0189 43.8862 38.8319 44.6456 38.5975 45.3909C38.433 45.8753 38.1659 46.3183 37.8144 46.6896C37.463 47.0609 37.0354 47.3518 36.5612 47.5421C36.3945 47.597 36.2245 47.6413 36.0522 47.6746L35.9809 47.5727ZM35.706 44.0553C35.5865 44.5197 35.6344 45.0114 35.841 45.444C36.0477 45.8766 36.4001 46.2224 36.8361 46.4206C37.6218 45.7085 38.1092 44.7251 38.2004 43.6679L35.706 44.0553Z" fill="black"/>
<path d="M139.015 34.1659L128.986 17.7207H131.114L140.155 32.3409H141.967L150.754 17.7207H152.871L143.107 34.1659H141.967V44.2389H140.155V34.1659H139.015Z" fill="white"/>
<path d="M178.792 17.7207V19.4947H158.827V29.9144H178.813V31.7394H158.827V42.4241H178.813V44.2389H156.994V17.7309L178.792 17.7207Z" fill="white"/>
<path d="M184.727 17.7207V42.4241H203.308V44.2389H182.946V17.7309L184.727 17.7207Z" fill="white"/>
<path d="M209.255 17.7207V42.4241H227.835V44.2389H207.473V17.7309L209.255 17.7207Z" fill="white"/>
<path d="M258.48 30.9849C258.48 35.2942 257.259 38.5839 254.815 40.854C252.372 43.1242 248.852 44.2525 244.257 44.2389C239.615 44.2389 236.088 43.1106 233.679 40.854C231.269 38.5975 230.075 35.3078 230.095 30.9849C230.095 26.6145 231.33 23.3112 233.801 21.075C236.272 18.8388 239.777 17.7207 244.318 17.7207C248.859 17.7207 252.361 18.8116 254.825 20.9934C257.289 23.1752 258.508 26.5057 258.48 30.9849ZM256.668 30.8626C256.668 23.318 252.568 19.5423 244.369 19.5355C240.134 19.5355 236.991 20.4972 234.941 22.4208C232.905 24.3375 231.887 27.1922 231.887 30.9849C231.887 34.7776 232.905 37.6833 235.013 39.5796C237.12 41.476 240.215 42.4241 244.379 42.4241C248.543 42.4241 251.628 41.4046 253.644 39.3655C255.66 37.3264 256.668 34.5329 256.668 30.8626Z" fill="white"/>
<path d="M268.998 44.2389L260.904 17.7309H262.533L270.82 44.1268L279.149 17.7207H283.038L291.855 44.1676L299.328 17.7207H301.222L293.728 44.2287H289.951L281.124 17.7819L272.755 44.2287L268.998 44.2389Z" fill="white"/>
<path d="M133.558 82.4202H128.864V57.4924H143.556C144.747 57.4733 145.931 57.6773 147.048 58.094C148.025 58.4764 148.914 59.052 149.664 59.7864C150.41 60.5291 150.99 61.4223 151.365 62.4066C151.783 63.4958 151.991 64.655 151.975 65.8221C152.004 67.0214 151.735 68.2091 151.191 69.2783C150.7 70.2224 150.005 71.0445 149.155 71.6844C148.253 72.3222 147.247 72.7983 146.182 73.0914C145.058 73.3992 143.897 73.5535 142.731 73.5502H133.568L133.558 82.4202ZM133.558 69.3497H142.721C143.845 69.4241 144.962 69.1229 145.897 68.4933C146.286 68.1719 146.591 67.761 146.786 67.2957C146.981 66.8305 147.06 66.3248 147.017 65.8221C147.07 65.2409 146.991 64.6551 146.785 64.1093C146.578 63.5634 146.25 63.0718 145.826 62.6717C144.884 61.9551 143.719 61.5941 142.537 61.6522H133.537L133.558 69.3497Z" fill="white"/>
<path d="M167.704 57.4922L176.45 82.4199H171.359L169.476 76.8634H156.24L154.204 82.4199H149.113L158.114 57.4922H162.878L157.442 72.877H168.112L162.878 57.4922H167.704Z" fill="white"/>
<path d="M177.948 82.4199V57.4922H182.571V82.4199H177.948ZM201.915 57.4922V82.4199H192.568L182.571 57.4922H187.264L197.293 82.4199V57.4922H201.915Z" fill="white"/>
<path d="M227.042 57.4922V61.866H217.676V82.4199H212.982V61.866H203.697V57.4922H227.042Z" fill="white"/>
<path d="M253.512 57.4922V82.4199H248.829V72.0512H233.466V82.4199H228.772V57.4922H233.466V67.6876H248.829V57.4922H253.512Z" fill="white"/>
<path d="M275.779 57.4922V61.866H259.998V67.7487H275.779V71.8269H259.998V77.9441H275.779V82.3282H255.294V57.4922H275.779Z" fill="white"/>
<path d="M282.254 82.4199H277.56V57.4922H291.967C293.062 57.4963 294.156 57.5952 295.235 57.7879C296.299 57.9696 297.329 58.3135 298.289 58.8074C299.181 59.2853 299.95 59.962 300.539 60.7853C301.15 61.7079 301.456 62.7991 301.415 63.9051C301.428 64.7137 301.185 65.5057 300.722 66.1685C300.255 66.8215 299.663 67.3758 298.981 67.7997C298.273 68.2456 297.505 68.5889 296.701 68.8193C295.966 69.0419 295.207 69.1721 294.441 69.2067H301.415V82.4199H296.395V73.4072H282.244L282.254 82.4199ZM282.254 61.6927V69.2373H291.926C292.543 69.2444 293.158 69.155 293.748 68.9722C294.289 68.8082 294.794 68.5416 295.235 68.1872C295.677 67.8385 296.032 67.3917 296.272 66.8822C296.512 66.3727 296.631 65.8142 296.619 65.2509C296.639 64.6525 296.495 64.0602 296.202 63.5381C295.925 63.1004 295.552 62.7309 295.113 62.4573C294.652 62.1747 294.145 61.9746 293.616 61.866C293.073 61.7534 292.521 61.6954 291.967 61.6927H282.254Z" fill="white"/>
</svg>
