<svg width="83" height="83" viewBox="0 0 83 83" fill="none" xmlns="http://www.w3.org/2000/svg">
<rect x="0.25" y="0.25" width="82.5" height="82.5" rx="11.75" fill="#FF0000"/>
<rect x="0.25" y="0.25" width="82.5" height="82.5" rx="11.75" stroke="#ACACAC" stroke-width="0.5"/>
<g clip-path="url(#clip0_579_1101)">
<path d="M39.0086 38.1749C39.0373 38.1591 39.0695 38.1509 39.1023 38.1509C39.1351 38.1509 39.1673 38.1591 39.1961 38.1749L45.4061 41.7749C45.4344 41.7914 45.4579 41.815 45.4742 41.8435C45.4906 41.8719 45.4992 41.9041 45.4992 41.9369C45.4992 41.9697 45.4906 42.0019 45.4742 42.0303C45.4579 42.0587 45.4344 42.0824 45.4061 42.0989L39.1961 45.6989C39.1676 45.7155 39.1352 45.7243 39.1022 45.7244C39.0692 45.7246 39.0368 45.716 39.0082 45.6995C38.9796 45.6831 38.9558 45.6594 38.9393 45.6309C38.9227 45.6023 38.9141 45.5699 38.9141 45.5369V38.3369C38.9141 38.2709 38.9501 38.2079 39.0086 38.1749Z" fill="white"/>
<path d="M42.1375 33.0015C43.0075 33.009 44.598 33.0297 46.203 33.0942L46.4579 33.105H46.452C48.2519 33.1815 50.0216 33.3155 50.8016 33.5435C51.3101 33.6905 51.7738 33.9784 52.1473 34.3774C52.5192 34.7764 52.7891 35.2726 52.9256 35.8169C53.2194 37.0853 53.3782 38.6261 53.4323 40.2433C53.4463 40.6596 53.1093 41.0005 52.6927 41.0005C52.2841 41.0005 51.9522 40.6722 51.9383 40.2639C51.8868 38.7528 51.7401 37.3275 51.4735 36.1714C51.3966 35.874 51.2524 35.6129 51.0643 35.4087C51.0592 35.4032 51.0534 35.3984 51.0467 35.395C51.0397 35.3915 51.0335 35.3861 51.0282 35.3804C50.8486 35.1886 50.6195 35.0478 50.368 34.9712C50.1279 34.9022 49.618 34.8215 48.8534 34.7495C48.1335 34.682 47.2636 34.6288 46.3788 34.5913L46.1229 34.5806C44.5481 34.5176 42.9834 34.4967 42.118 34.4907H42.117L41.4745 34.4878H41.118C39.6525 34.4992 38.1868 34.5347 36.7225 34.5933C35.7927 34.6308 34.887 34.6849 34.1131 34.7554C33.3066 34.8287 32.7624 34.912 32.5096 34.9868L32.5081 34.9873C32.5072 34.9876 32.5062 34.9878 32.5052 34.9878C32.5042 34.9878 32.5033 34.9879 32.5024 34.9882C32.2484 35.0658 32.0191 35.2098 31.8387 35.4048C31.6588 35.5998 31.5144 35.8489 31.4334 36.1323C30.8935 39.5973 30.7129 44.712 31.4373 47.8169C31.5107 48.1055 31.6539 48.3719 31.8553 48.5913C32.0356 48.7869 32.265 48.9314 32.5194 49.0093C32.5206 49.0096 32.522 49.0092 32.5233 49.0093C32.5247 49.0093 32.5268 49.0098 32.5282 49.0103C32.7511 49.0746 33.2153 49.1505 33.9149 49.2192C34.5899 49.2837 35.3823 49.3355 36.2118 49.3745L36.6512 49.3931L37.1073 49.4097C38.3167 49.4525 39.527 49.4786 40.7372 49.4878C40.741 49.4878 40.745 49.4877 40.7489 49.4878C40.7995 49.4885 41.1623 49.4941 41.5379 49.4927C41.943 49.4912 43.8027 49.4831 45.7674 49.4126C46.7574 49.3751 47.763 49.3264 48.618 49.2544C49.5176 49.1781 50.1244 49.0882 50.4012 49.0073L50.4027 49.0068C50.4037 49.0065 50.4047 49.0063 50.4057 49.0063C50.4066 49.0063 50.4075 49.0062 50.4084 49.0059C50.6629 48.9286 50.8923 48.7846 51.0731 48.5894C51.2546 48.3914 51.3989 48.141 51.4784 47.856C51.6798 46.6354 51.8278 45.2026 51.9035 43.722C51.924 43.3197 52.2537 43.0005 52.6565 43.0005C53.0792 43.0005 53.4185 43.3507 53.3972 43.7729C53.3171 45.3635 53.1568 46.8929 52.9413 48.1772C52.8068 48.715 52.5383 49.2097 52.162 49.6167C51.7963 50.01 51.3321 50.2981 50.8172 50.4507C49.0624 50.9621 42.343 50.9926 41.5321 50.9956L40.7245 50.9927C39.4993 50.9829 38.2741 50.9558 37.0497 50.9126L36.5848 50.895L36.1405 50.8755C34.4609 50.7975 32.8414 50.6655 32.1063 50.4526C31.5913 50.3001 31.1263 50.012 30.7606 49.6187C30.3843 49.2117 30.1167 48.716 29.9823 48.1782C29.1843 44.7732 29.4027 39.3734 29.9666 35.8335C30.1011 35.2957 30.3686 34.8001 30.745 34.3931C31.1169 33.9941 31.5822 33.7061 32.0907 33.5591C33.7257 33.0836 39.6509 33.0125 41.1209 33.0005L41.4852 32.9985L42.1375 33.0015Z" fill="white"/>
</g>
<defs>
<clipPath id="clip0_579_1101">
<rect width="24" height="24" fill="white" transform="translate(29.5 30)"/>
</clipPath>
</defs>
</svg>
