<svg width="33" height="32" viewBox="0 0 33 32" fill="none" xmlns="http://www.w3.org/2000/svg">
<mask id="path-1-outside-1_12076_25636" maskUnits="userSpaceOnUse" x="-0.0761719" y="-0.0185547" width="33" height="32" fill="black">
<rect fill="white" x="-0.0761719" y="-0.0185547" width="33" height="32"/>
<path d="M31.7139 12.1105C31.4115 11.3824 30.9612 10.7251 30.3914 10.1804C29.583 9.46427 29.2722 9.35346 28.2985 9.40804C27.1545 9.53869 25.7279 9.82978 25.2253 10.4434C24.4748 11.2703 23.4283 13.5295 22.21 14.7088L20.4295 15.2876H17.6935L16.867 12.7241V10.8221C17.6109 9.29888 19.4327 7.60695 19.9898 6.63611C20.4179 5.97455 20.2526 4.52078 20.0228 3.39282C19.7716 2.4501 19.5748 2.18713 18.6425 1.6397C17.9494 1.26752 17.1866 1.04337 16.4024 0.981445C15.6169 1.04414 14.853 1.26942 14.1591 1.643C13.2284 2.19044 13.03 2.45341 12.7787 3.39613C12.5489 4.52409 12.3836 5.97124 12.8118 6.63942C13.3689 7.61025 15.1907 9.30219 15.9362 10.8254V12.7241L15.1097 15.2876H12.3704L10.585 14.7088C9.36661 13.5295 8.32016 11.272 7.56963 10.4434C7.07368 9.82978 5.6404 9.53869 4.49641 9.40969C3.52271 9.35677 3.21191 9.46427 2.40352 10.1804C1.83431 10.7256 1.38403 11.3827 1.081 12.1105C0.897474 12.877 0.874397 13.6732 1.01322 14.4491C1.24631 15.5043 1.43643 15.7722 2.25474 16.3031C3.25655 16.8704 4.58072 17.4741 5.34779 17.274C6.45209 17.0441 8.62269 15.8334 10.3006 15.5953L12.1522 16.1973L14.3013 17.7585L13.4615 20.3452L12.3456 21.8834C10.8478 22.6772 8.37802 22.9766 7.35802 23.4331C6.61906 23.7225 5.90325 24.9894 5.42549 26.0379C5.07336 26.9476 5.07832 27.2784 5.5098 28.2707C5.85355 28.9794 6.3398 29.6094 6.93812 30.1214C7.61037 30.5322 8.35991 30.8001 9.14012 30.9087C10.2147 31.0129 10.5288 30.9087 11.2892 30.3017C12.1389 29.5227 13.1209 28.4493 13.1689 27.6555C13.2879 26.544 12.8085 24.1029 13.1011 22.4325L14.2451 20.8563L16.4057 19.2867L18.5648 20.8563C19.0326 21.4997 19.5996 22.2803 19.7087 22.4325C20.0013 24.1029 19.5219 26.544 19.641 27.6555C19.6889 28.4477 20.6709 29.521 21.5206 30.3017C22.2777 30.9153 22.5918 31.0129 23.6697 30.9087C24.4494 30.8002 25.1984 30.5322 25.87 30.1214C26.4666 29.6089 26.9511 28.9789 27.2934 28.2707C27.7249 27.2784 27.7298 26.9476 27.3794 26.0396C26.9033 24.991 26.1858 23.7241 25.4468 23.4347C24.4268 22.9782 21.9587 22.6789 20.4609 21.885L19.3434 20.3469L18.5036 17.7602L20.6527 16.1989L22.5042 15.5969C24.1822 15.8351 26.3544 17.0457 27.4488 17.2756C28.2159 17.4757 29.5417 16.8721 30.5435 16.3048C31.3618 15.7739 31.5503 15.5059 31.7834 14.4508C31.9222 13.6749 31.8991 12.8787 31.7156 12.1122"/>
</mask>
<path d="M31.7139 12.1105C31.4115 11.3824 30.9612 10.7251 30.3914 10.1804C29.583 9.46427 29.2722 9.35346 28.2985 9.40804C27.1545 9.53869 25.7279 9.82978 25.2253 10.4434C24.4748 11.2703 23.4283 13.5295 22.21 14.7088L20.4295 15.2876H17.6935L16.867 12.7241V10.8221C17.6109 9.29888 19.4327 7.60695 19.9898 6.63611C20.4179 5.97455 20.2526 4.52078 20.0228 3.39282C19.7716 2.4501 19.5748 2.18713 18.6425 1.6397C17.9494 1.26752 17.1866 1.04337 16.4024 0.981445C15.6169 1.04414 14.853 1.26942 14.1591 1.643C13.2284 2.19044 13.03 2.45341 12.7787 3.39613C12.5489 4.52409 12.3836 5.97124 12.8118 6.63942C13.3689 7.61025 15.1907 9.30219 15.9362 10.8254V12.7241L15.1097 15.2876H12.3704L10.585 14.7088C9.36661 13.5295 8.32016 11.272 7.56963 10.4434C7.07368 9.82978 5.6404 9.53869 4.49641 9.40969C3.52271 9.35677 3.21191 9.46427 2.40352 10.1804C1.83431 10.7256 1.38403 11.3827 1.081 12.1105C0.897474 12.877 0.874397 13.6732 1.01322 14.4491C1.24631 15.5043 1.43643 15.7722 2.25474 16.3031C3.25655 16.8704 4.58072 17.4741 5.34779 17.274C6.45209 17.0441 8.62269 15.8334 10.3006 15.5953L12.1522 16.1973L14.3013 17.7585L13.4615 20.3452L12.3456 21.8834C10.8478 22.6772 8.37802 22.9766 7.35802 23.4331C6.61906 23.7225 5.90325 24.9894 5.42549 26.0379C5.07336 26.9476 5.07832 27.2784 5.5098 28.2707C5.85355 28.9794 6.3398 29.6094 6.93812 30.1214C7.61037 30.5322 8.35991 30.8001 9.14012 30.9087C10.2147 31.0129 10.5288 30.9087 11.2892 30.3017C12.1389 29.5227 13.1209 28.4493 13.1689 27.6555C13.2879 26.544 12.8085 24.1029 13.1011 22.4325L14.2451 20.8563L16.4057 19.2867L18.5648 20.8563C19.0326 21.4997 19.5996 22.2803 19.7087 22.4325C20.0013 24.1029 19.5219 26.544 19.641 27.6555C19.6889 28.4477 20.6709 29.521 21.5206 30.3017C22.2777 30.9153 22.5918 31.0129 23.6697 30.9087C24.4494 30.8002 25.1984 30.5322 25.87 30.1214C26.4666 29.6089 26.9511 28.9789 27.2934 28.2707C27.7249 27.2784 27.7298 26.9476 27.3794 26.0396C26.9033 24.991 26.1858 23.7241 25.4468 23.4347C24.4268 22.9782 21.9587 22.6789 20.4609 21.885L19.3434 20.3469L18.5036 17.7602L20.6527 16.1989L22.5042 15.5969C24.1822 15.8351 26.3544 17.0457 27.4488 17.2756C28.2159 17.4757 29.5417 16.8721 30.5435 16.3048C31.3618 15.7739 31.5503 15.5059 31.7834 14.4508C31.9222 13.6749 31.8991 12.8787 31.7156 12.1122" fill="#FFCD00"/>
<path d="M30.3914 10.1804L30.7369 9.819L30.7301 9.81244L30.723 9.80614L30.3914 10.1804ZM28.2985 9.40804L28.2705 8.90882L28.2561 8.90963L28.2418 8.91127L28.2985 9.40804ZM25.2253 10.4434L25.5956 10.7794L25.6041 10.77L25.6121 10.7602L25.2253 10.4434ZM22.21 14.7088L22.3646 15.1843L22.4746 15.1485L22.5577 15.068L22.21 14.7088ZM20.4295 15.2876V15.7876H20.5088L20.5841 15.7631L20.4295 15.2876ZM17.6935 15.2876L17.2177 15.4411L17.3294 15.7876H17.6935V15.2876ZM16.867 12.7241H16.367V12.8027L16.3911 12.8775L16.867 12.7241ZM16.867 10.8221L16.4177 10.6027L16.367 10.7065V10.8221H16.867ZM19.9898 6.63611L19.57 6.36444L19.5628 6.37566L19.5561 6.38725L19.9898 6.63611ZM20.0228 3.39282L20.5128 3.29301L20.5098 3.27843L20.506 3.26405L20.0228 3.39282ZM18.6425 1.6397L18.8956 1.20852L18.8874 1.2037L18.879 1.19919L18.6425 1.6397ZM16.4024 0.981445L16.4418 0.482997L16.4022 0.479872L16.3627 0.48303L16.4024 0.981445ZM14.1591 1.643L13.9221 1.20275L13.9138 1.20723L13.9056 1.21203L14.1591 1.643ZM12.7787 3.39613L12.2956 3.26735L12.2917 3.28174L12.2888 3.29632L12.7787 3.39613ZM12.8118 6.63942L13.2454 6.39056L13.2394 6.37995L13.2328 6.36965L12.8118 6.63942ZM15.9362 10.8254H16.4362V10.7096L16.3853 10.6056L15.9362 10.8254ZM15.9362 12.7241L16.4121 12.8775L16.4362 12.8027V12.7241H15.9362ZM15.1097 15.2876V15.7876H15.4738L15.5855 15.4411L15.1097 15.2876ZM12.3704 15.2876L12.2162 15.7633L12.2914 15.7876H12.3704V15.2876ZM10.585 14.7088L10.2372 15.068L10.3205 15.1486L10.4308 15.1844L10.585 14.7088ZM7.56963 10.4434L7.18076 10.7577L7.18961 10.7686L7.19905 10.779L7.56963 10.4434ZM4.49641 9.40969L4.55244 8.91284L4.53803 8.91121L4.52355 8.91043L4.49641 9.40969ZM2.40352 10.1804L2.07197 9.80614L2.06469 9.81259L2.05766 9.81932L2.40352 10.1804ZM1.081 12.1105L0.619415 11.9183L0.604048 11.9552L0.59474 11.9941L1.081 12.1105ZM1.01322 14.4491L0.521034 14.5372L0.522812 14.5471L0.524989 14.557L1.01322 14.4491ZM2.25474 16.3031L1.9826 16.7226L1.99525 16.7308L2.00836 16.7382L2.25474 16.3031ZM5.34779 17.274L5.24588 16.7845L5.23365 16.787L5.22157 16.7902L5.34779 17.274ZM10.3006 15.5953L10.4552 15.1198L10.3451 15.0839L10.2304 15.1002L10.3006 15.5953ZM12.1522 16.1973L12.446 15.7928L12.382 15.7462L12.3068 15.7218L12.1522 16.1973ZM14.3013 17.7585L14.7768 17.9129L14.889 17.5675L14.5951 17.354L14.3013 17.7585ZM13.4615 20.3452L13.8662 20.6389L13.9126 20.5748L13.937 20.4996L13.4615 20.3452ZM12.3456 21.8834L12.5797 22.3251L12.6822 22.2708L12.7503 22.177L12.3456 21.8834ZM7.35802 23.4331L7.54037 23.8986L7.55143 23.8943L7.56227 23.8894L7.35802 23.4331ZM5.42549 26.0379L4.97049 25.8306L4.96446 25.8439L4.9592 25.8574L5.42549 26.0379ZM5.5098 28.2707L5.05127 28.4701L5.0554 28.4796L5.05993 28.4889L5.5098 28.2707ZM6.93812 30.1214L6.61303 30.5013L6.64336 30.5273L6.67742 30.5481L6.93812 30.1214ZM9.14012 30.9087L9.07124 31.4039L9.08153 31.4053L9.09187 31.4063L9.14012 30.9087ZM11.2892 30.3017L11.6011 30.6925L11.6145 30.6818L11.6271 30.6702L11.2892 30.3017ZM13.1689 27.6555L12.6717 27.6022L12.6705 27.6137L12.6698 27.6253L13.1689 27.6555ZM13.1011 22.4325L12.6964 22.1388L12.6285 22.2323L12.6086 22.3462L13.1011 22.4325ZM14.2451 20.8563L13.9512 20.4518L13.887 20.4984L13.8404 20.5626L14.2451 20.8563ZM16.4057 19.2867L16.6997 18.8823L16.4058 18.6687L16.1119 18.8822L16.4057 19.2867ZM18.5648 20.8563L18.9691 20.5622L18.9227 20.4983L18.8588 20.4519L18.5648 20.8563ZM19.7087 22.4325L20.2012 22.3462L20.1816 22.2338L20.1151 22.1411L19.7087 22.4325ZM19.641 27.6555L20.14 27.6252L20.1393 27.6137L20.1381 27.6022L19.641 27.6555ZM21.5206 30.3017L21.1823 30.6699L21.1937 30.6804L21.2058 30.6901L21.5206 30.3017ZM23.6697 30.9087L23.7178 31.4063L23.7282 31.4053L23.7386 31.4039L23.6697 30.9087ZM25.87 30.1214L26.1309 30.5479L26.1653 30.5269L26.1959 30.5007L25.87 30.1214ZM27.2934 28.2707L27.7436 28.4883L27.7479 28.4793L27.7519 28.4701L27.2934 28.2707ZM27.3794 26.0396L27.8458 25.8596L27.8406 25.8461L27.8346 25.8329L27.3794 26.0396ZM25.4468 23.4347L25.2426 23.8911L25.2534 23.8959L25.2645 23.9003L25.4468 23.4347ZM20.4609 21.885L20.0564 22.1789L20.1245 22.2726L20.2268 22.3268L20.4609 21.885ZM19.3434 20.3469L18.8678 20.5013L18.8923 20.5767L18.9389 20.6408L19.3434 20.3469ZM18.5036 17.7602L18.2097 17.3557L17.9159 17.5692L18.028 17.9146L18.5036 17.7602ZM20.6527 16.1989L20.4981 15.7234L20.4228 15.7479L20.3588 15.7944L20.6527 16.1989ZM22.5042 15.5969L22.5745 15.1019L22.4598 15.0856L22.3496 15.1214L22.5042 15.5969ZM27.4488 17.2756L27.575 16.7918L27.5634 16.7888L27.5516 16.7863L27.4488 17.2756ZM30.5435 16.3048L30.7899 16.7399L30.803 16.7324L30.8156 16.7242L30.5435 16.3048ZM31.7834 14.4508L32.2716 14.5586L32.2738 14.5488L32.2756 14.5388L31.7834 14.4508ZM31.7139 12.1105L32.1757 11.9187C31.8467 11.1267 31.3568 10.4116 30.7369 9.819L30.3914 10.1804L30.0459 10.5418C30.5656 11.0387 30.9764 11.6382 31.2522 12.3023L31.7139 12.1105ZM30.3914 10.1804L30.723 9.80614C30.3146 9.44441 29.9749 9.18118 29.5794 9.03588C29.1776 8.88823 28.7696 8.88085 28.2705 8.90882L28.2985 9.40804L28.3265 9.90725C28.8012 9.88065 29.0354 9.90138 29.2345 9.97453C29.44 10.05 29.6598 10.2003 30.0599 10.5547L30.3914 10.1804ZM28.2985 9.40804L28.2418 8.91127C27.6556 8.97822 26.9813 9.08777 26.38 9.26501C25.8042 9.43473 25.1921 9.69481 24.8385 10.1266L25.2253 10.4434L25.6121 10.7602C25.7611 10.5783 26.1136 10.3861 26.6628 10.2242C27.1865 10.0698 27.7975 9.96851 28.3553 9.90481L28.2985 9.40804ZM25.2253 10.4434L24.8551 10.1073C24.6374 10.3472 24.4124 10.6738 24.1882 11.0226C23.9634 11.3725 23.7167 11.7812 23.4686 12.1797C22.9584 12.9992 22.4214 13.8083 21.8622 14.3495L22.21 14.7088L22.5577 15.068C23.2169 14.43 23.8123 13.5199 24.3175 12.7082C24.5771 12.2912 24.809 11.9063 25.0295 11.5632C25.2507 11.2189 25.438 10.953 25.5956 10.7794L25.2253 10.4434ZM22.21 14.7088L22.0554 14.2333L20.2749 14.8121L20.4295 15.2876L20.5841 15.7631L22.3646 15.1843L22.21 14.7088ZM20.4295 15.2876V14.7876H17.6935V15.2876V15.7876H20.4295V15.2876ZM17.6935 15.2876L18.1694 15.1342L17.3428 12.5707L16.867 12.7241L16.3911 12.8775L17.2177 15.4411L17.6935 15.2876ZM16.867 12.7241H17.367V10.8221H16.867H16.367V12.7241H16.867ZM16.867 10.8221L17.3162 11.0415C17.6576 10.3425 18.2601 9.582 18.881 8.84383C19.4723 8.14098 20.1156 7.42146 20.4234 6.88497L19.9898 6.63611L19.5561 6.38725C19.3069 6.82159 18.7607 7.43346 18.1158 8.20009C17.5006 8.93141 16.8202 9.77849 16.4177 10.6027L16.867 10.8221ZM19.9898 6.63611L20.4095 6.90778C20.7124 6.43982 20.7697 5.77516 20.7528 5.17529C20.7352 4.54785 20.6305 3.87113 20.5128 3.29301L20.0228 3.39282L19.5329 3.49263C19.6449 4.04248 19.7378 4.65661 19.7532 5.20344C19.7694 5.77784 19.6953 6.17084 19.57 6.36444L19.9898 6.63611ZM20.0228 3.39282L20.506 3.26405C20.3776 2.78235 20.2452 2.39655 19.9819 2.05996C19.7221 1.72785 19.3674 1.48551 18.8956 1.20852L18.6425 1.6397L18.3893 2.07087C18.8499 2.34132 19.0598 2.50418 19.1942 2.6761C19.3252 2.84353 19.4168 3.06058 19.5397 3.5216L20.0228 3.39282ZM18.6425 1.6397L18.879 1.19919C18.1249 0.794256 17.295 0.550375 16.4418 0.482997L16.4024 0.981445L16.3631 1.47989C17.0782 1.53637 17.7738 1.74078 18.4059 2.0802L18.6425 1.6397ZM16.4024 0.981445L16.3627 0.48303C15.5081 0.551233 14.677 0.796323 13.9221 1.20275L14.1591 1.643L14.3961 2.08325C15.029 1.74251 15.7258 1.53704 16.4422 1.47986L16.4024 0.981445ZM14.1591 1.643L13.9056 1.21203C13.4348 1.48894 13.0803 1.73123 12.8205 2.06307C12.557 2.39956 12.4241 2.7852 12.2956 3.26735L12.7787 3.39613L13.2618 3.52491C13.3846 3.06434 13.4766 2.84714 13.6078 2.67961C13.7426 2.50742 13.9527 2.3445 14.4126 2.07398L14.1591 1.643ZM12.7787 3.39613L12.2888 3.29632C12.171 3.87426 12.0664 4.54939 12.0487 5.1761C12.0318 5.77628 12.0895 6.43907 12.3908 6.90918L12.8118 6.63942L13.2328 6.36965C13.1058 6.17159 13.0322 5.77672 13.0483 5.20428C13.0637 4.65839 13.1566 4.04595 13.2687 3.49594L12.7787 3.39613ZM12.8118 6.63942L12.3781 6.88828C12.686 7.42481 13.3293 8.14428 13.9208 8.8472C14.5419 9.58538 15.1449 10.346 15.4871 11.0452L15.9362 10.8254L16.3853 10.6056C15.982 9.78161 15.3013 8.93464 14.6859 8.20334C14.0408 7.43677 13.4947 6.82486 13.2454 6.39056L12.8118 6.63942ZM15.9362 10.8254H15.4362V12.7241H15.9362H16.4362V10.8254H15.9362ZM15.9362 12.7241L15.4604 12.5707L14.6338 15.1342L15.1097 15.2876L15.5855 15.4411L16.4121 12.8775L15.9362 12.7241ZM15.1097 15.2876V14.7876H12.3704V15.2876V15.7876H15.1097V15.2876ZM12.3704 15.2876L12.5246 14.812L10.7392 14.2331L10.585 14.7088L10.4308 15.1844L12.2162 15.7633L12.3704 15.2876ZM10.585 14.7088L10.9327 14.3495C10.3735 13.8083 9.83642 12.9995 9.3263 12.1803C9.07822 11.7819 8.83154 11.3732 8.60673 11.0233C8.38262 10.6745 8.15768 10.3478 7.94021 10.1077L7.56963 10.4434L7.19905 10.779C7.35684 10.9532 7.54416 11.2195 7.76541 11.5638C7.98597 11.9071 8.21778 12.2919 8.47742 12.7089C8.98275 13.5204 9.57805 14.43 10.2372 15.068L10.585 14.7088ZM7.56963 10.4434L7.95849 10.1291C7.60739 9.69468 6.99278 9.43435 6.41705 9.26511C5.81485 9.08808 5.1388 8.97896 4.55244 8.91284L4.49641 9.40969L4.44039 9.90654C4.99801 9.96942 5.61059 10.0703 6.13502 10.2245C6.68591 10.3865 7.03592 10.5785 7.18076 10.7577L7.56963 10.4434ZM4.49641 9.40969L4.52355 8.91043C4.02549 8.88336 3.61781 8.89035 3.21639 9.03701C2.82065 9.1816 2.48077 9.444 2.07197 9.80614L2.40352 10.1804L2.73507 10.5547C3.13467 10.2007 3.35438 10.0513 3.55956 9.97628C3.75906 9.90339 3.99363 9.8831 4.46928 9.90895L4.49641 9.40969ZM2.40352 10.1804L2.05766 9.81932C1.43864 10.4122 0.94896 11.1269 0.619415 11.9183L1.081 12.1105L1.54258 12.3027C1.81911 11.6386 2.22999 11.039 2.74938 10.5415L2.40352 10.1804ZM1.081 12.1105L0.59474 11.9941C0.395169 12.8276 0.370075 13.6935 0.521034 14.5372L1.01322 14.4491L1.5054 14.361C1.37872 13.653 1.39978 12.9264 1.56725 12.2269L1.081 12.1105ZM1.01322 14.4491L0.524989 14.557C0.642979 15.0911 0.76426 15.5029 1.00004 15.8524C1.23886 16.2063 1.56466 16.4514 1.9826 16.7226L2.25474 16.3031L2.52687 15.8837C2.1265 15.6239 1.94809 15.4696 1.82901 15.2931C1.70687 15.1121 1.61655 14.8623 1.50145 14.3413L1.01322 14.4491ZM2.25474 16.3031L2.00836 16.7382C2.52171 17.0289 3.1312 17.3369 3.72142 17.5473C4.28665 17.7488 4.93429 17.8986 5.47401 17.7578L5.34779 17.274L5.22157 16.7902C4.99423 16.8495 4.59625 16.7975 4.05717 16.6053C3.54308 16.4221 2.98957 16.1446 2.50111 15.868L2.25474 16.3031ZM5.34779 17.274L5.44969 17.7635C6.05997 17.6364 6.94479 17.2467 7.79703 16.901C8.69185 16.5381 9.60078 16.1996 10.3709 16.0903L10.3006 15.5953L10.2304 15.1002C9.32254 15.2291 8.3072 15.615 7.42116 15.9744C6.49254 16.351 5.73991 16.6816 5.24588 16.7845L5.34779 17.274ZM10.3006 15.5953L10.146 16.0708L11.9976 16.6728L12.1522 16.1973L12.3068 15.7218L10.4552 15.1198L10.3006 15.5953ZM12.1522 16.1973L11.8583 16.6018L14.0074 18.1631L14.3013 17.7585L14.5951 17.354L12.446 15.7928L12.1522 16.1973ZM14.3013 17.7585L13.8257 17.6042L12.9859 20.1908L13.4615 20.3452L13.937 20.4996L14.7768 17.9129L14.3013 17.7585ZM13.4615 20.3452L13.0568 20.0516L11.9409 21.5897L12.3456 21.8834L12.7503 22.177L13.8662 20.6389L13.4615 20.3452ZM12.3456 21.8834L12.1114 21.4416C11.4239 21.806 10.4888 22.0672 9.55231 22.2994C8.66056 22.5205 7.71734 22.7245 7.15378 22.9767L7.35802 23.4331L7.56227 23.8894C8.0187 23.6852 8.82039 23.5112 9.79298 23.27C10.7208 23.04 11.7695 22.7546 12.5797 22.3251L12.3456 21.8834ZM7.35802 23.4331L7.17567 22.9675C6.65593 23.1711 6.22003 23.6731 5.88111 24.1685C5.52727 24.6858 5.21523 25.2935 4.97049 25.8306L5.42549 26.0379L5.88048 26.2453C6.11351 25.7338 6.39826 25.1837 6.7065 24.7331C7.02967 24.2607 7.32116 23.9845 7.54037 23.8986L7.35802 23.4331ZM5.42549 26.0379L4.9592 25.8574C4.77909 26.3227 4.6592 26.713 4.6741 27.1407C4.68879 27.5625 4.83293 27.9679 5.05127 28.4701L5.5098 28.2707L5.96833 28.0713C5.75519 27.5811 5.68112 27.325 5.67349 27.1059C5.66607 26.8928 5.71976 26.6628 5.89177 26.2184L5.42549 26.0379ZM5.5098 28.2707L5.05993 28.4889C5.43371 29.2595 5.96243 29.9445 6.61303 30.5013L6.93812 30.1214L7.26321 29.7415C6.71718 29.2742 6.2734 28.6992 5.95966 28.0525L5.5098 28.2707ZM6.93812 30.1214L6.67742 30.5481C7.40822 30.9946 8.22306 31.2859 9.07124 31.4039L9.14012 30.9087L9.209 30.4134C8.49677 30.3144 7.81252 30.0697 7.19882 29.6948L6.93812 30.1214ZM9.14012 30.9087L9.09187 31.4063C9.63764 31.4592 10.066 31.4692 10.4712 31.3522C10.88 31.2342 11.2138 31.0016 11.6011 30.6925L11.2892 30.3017L10.9773 29.9109C10.6042 30.2087 10.4007 30.3317 10.1938 30.3915C9.98309 30.4523 9.71716 30.4623 9.18838 30.411L9.14012 30.9087ZM11.2892 30.3017L11.6271 30.6702C12.0625 30.2711 12.5436 29.786 12.926 29.289C13.2924 28.8128 13.6343 28.2428 13.6679 27.6856L13.1689 27.6555L12.6698 27.6253C12.6555 27.8619 12.4824 28.2256 12.1334 28.6793C11.8004 29.1122 11.3656 29.5533 10.9513 29.9331L11.2892 30.3017ZM13.1689 27.6555L13.666 27.7087C13.7318 27.0946 13.634 26.1344 13.5686 25.218C13.4999 24.2555 13.4593 23.2855 13.5936 22.5187L13.1011 22.4325L12.6086 22.3462C12.4503 23.2499 12.5031 24.3356 12.5711 25.2892C12.6425 26.2888 12.725 27.1049 12.6717 27.6022L13.1689 27.6555ZM13.1011 22.4325L13.5057 22.7261L14.6497 21.15L14.2451 20.8563L13.8404 20.5626L12.6964 22.1388L13.1011 22.4325ZM14.2451 20.8563L14.5389 21.2608L16.6996 19.6913L16.4057 19.2867L16.1119 18.8822L13.9512 20.4518L14.2451 20.8563ZM16.4057 19.2867L16.1117 19.6912L18.2707 21.2607L18.5648 20.8563L18.8588 20.4519L16.6997 18.8823L16.4057 19.2867ZM18.5648 20.8563L18.1604 21.1504C18.6289 21.7947 19.1946 22.5734 19.3024 22.7238L19.7087 22.4325L20.1151 22.1411C20.0047 21.9872 19.4363 21.2046 18.9691 20.5622L18.5648 20.8563ZM19.7087 22.4325L19.2162 22.5187C19.3505 23.2855 19.3099 24.2555 19.2412 25.218C19.1758 26.1344 19.078 27.0946 19.1438 27.7087L19.641 27.6555L20.1381 27.6022C20.0849 27.1049 20.1673 26.2888 20.2387 25.2892C20.3068 24.3356 20.3595 23.2499 20.2012 22.3462L19.7087 22.4325ZM19.641 27.6555L19.1419 27.6857C19.1755 28.2422 19.5176 28.8118 19.8838 29.2878C20.2661 29.7847 20.7471 30.27 21.1823 30.6699L21.5206 30.3017L21.8589 29.9335C21.4444 29.5527 21.0095 29.1111 20.6764 28.678C20.3272 28.2241 20.1543 27.8609 20.14 27.6252L19.641 27.6555ZM21.5206 30.3017L21.2058 30.6901C21.5927 31.0037 21.9265 31.2375 22.3374 31.3551C22.7427 31.471 23.1724 31.4591 23.7178 31.4063L23.6697 30.9087L23.6216 30.411C23.0891 30.4625 22.8228 30.4538 22.6124 30.3936C22.4075 30.335 22.2056 30.2133 21.8354 29.9132L21.5206 30.3017ZM23.6697 30.9087L23.7386 31.4039C24.5863 31.286 25.4007 30.9946 26.1309 30.5479L25.87 30.1214L25.6091 29.6949C24.9961 30.0698 24.3125 30.3144 23.6008 30.4134L23.6697 30.9087ZM25.87 30.1214L26.1959 30.5007C26.8445 29.9434 27.3714 29.2583 27.7436 28.4883L27.2934 28.2707L26.8432 28.0531C26.5308 28.6995 26.0886 29.2744 25.5442 29.7422L25.87 30.1214ZM27.2934 28.2707L27.7519 28.4701C27.9703 27.9679 28.1143 27.5627 28.1293 27.1413C28.1445 26.7138 28.0251 26.3241 27.8458 25.8596L27.3794 26.0396L26.9129 26.2196C27.0841 26.6631 27.1375 26.8927 27.1299 27.1058C27.1222 27.3248 27.048 27.5812 26.8349 28.0713L27.2934 28.2707ZM27.3794 26.0396L27.8346 25.8329C27.5905 25.2953 27.2784 24.6875 26.9243 24.1701C26.5851 23.6745 26.1488 23.1727 25.6292 22.9691L25.4468 23.4347L25.2645 23.9003C25.4838 23.9862 25.7758 24.2625 26.0991 24.7349C26.4074 25.1854 26.6921 25.7354 26.9241 26.2463L27.3794 26.0396ZM25.4468 23.4347L25.6511 22.9783C25.0875 22.7261 24.1448 22.5222 23.2534 22.3011C22.3174 22.0689 21.3826 21.8077 20.6951 21.4432L20.4609 21.885L20.2268 22.3268C21.037 22.7562 22.0852 23.0416 23.0127 23.2717C23.9848 23.5128 24.7861 23.6868 25.2426 23.8911L25.4468 23.4347ZM20.4609 21.885L20.8654 21.5911L19.7479 20.053L19.3434 20.3469L18.9389 20.6408L20.0564 22.1789L20.4609 21.885ZM19.3434 20.3469L19.819 20.1925L18.9792 17.6058L18.5036 17.7602L18.028 17.9146L18.8678 20.5013L19.3434 20.3469ZM18.5036 17.7602L18.7975 18.1647L20.9466 16.6034L20.6527 16.1989L20.3588 15.7944L18.2097 17.3557L18.5036 17.7602ZM20.6527 16.1989L20.8073 16.6744L22.6588 16.0724L22.5042 15.5969L22.3496 15.1214L20.4981 15.7234L20.6527 16.1989ZM22.5042 15.5969L22.434 16.0919C23.2041 16.2013 24.1135 16.5398 25.0073 16.9026C25.8583 17.2481 26.7411 17.6379 27.346 17.7649L27.4488 17.2756L27.5516 16.7863C27.0621 16.6835 26.3116 16.3529 25.3834 15.9761C24.498 15.6166 23.4823 15.2307 22.5745 15.1019L22.5042 15.5969ZM27.4488 17.2756L27.3226 17.7594C27.8623 17.9002 28.5103 17.7504 29.0759 17.549C29.6665 17.3386 30.2764 17.0306 30.7899 16.7399L30.5435 16.3048L30.2971 15.8697C29.8088 16.1462 29.2549 16.4237 28.7404 16.607C28.2008 16.7991 27.8024 16.8511 27.575 16.7918L27.4488 17.2756ZM30.5435 16.3048L30.8156 16.7242C31.2338 16.453 31.5593 16.2078 31.7977 15.8536C32.0329 15.5041 32.1537 15.0923 32.2716 14.5586L31.7834 14.4508L31.2951 14.3429C31.18 14.8644 31.09 15.1141 30.9681 15.2952C30.8495 15.4715 30.6716 15.6257 30.2714 15.8853L30.5435 16.3048ZM31.7834 14.4508L32.2756 14.5388C32.4265 13.6951 32.4014 12.8293 32.2019 11.9957L31.7156 12.1122L31.2293 12.2286C31.3968 12.9281 31.4179 13.6547 31.2912 14.3627L31.7834 14.4508Z" fill="#FFCD00" mask="url(#path-1-outside-1_12076_25636)"/>
</svg>
